%TF.GenerationSoftware,KiCad,Pcbnew,8.0.3-8.0.3-0~ubuntu22.04.1*%
%TF.CreationDate,2025-12-31T16:49:29+00:00*%
%TF.ProjectId,pixelpusher,70697865-6c70-4757-9368-65722e6b6963,rev?*%
%TF.SameCoordinates,Original*%
%TF.FileFunction,Paste,Top*%
%TF.FilePolarity,Positive*%
%FSLAX46Y46*%
G04 Gerber Fmt 4.6, Leading zero omitted, Abs format (unit mm)*
G04 Created by KiCad (PCBNEW 8.0.3-8.0.3-0~ubuntu22.04.1) date 2025-12-31 16:49:29*
%MOMM*%
%LPD*%
G01*
G04 APERTURE LIST*
G04 Aperture macros list*
%AMRoundRect*
0 Rectangle with rounded corners*
0 $1 Rounding radius*
0 $2 $3 $4 $5 $6 $7 $8 $9 X,Y pos of 4 corners*
0 Add a 4 corners polygon primitive as box body*
4,1,4,$2,$3,$4,$5,$6,$7,$8,$9,$2,$3,0*
0 Add four circle primitives for the rounded corners*
1,1,$1+$1,$2,$3*
1,1,$1+$1,$4,$5*
1,1,$1+$1,$6,$7*
1,1,$1+$1,$8,$9*
0 Add four rect primitives between the rounded corners*
20,1,$1+$1,$2,$3,$4,$5,0*
20,1,$1+$1,$4,$5,$6,$7,0*
20,1,$1+$1,$6,$7,$8,$9,0*
20,1,$1+$1,$8,$9,$2,$3,0*%
G04 Aperture macros list end*
%ADD10RoundRect,0.250000X-0.262500X-0.450000X0.262500X-0.450000X0.262500X0.450000X-0.262500X0.450000X0*%
%ADD11RoundRect,0.150000X-0.875000X-0.150000X0.875000X-0.150000X0.875000X0.150000X-0.875000X0.150000X0*%
%TA.AperFunction,Profile*%
%ADD12C,0.050000*%
%TD*%
G04 APERTURE END LIST*
D10*
%TO.C,R1*%
X148947500Y-123190000D03*
X150772500Y-123190000D03*
%TD*%
%TO.C,R7*%
X140415000Y-118070000D03*
X142240000Y-118070000D03*
%TD*%
%TO.C,R6*%
X140415000Y-120610000D03*
X142240000Y-120610000D03*
%TD*%
%TO.C,R2*%
X148947500Y-120650000D03*
X150772500Y-120650000D03*
%TD*%
%TO.C,R5*%
X140415000Y-123150000D03*
X142240000Y-123150000D03*
%TD*%
%TO.C,R8*%
X140415000Y-115570000D03*
X142240000Y-115570000D03*
%TD*%
%TO.C,R4*%
X148947500Y-115570000D03*
X150772500Y-115570000D03*
%TD*%
%TO.C,R3*%
X148947500Y-118110000D03*
X150772500Y-118110000D03*
%TD*%
D11*
%TO.C,U2*%
X141400000Y-93345000D03*
X141400000Y-94615000D03*
X141400000Y-95885000D03*
X141400000Y-97155000D03*
X141400000Y-98425000D03*
X141400000Y-99695000D03*
X141400000Y-100965000D03*
X141400000Y-102235000D03*
X141400000Y-103505000D03*
X141400000Y-104775000D03*
X150700000Y-104775000D03*
X150700000Y-103505000D03*
X150700000Y-102235000D03*
X150700000Y-100965000D03*
X150700000Y-99695000D03*
X150700000Y-98425000D03*
X150700000Y-97155000D03*
X150700000Y-95885000D03*
X150700000Y-94615000D03*
X150700000Y-93345000D03*
%TD*%
D12*
X133810000Y-84455000D02*
X189405000Y-84455000D01*
X189405000Y-84455000D02*
G75*
G02*
X192405000Y-87455000I0J-3000000D01*
G01*
X133810000Y-138430000D02*
G75*
G02*
X130810000Y-135430000I0J3000000D01*
G01*
X130810000Y-135430000D02*
X130810000Y-87455000D01*
X192405000Y-135430000D02*
G75*
G02*
X189405000Y-138430000I-3000000J0D01*
G01*
X189405000Y-138430000D02*
X133810000Y-138430000D01*
X192405000Y-87455000D02*
X192405000Y-135430000D01*
X130810000Y-87455000D02*
G75*
G02*
X133810000Y-84455000I3000000J0D01*
G01*
M02*
