%TF.GenerationSoftware,KiCad,Pcbnew,8.0.3-8.0.3-0~ubuntu22.04.1*%
%TF.CreationDate,2025-12-31T16:49:37+00:00*%
%TF.ProjectId,pixelpusher,70697865-6c70-4757-9368-65722e6b6963,rev?*%
%TF.SameCoordinates,Original*%
%TF.FileFunction,Drillmap*%
%TF.FilePolarity,Positive*%
%FSLAX45Y45*%
G04 Gerber Fmt 4.5, Leading zero omitted, Abs format (unit mm)*
G04 Created by KiCad (PCBNEW 8.0.3-8.0.3-0~ubuntu22.04.1) date 2025-12-31 16:49:37*
%MOMM*%
%LPD*%
G01*
G04 APERTURE LIST*
%ADD10C,0.050000*%
%ADD11C,0.200000*%
%ADD12C,0.150000*%
%ADD13C,0.180000*%
%ADD14C,0.320000*%
G04 APERTURE END LIST*
D10*
X13381000Y-8445500D02*
X18940500Y-8445500D01*
X18940500Y-8445500D02*
G75*
G02*
X19240500Y-8745500I0J-300000D01*
G01*
X13381000Y-13843000D02*
G75*
G02*
X13081000Y-13543000I0J300000D01*
G01*
X13081000Y-13543000D02*
X13081000Y-8745500D01*
X19240500Y-13543000D02*
G75*
G02*
X18940500Y-13843000I-300000J0D01*
G01*
X18940500Y-13843000D02*
X13381000Y-13843000D01*
X19240500Y-8745500D02*
X19240500Y-13543000D01*
X13081000Y-8745500D02*
G75*
G02*
X13381000Y-8445500I300000J0D01*
G01*
D11*
D12*
X16573500Y-8877000D02*
X16723500Y-9027000D01*
X16723500Y-8877000D02*
X16573500Y-9027000D01*
X17058500Y-8877000D02*
X17208500Y-9027000D01*
X17208500Y-8877000D02*
X17058500Y-9027000D01*
D13*
X16708500Y-8649000D02*
G75*
G02*
X16528500Y-8649000I-90000J0D01*
G01*
X16528500Y-8649000D02*
G75*
G02*
X16708500Y-8649000I90000J0D01*
G01*
X17253500Y-8649000D02*
G75*
G02*
X17073500Y-8649000I-90000J0D01*
G01*
X17073500Y-8649000D02*
G75*
G02*
X17253500Y-8649000I90000J0D01*
G01*
D14*
X13462000Y-8666500D02*
X13462000Y-8986500D01*
X13302000Y-8826500D02*
X13622000Y-8826500D01*
X13462000Y-13302000D02*
X13462000Y-13622000D01*
X13302000Y-13462000D02*
X13622000Y-13462000D01*
X18859500Y-8666500D02*
X18859500Y-8986500D01*
X18699500Y-8826500D02*
X19019500Y-8826500D01*
X18859500Y-13302000D02*
X18859500Y-13622000D01*
X18699500Y-13462000D02*
X19019500Y-13462000D01*
D11*
X13339277Y-14156984D02*
X13339277Y-13956984D01*
X13339277Y-13956984D02*
X13386896Y-13956984D01*
X13386896Y-13956984D02*
X13415467Y-13966508D01*
X13415467Y-13966508D02*
X13434515Y-13985555D01*
X13434515Y-13985555D02*
X13444039Y-14004603D01*
X13444039Y-14004603D02*
X13453562Y-14042698D01*
X13453562Y-14042698D02*
X13453562Y-14071269D01*
X13453562Y-14071269D02*
X13444039Y-14109365D01*
X13444039Y-14109365D02*
X13434515Y-14128412D01*
X13434515Y-14128412D02*
X13415467Y-14147460D01*
X13415467Y-14147460D02*
X13386896Y-14156984D01*
X13386896Y-14156984D02*
X13339277Y-14156984D01*
X13539277Y-14156984D02*
X13539277Y-14023650D01*
X13539277Y-14061746D02*
X13548801Y-14042698D01*
X13548801Y-14042698D02*
X13558324Y-14033174D01*
X13558324Y-14033174D02*
X13577372Y-14023650D01*
X13577372Y-14023650D02*
X13596420Y-14023650D01*
X13663086Y-14156984D02*
X13663086Y-14023650D01*
X13663086Y-13956984D02*
X13653562Y-13966508D01*
X13653562Y-13966508D02*
X13663086Y-13976031D01*
X13663086Y-13976031D02*
X13672610Y-13966508D01*
X13672610Y-13966508D02*
X13663086Y-13956984D01*
X13663086Y-13956984D02*
X13663086Y-13976031D01*
X13786896Y-14156984D02*
X13767848Y-14147460D01*
X13767848Y-14147460D02*
X13758324Y-14128412D01*
X13758324Y-14128412D02*
X13758324Y-13956984D01*
X13891658Y-14156984D02*
X13872610Y-14147460D01*
X13872610Y-14147460D02*
X13863086Y-14128412D01*
X13863086Y-14128412D02*
X13863086Y-13956984D01*
X14120229Y-14156984D02*
X14120229Y-13956984D01*
X14120229Y-13956984D02*
X14186896Y-14099841D01*
X14186896Y-14099841D02*
X14253562Y-13956984D01*
X14253562Y-13956984D02*
X14253562Y-14156984D01*
X14434515Y-14156984D02*
X14434515Y-14052222D01*
X14434515Y-14052222D02*
X14424991Y-14033174D01*
X14424991Y-14033174D02*
X14405943Y-14023650D01*
X14405943Y-14023650D02*
X14367848Y-14023650D01*
X14367848Y-14023650D02*
X14348801Y-14033174D01*
X14434515Y-14147460D02*
X14415467Y-14156984D01*
X14415467Y-14156984D02*
X14367848Y-14156984D01*
X14367848Y-14156984D02*
X14348801Y-14147460D01*
X14348801Y-14147460D02*
X14339277Y-14128412D01*
X14339277Y-14128412D02*
X14339277Y-14109365D01*
X14339277Y-14109365D02*
X14348801Y-14090317D01*
X14348801Y-14090317D02*
X14367848Y-14080793D01*
X14367848Y-14080793D02*
X14415467Y-14080793D01*
X14415467Y-14080793D02*
X14434515Y-14071269D01*
X14529753Y-14023650D02*
X14529753Y-14223650D01*
X14529753Y-14033174D02*
X14548801Y-14023650D01*
X14548801Y-14023650D02*
X14586896Y-14023650D01*
X14586896Y-14023650D02*
X14605943Y-14033174D01*
X14605943Y-14033174D02*
X14615467Y-14042698D01*
X14615467Y-14042698D02*
X14624991Y-14061746D01*
X14624991Y-14061746D02*
X14624991Y-14118888D01*
X14624991Y-14118888D02*
X14615467Y-14137936D01*
X14615467Y-14137936D02*
X14605943Y-14147460D01*
X14605943Y-14147460D02*
X14586896Y-14156984D01*
X14586896Y-14156984D02*
X14548801Y-14156984D01*
X14548801Y-14156984D02*
X14529753Y-14147460D01*
X14710705Y-14137936D02*
X14720229Y-14147460D01*
X14720229Y-14147460D02*
X14710705Y-14156984D01*
X14710705Y-14156984D02*
X14701182Y-14147460D01*
X14701182Y-14147460D02*
X14710705Y-14137936D01*
X14710705Y-14137936D02*
X14710705Y-14156984D01*
X14710705Y-14033174D02*
X14720229Y-14042698D01*
X14720229Y-14042698D02*
X14710705Y-14052222D01*
X14710705Y-14052222D02*
X14701182Y-14042698D01*
X14701182Y-14042698D02*
X14710705Y-14033174D01*
X14710705Y-14033174D02*
X14710705Y-14052222D01*
D12*
X12928500Y-14410500D02*
X13078500Y-14560500D01*
X13078500Y-14410500D02*
X12928500Y-14560500D01*
D11*
X13444039Y-14576984D02*
X13329753Y-14576984D01*
X13386896Y-14576984D02*
X13386896Y-14376984D01*
X13386896Y-14376984D02*
X13367848Y-14405555D01*
X13367848Y-14405555D02*
X13348801Y-14424603D01*
X13348801Y-14424603D02*
X13329753Y-14434127D01*
X13529753Y-14557936D02*
X13539277Y-14567460D01*
X13539277Y-14567460D02*
X13529753Y-14576984D01*
X13529753Y-14576984D02*
X13520229Y-14567460D01*
X13520229Y-14567460D02*
X13529753Y-14557936D01*
X13529753Y-14557936D02*
X13529753Y-14576984D01*
X13720229Y-14376984D02*
X13624991Y-14376984D01*
X13624991Y-14376984D02*
X13615467Y-14472222D01*
X13615467Y-14472222D02*
X13624991Y-14462698D01*
X13624991Y-14462698D02*
X13644039Y-14453174D01*
X13644039Y-14453174D02*
X13691658Y-14453174D01*
X13691658Y-14453174D02*
X13710705Y-14462698D01*
X13710705Y-14462698D02*
X13720229Y-14472222D01*
X13720229Y-14472222D02*
X13729753Y-14491269D01*
X13729753Y-14491269D02*
X13729753Y-14538888D01*
X13729753Y-14538888D02*
X13720229Y-14557936D01*
X13720229Y-14557936D02*
X13710705Y-14567460D01*
X13710705Y-14567460D02*
X13691658Y-14576984D01*
X13691658Y-14576984D02*
X13644039Y-14576984D01*
X13644039Y-14576984D02*
X13624991Y-14567460D01*
X13624991Y-14567460D02*
X13615467Y-14557936D01*
X13853562Y-14376984D02*
X13872610Y-14376984D01*
X13872610Y-14376984D02*
X13891658Y-14386508D01*
X13891658Y-14386508D02*
X13901182Y-14396031D01*
X13901182Y-14396031D02*
X13910705Y-14415079D01*
X13910705Y-14415079D02*
X13920229Y-14453174D01*
X13920229Y-14453174D02*
X13920229Y-14500793D01*
X13920229Y-14500793D02*
X13910705Y-14538888D01*
X13910705Y-14538888D02*
X13901182Y-14557936D01*
X13901182Y-14557936D02*
X13891658Y-14567460D01*
X13891658Y-14567460D02*
X13872610Y-14576984D01*
X13872610Y-14576984D02*
X13853562Y-14576984D01*
X13853562Y-14576984D02*
X13834515Y-14567460D01*
X13834515Y-14567460D02*
X13824991Y-14557936D01*
X13824991Y-14557936D02*
X13815467Y-14538888D01*
X13815467Y-14538888D02*
X13805943Y-14500793D01*
X13805943Y-14500793D02*
X13805943Y-14453174D01*
X13805943Y-14453174D02*
X13815467Y-14415079D01*
X13815467Y-14415079D02*
X13824991Y-14396031D01*
X13824991Y-14396031D02*
X13834515Y-14386508D01*
X13834515Y-14386508D02*
X13853562Y-14376984D01*
X14044039Y-14376984D02*
X14063086Y-14376984D01*
X14063086Y-14376984D02*
X14082134Y-14386508D01*
X14082134Y-14386508D02*
X14091658Y-14396031D01*
X14091658Y-14396031D02*
X14101182Y-14415079D01*
X14101182Y-14415079D02*
X14110705Y-14453174D01*
X14110705Y-14453174D02*
X14110705Y-14500793D01*
X14110705Y-14500793D02*
X14101182Y-14538888D01*
X14101182Y-14538888D02*
X14091658Y-14557936D01*
X14091658Y-14557936D02*
X14082134Y-14567460D01*
X14082134Y-14567460D02*
X14063086Y-14576984D01*
X14063086Y-14576984D02*
X14044039Y-14576984D01*
X14044039Y-14576984D02*
X14024991Y-14567460D01*
X14024991Y-14567460D02*
X14015467Y-14557936D01*
X14015467Y-14557936D02*
X14005943Y-14538888D01*
X14005943Y-14538888D02*
X13996420Y-14500793D01*
X13996420Y-14500793D02*
X13996420Y-14453174D01*
X13996420Y-14453174D02*
X14005943Y-14415079D01*
X14005943Y-14415079D02*
X14015467Y-14396031D01*
X14015467Y-14396031D02*
X14024991Y-14386508D01*
X14024991Y-14386508D02*
X14044039Y-14376984D01*
X14196420Y-14576984D02*
X14196420Y-14443650D01*
X14196420Y-14462698D02*
X14205943Y-14453174D01*
X14205943Y-14453174D02*
X14224991Y-14443650D01*
X14224991Y-14443650D02*
X14253563Y-14443650D01*
X14253563Y-14443650D02*
X14272610Y-14453174D01*
X14272610Y-14453174D02*
X14282134Y-14472222D01*
X14282134Y-14472222D02*
X14282134Y-14576984D01*
X14282134Y-14472222D02*
X14291658Y-14453174D01*
X14291658Y-14453174D02*
X14310705Y-14443650D01*
X14310705Y-14443650D02*
X14339277Y-14443650D01*
X14339277Y-14443650D02*
X14358324Y-14453174D01*
X14358324Y-14453174D02*
X14367848Y-14472222D01*
X14367848Y-14472222D02*
X14367848Y-14576984D01*
X14463086Y-14576984D02*
X14463086Y-14443650D01*
X14463086Y-14462698D02*
X14472610Y-14453174D01*
X14472610Y-14453174D02*
X14491658Y-14443650D01*
X14491658Y-14443650D02*
X14520229Y-14443650D01*
X14520229Y-14443650D02*
X14539277Y-14453174D01*
X14539277Y-14453174D02*
X14548801Y-14472222D01*
X14548801Y-14472222D02*
X14548801Y-14576984D01*
X14548801Y-14472222D02*
X14558324Y-14453174D01*
X14558324Y-14453174D02*
X14577372Y-14443650D01*
X14577372Y-14443650D02*
X14605943Y-14443650D01*
X14605943Y-14443650D02*
X14624991Y-14453174D01*
X14624991Y-14453174D02*
X14634515Y-14472222D01*
X14634515Y-14472222D02*
X14634515Y-14576984D01*
X15024991Y-14367460D02*
X14853563Y-14624603D01*
X15282134Y-14376984D02*
X15301182Y-14376984D01*
X15301182Y-14376984D02*
X15320229Y-14386508D01*
X15320229Y-14386508D02*
X15329753Y-14396031D01*
X15329753Y-14396031D02*
X15339277Y-14415079D01*
X15339277Y-14415079D02*
X15348801Y-14453174D01*
X15348801Y-14453174D02*
X15348801Y-14500793D01*
X15348801Y-14500793D02*
X15339277Y-14538888D01*
X15339277Y-14538888D02*
X15329753Y-14557936D01*
X15329753Y-14557936D02*
X15320229Y-14567460D01*
X15320229Y-14567460D02*
X15301182Y-14576984D01*
X15301182Y-14576984D02*
X15282134Y-14576984D01*
X15282134Y-14576984D02*
X15263086Y-14567460D01*
X15263086Y-14567460D02*
X15253563Y-14557936D01*
X15253563Y-14557936D02*
X15244039Y-14538888D01*
X15244039Y-14538888D02*
X15234515Y-14500793D01*
X15234515Y-14500793D02*
X15234515Y-14453174D01*
X15234515Y-14453174D02*
X15244039Y-14415079D01*
X15244039Y-14415079D02*
X15253563Y-14396031D01*
X15253563Y-14396031D02*
X15263086Y-14386508D01*
X15263086Y-14386508D02*
X15282134Y-14376984D01*
X15434515Y-14557936D02*
X15444039Y-14567460D01*
X15444039Y-14567460D02*
X15434515Y-14576984D01*
X15434515Y-14576984D02*
X15424991Y-14567460D01*
X15424991Y-14567460D02*
X15434515Y-14557936D01*
X15434515Y-14557936D02*
X15434515Y-14576984D01*
X15567848Y-14376984D02*
X15586896Y-14376984D01*
X15586896Y-14376984D02*
X15605944Y-14386508D01*
X15605944Y-14386508D02*
X15615467Y-14396031D01*
X15615467Y-14396031D02*
X15624991Y-14415079D01*
X15624991Y-14415079D02*
X15634515Y-14453174D01*
X15634515Y-14453174D02*
X15634515Y-14500793D01*
X15634515Y-14500793D02*
X15624991Y-14538888D01*
X15624991Y-14538888D02*
X15615467Y-14557936D01*
X15615467Y-14557936D02*
X15605944Y-14567460D01*
X15605944Y-14567460D02*
X15586896Y-14576984D01*
X15586896Y-14576984D02*
X15567848Y-14576984D01*
X15567848Y-14576984D02*
X15548801Y-14567460D01*
X15548801Y-14567460D02*
X15539277Y-14557936D01*
X15539277Y-14557936D02*
X15529753Y-14538888D01*
X15529753Y-14538888D02*
X15520229Y-14500793D01*
X15520229Y-14500793D02*
X15520229Y-14453174D01*
X15520229Y-14453174D02*
X15529753Y-14415079D01*
X15529753Y-14415079D02*
X15539277Y-14396031D01*
X15539277Y-14396031D02*
X15548801Y-14386508D01*
X15548801Y-14386508D02*
X15567848Y-14376984D01*
X15815467Y-14376984D02*
X15720229Y-14376984D01*
X15720229Y-14376984D02*
X15710706Y-14472222D01*
X15710706Y-14472222D02*
X15720229Y-14462698D01*
X15720229Y-14462698D02*
X15739277Y-14453174D01*
X15739277Y-14453174D02*
X15786896Y-14453174D01*
X15786896Y-14453174D02*
X15805944Y-14462698D01*
X15805944Y-14462698D02*
X15815467Y-14472222D01*
X15815467Y-14472222D02*
X15824991Y-14491269D01*
X15824991Y-14491269D02*
X15824991Y-14538888D01*
X15824991Y-14538888D02*
X15815467Y-14557936D01*
X15815467Y-14557936D02*
X15805944Y-14567460D01*
X15805944Y-14567460D02*
X15786896Y-14576984D01*
X15786896Y-14576984D02*
X15739277Y-14576984D01*
X15739277Y-14576984D02*
X15720229Y-14567460D01*
X15720229Y-14567460D02*
X15710706Y-14557936D01*
X15920229Y-14576984D02*
X15958325Y-14576984D01*
X15958325Y-14576984D02*
X15977372Y-14567460D01*
X15977372Y-14567460D02*
X15986896Y-14557936D01*
X15986896Y-14557936D02*
X16005944Y-14529365D01*
X16005944Y-14529365D02*
X16015467Y-14491269D01*
X16015467Y-14491269D02*
X16015467Y-14415079D01*
X16015467Y-14415079D02*
X16005944Y-14396031D01*
X16005944Y-14396031D02*
X15996420Y-14386508D01*
X15996420Y-14386508D02*
X15977372Y-14376984D01*
X15977372Y-14376984D02*
X15939277Y-14376984D01*
X15939277Y-14376984D02*
X15920229Y-14386508D01*
X15920229Y-14386508D02*
X15910706Y-14396031D01*
X15910706Y-14396031D02*
X15901182Y-14415079D01*
X15901182Y-14415079D02*
X15901182Y-14462698D01*
X15901182Y-14462698D02*
X15910706Y-14481746D01*
X15910706Y-14481746D02*
X15920229Y-14491269D01*
X15920229Y-14491269D02*
X15939277Y-14500793D01*
X15939277Y-14500793D02*
X15977372Y-14500793D01*
X15977372Y-14500793D02*
X15996420Y-14491269D01*
X15996420Y-14491269D02*
X16005944Y-14481746D01*
X16005944Y-14481746D02*
X16015467Y-14462698D01*
X16205944Y-14576984D02*
X16091658Y-14576984D01*
X16148801Y-14576984D02*
X16148801Y-14376984D01*
X16148801Y-14376984D02*
X16129753Y-14405555D01*
X16129753Y-14405555D02*
X16110706Y-14424603D01*
X16110706Y-14424603D02*
X16091658Y-14434127D01*
X16282134Y-14376984D02*
X16282134Y-14415079D01*
X16358325Y-14376984D02*
X16358325Y-14415079D01*
X16653563Y-14653174D02*
X16644039Y-14643650D01*
X16644039Y-14643650D02*
X16624991Y-14615079D01*
X16624991Y-14615079D02*
X16615468Y-14596031D01*
X16615468Y-14596031D02*
X16605944Y-14567460D01*
X16605944Y-14567460D02*
X16596420Y-14519841D01*
X16596420Y-14519841D02*
X16596420Y-14481746D01*
X16596420Y-14481746D02*
X16605944Y-14434127D01*
X16605944Y-14434127D02*
X16615468Y-14405555D01*
X16615468Y-14405555D02*
X16624991Y-14386508D01*
X16624991Y-14386508D02*
X16644039Y-14357936D01*
X16644039Y-14357936D02*
X16653563Y-14348412D01*
X16720229Y-14396031D02*
X16729753Y-14386508D01*
X16729753Y-14386508D02*
X16748801Y-14376984D01*
X16748801Y-14376984D02*
X16796420Y-14376984D01*
X16796420Y-14376984D02*
X16815468Y-14386508D01*
X16815468Y-14386508D02*
X16824991Y-14396031D01*
X16824991Y-14396031D02*
X16834515Y-14415079D01*
X16834515Y-14415079D02*
X16834515Y-14434127D01*
X16834515Y-14434127D02*
X16824991Y-14462698D01*
X16824991Y-14462698D02*
X16710706Y-14576984D01*
X16710706Y-14576984D02*
X16834515Y-14576984D01*
X17072611Y-14576984D02*
X17072611Y-14376984D01*
X17158325Y-14576984D02*
X17158325Y-14472222D01*
X17158325Y-14472222D02*
X17148801Y-14453174D01*
X17148801Y-14453174D02*
X17129753Y-14443650D01*
X17129753Y-14443650D02*
X17101182Y-14443650D01*
X17101182Y-14443650D02*
X17082134Y-14453174D01*
X17082134Y-14453174D02*
X17072611Y-14462698D01*
X17282134Y-14576984D02*
X17263087Y-14567460D01*
X17263087Y-14567460D02*
X17253563Y-14557936D01*
X17253563Y-14557936D02*
X17244039Y-14538888D01*
X17244039Y-14538888D02*
X17244039Y-14481746D01*
X17244039Y-14481746D02*
X17253563Y-14462698D01*
X17253563Y-14462698D02*
X17263087Y-14453174D01*
X17263087Y-14453174D02*
X17282134Y-14443650D01*
X17282134Y-14443650D02*
X17310706Y-14443650D01*
X17310706Y-14443650D02*
X17329753Y-14453174D01*
X17329753Y-14453174D02*
X17339277Y-14462698D01*
X17339277Y-14462698D02*
X17348801Y-14481746D01*
X17348801Y-14481746D02*
X17348801Y-14538888D01*
X17348801Y-14538888D02*
X17339277Y-14557936D01*
X17339277Y-14557936D02*
X17329753Y-14567460D01*
X17329753Y-14567460D02*
X17310706Y-14576984D01*
X17310706Y-14576984D02*
X17282134Y-14576984D01*
X17463087Y-14576984D02*
X17444039Y-14567460D01*
X17444039Y-14567460D02*
X17434515Y-14548412D01*
X17434515Y-14548412D02*
X17434515Y-14376984D01*
X17615468Y-14567460D02*
X17596420Y-14576984D01*
X17596420Y-14576984D02*
X17558325Y-14576984D01*
X17558325Y-14576984D02*
X17539277Y-14567460D01*
X17539277Y-14567460D02*
X17529753Y-14548412D01*
X17529753Y-14548412D02*
X17529753Y-14472222D01*
X17529753Y-14472222D02*
X17539277Y-14453174D01*
X17539277Y-14453174D02*
X17558325Y-14443650D01*
X17558325Y-14443650D02*
X17596420Y-14443650D01*
X17596420Y-14443650D02*
X17615468Y-14453174D01*
X17615468Y-14453174D02*
X17624992Y-14472222D01*
X17624992Y-14472222D02*
X17624992Y-14491269D01*
X17624992Y-14491269D02*
X17529753Y-14510317D01*
X17701182Y-14567460D02*
X17720230Y-14576984D01*
X17720230Y-14576984D02*
X17758325Y-14576984D01*
X17758325Y-14576984D02*
X17777373Y-14567460D01*
X17777373Y-14567460D02*
X17786896Y-14548412D01*
X17786896Y-14548412D02*
X17786896Y-14538888D01*
X17786896Y-14538888D02*
X17777373Y-14519841D01*
X17777373Y-14519841D02*
X17758325Y-14510317D01*
X17758325Y-14510317D02*
X17729753Y-14510317D01*
X17729753Y-14510317D02*
X17710706Y-14500793D01*
X17710706Y-14500793D02*
X17701182Y-14481746D01*
X17701182Y-14481746D02*
X17701182Y-14472222D01*
X17701182Y-14472222D02*
X17710706Y-14453174D01*
X17710706Y-14453174D02*
X17729753Y-14443650D01*
X17729753Y-14443650D02*
X17758325Y-14443650D01*
X17758325Y-14443650D02*
X17777373Y-14453174D01*
X17853563Y-14653174D02*
X17863087Y-14643650D01*
X17863087Y-14643650D02*
X17882134Y-14615079D01*
X17882134Y-14615079D02*
X17891658Y-14596031D01*
X17891658Y-14596031D02*
X17901182Y-14567460D01*
X17901182Y-14567460D02*
X17910706Y-14519841D01*
X17910706Y-14519841D02*
X17910706Y-14481746D01*
X17910706Y-14481746D02*
X17901182Y-14434127D01*
X17901182Y-14434127D02*
X17891658Y-14405555D01*
X17891658Y-14405555D02*
X17882134Y-14386508D01*
X17882134Y-14386508D02*
X17863087Y-14357936D01*
X17863087Y-14357936D02*
X17853563Y-14348412D01*
X18215468Y-14653174D02*
X18205944Y-14643650D01*
X18205944Y-14643650D02*
X18186896Y-14615079D01*
X18186896Y-14615079D02*
X18177373Y-14596031D01*
X18177373Y-14596031D02*
X18167849Y-14567460D01*
X18167849Y-14567460D02*
X18158325Y-14519841D01*
X18158325Y-14519841D02*
X18158325Y-14481746D01*
X18158325Y-14481746D02*
X18167849Y-14434127D01*
X18167849Y-14434127D02*
X18177373Y-14405555D01*
X18177373Y-14405555D02*
X18186896Y-14386508D01*
X18186896Y-14386508D02*
X18205944Y-14357936D01*
X18205944Y-14357936D02*
X18215468Y-14348412D01*
X18291658Y-14443650D02*
X18291658Y-14576984D01*
X18291658Y-14462698D02*
X18301182Y-14453174D01*
X18301182Y-14453174D02*
X18320230Y-14443650D01*
X18320230Y-14443650D02*
X18348801Y-14443650D01*
X18348801Y-14443650D02*
X18367849Y-14453174D01*
X18367849Y-14453174D02*
X18377373Y-14472222D01*
X18377373Y-14472222D02*
X18377373Y-14576984D01*
X18501182Y-14576984D02*
X18482134Y-14567460D01*
X18482134Y-14567460D02*
X18472611Y-14557936D01*
X18472611Y-14557936D02*
X18463087Y-14538888D01*
X18463087Y-14538888D02*
X18463087Y-14481746D01*
X18463087Y-14481746D02*
X18472611Y-14462698D01*
X18472611Y-14462698D02*
X18482134Y-14453174D01*
X18482134Y-14453174D02*
X18501182Y-14443650D01*
X18501182Y-14443650D02*
X18529754Y-14443650D01*
X18529754Y-14443650D02*
X18548801Y-14453174D01*
X18548801Y-14453174D02*
X18558325Y-14462698D01*
X18558325Y-14462698D02*
X18567849Y-14481746D01*
X18567849Y-14481746D02*
X18567849Y-14538888D01*
X18567849Y-14538888D02*
X18558325Y-14557936D01*
X18558325Y-14557936D02*
X18548801Y-14567460D01*
X18548801Y-14567460D02*
X18529754Y-14576984D01*
X18529754Y-14576984D02*
X18501182Y-14576984D01*
X18624992Y-14443650D02*
X18701182Y-14443650D01*
X18653563Y-14376984D02*
X18653563Y-14548412D01*
X18653563Y-14548412D02*
X18663087Y-14567460D01*
X18663087Y-14567460D02*
X18682134Y-14576984D01*
X18682134Y-14576984D02*
X18701182Y-14576984D01*
X18920230Y-14443650D02*
X18920230Y-14643650D01*
X18920230Y-14453174D02*
X18939277Y-14443650D01*
X18939277Y-14443650D02*
X18977373Y-14443650D01*
X18977373Y-14443650D02*
X18996420Y-14453174D01*
X18996420Y-14453174D02*
X19005944Y-14462698D01*
X19005944Y-14462698D02*
X19015468Y-14481746D01*
X19015468Y-14481746D02*
X19015468Y-14538888D01*
X19015468Y-14538888D02*
X19005944Y-14557936D01*
X19005944Y-14557936D02*
X18996420Y-14567460D01*
X18996420Y-14567460D02*
X18977373Y-14576984D01*
X18977373Y-14576984D02*
X18939277Y-14576984D01*
X18939277Y-14576984D02*
X18920230Y-14567460D01*
X19129754Y-14576984D02*
X19110706Y-14567460D01*
X19110706Y-14567460D02*
X19101182Y-14548412D01*
X19101182Y-14548412D02*
X19101182Y-14376984D01*
X19291658Y-14576984D02*
X19291658Y-14472222D01*
X19291658Y-14472222D02*
X19282135Y-14453174D01*
X19282135Y-14453174D02*
X19263087Y-14443650D01*
X19263087Y-14443650D02*
X19224992Y-14443650D01*
X19224992Y-14443650D02*
X19205944Y-14453174D01*
X19291658Y-14567460D02*
X19272611Y-14576984D01*
X19272611Y-14576984D02*
X19224992Y-14576984D01*
X19224992Y-14576984D02*
X19205944Y-14567460D01*
X19205944Y-14567460D02*
X19196420Y-14548412D01*
X19196420Y-14548412D02*
X19196420Y-14529365D01*
X19196420Y-14529365D02*
X19205944Y-14510317D01*
X19205944Y-14510317D02*
X19224992Y-14500793D01*
X19224992Y-14500793D02*
X19272611Y-14500793D01*
X19272611Y-14500793D02*
X19291658Y-14491269D01*
X19358325Y-14443650D02*
X19434515Y-14443650D01*
X19386896Y-14376984D02*
X19386896Y-14548412D01*
X19386896Y-14548412D02*
X19396420Y-14567460D01*
X19396420Y-14567460D02*
X19415468Y-14576984D01*
X19415468Y-14576984D02*
X19434515Y-14576984D01*
X19577373Y-14567460D02*
X19558325Y-14576984D01*
X19558325Y-14576984D02*
X19520230Y-14576984D01*
X19520230Y-14576984D02*
X19501182Y-14567460D01*
X19501182Y-14567460D02*
X19491658Y-14548412D01*
X19491658Y-14548412D02*
X19491658Y-14472222D01*
X19491658Y-14472222D02*
X19501182Y-14453174D01*
X19501182Y-14453174D02*
X19520230Y-14443650D01*
X19520230Y-14443650D02*
X19558325Y-14443650D01*
X19558325Y-14443650D02*
X19577373Y-14453174D01*
X19577373Y-14453174D02*
X19586896Y-14472222D01*
X19586896Y-14472222D02*
X19586896Y-14491269D01*
X19586896Y-14491269D02*
X19491658Y-14510317D01*
X19758325Y-14576984D02*
X19758325Y-14376984D01*
X19758325Y-14567460D02*
X19739277Y-14576984D01*
X19739277Y-14576984D02*
X19701182Y-14576984D01*
X19701182Y-14576984D02*
X19682135Y-14567460D01*
X19682135Y-14567460D02*
X19672611Y-14557936D01*
X19672611Y-14557936D02*
X19663087Y-14538888D01*
X19663087Y-14538888D02*
X19663087Y-14481746D01*
X19663087Y-14481746D02*
X19672611Y-14462698D01*
X19672611Y-14462698D02*
X19682135Y-14453174D01*
X19682135Y-14453174D02*
X19701182Y-14443650D01*
X19701182Y-14443650D02*
X19739277Y-14443650D01*
X19739277Y-14443650D02*
X19758325Y-14453174D01*
X19834516Y-14653174D02*
X19844039Y-14643650D01*
X19844039Y-14643650D02*
X19863087Y-14615079D01*
X19863087Y-14615079D02*
X19872611Y-14596031D01*
X19872611Y-14596031D02*
X19882135Y-14567460D01*
X19882135Y-14567460D02*
X19891658Y-14519841D01*
X19891658Y-14519841D02*
X19891658Y-14481746D01*
X19891658Y-14481746D02*
X19882135Y-14434127D01*
X19882135Y-14434127D02*
X19872611Y-14405555D01*
X19872611Y-14405555D02*
X19863087Y-14386508D01*
X19863087Y-14386508D02*
X19844039Y-14357936D01*
X19844039Y-14357936D02*
X19834516Y-14348412D01*
D13*
X13078500Y-14755500D02*
G75*
G02*
X12898500Y-14755500I-90000J0D01*
G01*
X12898500Y-14755500D02*
G75*
G02*
X13078500Y-14755500I90000J0D01*
G01*
D11*
X13444039Y-14846984D02*
X13329753Y-14846984D01*
X13386896Y-14846984D02*
X13386896Y-14646984D01*
X13386896Y-14646984D02*
X13367848Y-14675555D01*
X13367848Y-14675555D02*
X13348801Y-14694603D01*
X13348801Y-14694603D02*
X13329753Y-14704127D01*
X13529753Y-14827936D02*
X13539277Y-14837460D01*
X13539277Y-14837460D02*
X13529753Y-14846984D01*
X13529753Y-14846984D02*
X13520229Y-14837460D01*
X13520229Y-14837460D02*
X13529753Y-14827936D01*
X13529753Y-14827936D02*
X13529753Y-14846984D01*
X13653562Y-14732698D02*
X13634515Y-14723174D01*
X13634515Y-14723174D02*
X13624991Y-14713650D01*
X13624991Y-14713650D02*
X13615467Y-14694603D01*
X13615467Y-14694603D02*
X13615467Y-14685079D01*
X13615467Y-14685079D02*
X13624991Y-14666031D01*
X13624991Y-14666031D02*
X13634515Y-14656508D01*
X13634515Y-14656508D02*
X13653562Y-14646984D01*
X13653562Y-14646984D02*
X13691658Y-14646984D01*
X13691658Y-14646984D02*
X13710705Y-14656508D01*
X13710705Y-14656508D02*
X13720229Y-14666031D01*
X13720229Y-14666031D02*
X13729753Y-14685079D01*
X13729753Y-14685079D02*
X13729753Y-14694603D01*
X13729753Y-14694603D02*
X13720229Y-14713650D01*
X13720229Y-14713650D02*
X13710705Y-14723174D01*
X13710705Y-14723174D02*
X13691658Y-14732698D01*
X13691658Y-14732698D02*
X13653562Y-14732698D01*
X13653562Y-14732698D02*
X13634515Y-14742222D01*
X13634515Y-14742222D02*
X13624991Y-14751746D01*
X13624991Y-14751746D02*
X13615467Y-14770793D01*
X13615467Y-14770793D02*
X13615467Y-14808888D01*
X13615467Y-14808888D02*
X13624991Y-14827936D01*
X13624991Y-14827936D02*
X13634515Y-14837460D01*
X13634515Y-14837460D02*
X13653562Y-14846984D01*
X13653562Y-14846984D02*
X13691658Y-14846984D01*
X13691658Y-14846984D02*
X13710705Y-14837460D01*
X13710705Y-14837460D02*
X13720229Y-14827936D01*
X13720229Y-14827936D02*
X13729753Y-14808888D01*
X13729753Y-14808888D02*
X13729753Y-14770793D01*
X13729753Y-14770793D02*
X13720229Y-14751746D01*
X13720229Y-14751746D02*
X13710705Y-14742222D01*
X13710705Y-14742222D02*
X13691658Y-14732698D01*
X13853562Y-14646984D02*
X13872610Y-14646984D01*
X13872610Y-14646984D02*
X13891658Y-14656508D01*
X13891658Y-14656508D02*
X13901182Y-14666031D01*
X13901182Y-14666031D02*
X13910705Y-14685079D01*
X13910705Y-14685079D02*
X13920229Y-14723174D01*
X13920229Y-14723174D02*
X13920229Y-14770793D01*
X13920229Y-14770793D02*
X13910705Y-14808888D01*
X13910705Y-14808888D02*
X13901182Y-14827936D01*
X13901182Y-14827936D02*
X13891658Y-14837460D01*
X13891658Y-14837460D02*
X13872610Y-14846984D01*
X13872610Y-14846984D02*
X13853562Y-14846984D01*
X13853562Y-14846984D02*
X13834515Y-14837460D01*
X13834515Y-14837460D02*
X13824991Y-14827936D01*
X13824991Y-14827936D02*
X13815467Y-14808888D01*
X13815467Y-14808888D02*
X13805943Y-14770793D01*
X13805943Y-14770793D02*
X13805943Y-14723174D01*
X13805943Y-14723174D02*
X13815467Y-14685079D01*
X13815467Y-14685079D02*
X13824991Y-14666031D01*
X13824991Y-14666031D02*
X13834515Y-14656508D01*
X13834515Y-14656508D02*
X13853562Y-14646984D01*
X14044039Y-14646984D02*
X14063086Y-14646984D01*
X14063086Y-14646984D02*
X14082134Y-14656508D01*
X14082134Y-14656508D02*
X14091658Y-14666031D01*
X14091658Y-14666031D02*
X14101182Y-14685079D01*
X14101182Y-14685079D02*
X14110705Y-14723174D01*
X14110705Y-14723174D02*
X14110705Y-14770793D01*
X14110705Y-14770793D02*
X14101182Y-14808888D01*
X14101182Y-14808888D02*
X14091658Y-14827936D01*
X14091658Y-14827936D02*
X14082134Y-14837460D01*
X14082134Y-14837460D02*
X14063086Y-14846984D01*
X14063086Y-14846984D02*
X14044039Y-14846984D01*
X14044039Y-14846984D02*
X14024991Y-14837460D01*
X14024991Y-14837460D02*
X14015467Y-14827936D01*
X14015467Y-14827936D02*
X14005943Y-14808888D01*
X14005943Y-14808888D02*
X13996420Y-14770793D01*
X13996420Y-14770793D02*
X13996420Y-14723174D01*
X13996420Y-14723174D02*
X14005943Y-14685079D01*
X14005943Y-14685079D02*
X14015467Y-14666031D01*
X14015467Y-14666031D02*
X14024991Y-14656508D01*
X14024991Y-14656508D02*
X14044039Y-14646984D01*
X14196420Y-14846984D02*
X14196420Y-14713650D01*
X14196420Y-14732698D02*
X14205943Y-14723174D01*
X14205943Y-14723174D02*
X14224991Y-14713650D01*
X14224991Y-14713650D02*
X14253563Y-14713650D01*
X14253563Y-14713650D02*
X14272610Y-14723174D01*
X14272610Y-14723174D02*
X14282134Y-14742222D01*
X14282134Y-14742222D02*
X14282134Y-14846984D01*
X14282134Y-14742222D02*
X14291658Y-14723174D01*
X14291658Y-14723174D02*
X14310705Y-14713650D01*
X14310705Y-14713650D02*
X14339277Y-14713650D01*
X14339277Y-14713650D02*
X14358324Y-14723174D01*
X14358324Y-14723174D02*
X14367848Y-14742222D01*
X14367848Y-14742222D02*
X14367848Y-14846984D01*
X14463086Y-14846984D02*
X14463086Y-14713650D01*
X14463086Y-14732698D02*
X14472610Y-14723174D01*
X14472610Y-14723174D02*
X14491658Y-14713650D01*
X14491658Y-14713650D02*
X14520229Y-14713650D01*
X14520229Y-14713650D02*
X14539277Y-14723174D01*
X14539277Y-14723174D02*
X14548801Y-14742222D01*
X14548801Y-14742222D02*
X14548801Y-14846984D01*
X14548801Y-14742222D02*
X14558324Y-14723174D01*
X14558324Y-14723174D02*
X14577372Y-14713650D01*
X14577372Y-14713650D02*
X14605943Y-14713650D01*
X14605943Y-14713650D02*
X14624991Y-14723174D01*
X14624991Y-14723174D02*
X14634515Y-14742222D01*
X14634515Y-14742222D02*
X14634515Y-14846984D01*
X15024991Y-14637460D02*
X14853563Y-14894603D01*
X15282134Y-14646984D02*
X15301182Y-14646984D01*
X15301182Y-14646984D02*
X15320229Y-14656508D01*
X15320229Y-14656508D02*
X15329753Y-14666031D01*
X15329753Y-14666031D02*
X15339277Y-14685079D01*
X15339277Y-14685079D02*
X15348801Y-14723174D01*
X15348801Y-14723174D02*
X15348801Y-14770793D01*
X15348801Y-14770793D02*
X15339277Y-14808888D01*
X15339277Y-14808888D02*
X15329753Y-14827936D01*
X15329753Y-14827936D02*
X15320229Y-14837460D01*
X15320229Y-14837460D02*
X15301182Y-14846984D01*
X15301182Y-14846984D02*
X15282134Y-14846984D01*
X15282134Y-14846984D02*
X15263086Y-14837460D01*
X15263086Y-14837460D02*
X15253563Y-14827936D01*
X15253563Y-14827936D02*
X15244039Y-14808888D01*
X15244039Y-14808888D02*
X15234515Y-14770793D01*
X15234515Y-14770793D02*
X15234515Y-14723174D01*
X15234515Y-14723174D02*
X15244039Y-14685079D01*
X15244039Y-14685079D02*
X15253563Y-14666031D01*
X15253563Y-14666031D02*
X15263086Y-14656508D01*
X15263086Y-14656508D02*
X15282134Y-14646984D01*
X15434515Y-14827936D02*
X15444039Y-14837460D01*
X15444039Y-14837460D02*
X15434515Y-14846984D01*
X15434515Y-14846984D02*
X15424991Y-14837460D01*
X15424991Y-14837460D02*
X15434515Y-14827936D01*
X15434515Y-14827936D02*
X15434515Y-14846984D01*
X15567848Y-14646984D02*
X15586896Y-14646984D01*
X15586896Y-14646984D02*
X15605944Y-14656508D01*
X15605944Y-14656508D02*
X15615467Y-14666031D01*
X15615467Y-14666031D02*
X15624991Y-14685079D01*
X15624991Y-14685079D02*
X15634515Y-14723174D01*
X15634515Y-14723174D02*
X15634515Y-14770793D01*
X15634515Y-14770793D02*
X15624991Y-14808888D01*
X15624991Y-14808888D02*
X15615467Y-14827936D01*
X15615467Y-14827936D02*
X15605944Y-14837460D01*
X15605944Y-14837460D02*
X15586896Y-14846984D01*
X15586896Y-14846984D02*
X15567848Y-14846984D01*
X15567848Y-14846984D02*
X15548801Y-14837460D01*
X15548801Y-14837460D02*
X15539277Y-14827936D01*
X15539277Y-14827936D02*
X15529753Y-14808888D01*
X15529753Y-14808888D02*
X15520229Y-14770793D01*
X15520229Y-14770793D02*
X15520229Y-14723174D01*
X15520229Y-14723174D02*
X15529753Y-14685079D01*
X15529753Y-14685079D02*
X15539277Y-14666031D01*
X15539277Y-14666031D02*
X15548801Y-14656508D01*
X15548801Y-14656508D02*
X15567848Y-14646984D01*
X15701182Y-14646984D02*
X15834515Y-14646984D01*
X15834515Y-14646984D02*
X15748801Y-14846984D01*
X15948801Y-14646984D02*
X15967848Y-14646984D01*
X15967848Y-14646984D02*
X15986896Y-14656508D01*
X15986896Y-14656508D02*
X15996420Y-14666031D01*
X15996420Y-14666031D02*
X16005944Y-14685079D01*
X16005944Y-14685079D02*
X16015467Y-14723174D01*
X16015467Y-14723174D02*
X16015467Y-14770793D01*
X16015467Y-14770793D02*
X16005944Y-14808888D01*
X16005944Y-14808888D02*
X15996420Y-14827936D01*
X15996420Y-14827936D02*
X15986896Y-14837460D01*
X15986896Y-14837460D02*
X15967848Y-14846984D01*
X15967848Y-14846984D02*
X15948801Y-14846984D01*
X15948801Y-14846984D02*
X15929753Y-14837460D01*
X15929753Y-14837460D02*
X15920229Y-14827936D01*
X15920229Y-14827936D02*
X15910706Y-14808888D01*
X15910706Y-14808888D02*
X15901182Y-14770793D01*
X15901182Y-14770793D02*
X15901182Y-14723174D01*
X15901182Y-14723174D02*
X15910706Y-14685079D01*
X15910706Y-14685079D02*
X15920229Y-14666031D01*
X15920229Y-14666031D02*
X15929753Y-14656508D01*
X15929753Y-14656508D02*
X15948801Y-14646984D01*
X16110706Y-14846984D02*
X16148801Y-14846984D01*
X16148801Y-14846984D02*
X16167848Y-14837460D01*
X16167848Y-14837460D02*
X16177372Y-14827936D01*
X16177372Y-14827936D02*
X16196420Y-14799365D01*
X16196420Y-14799365D02*
X16205944Y-14761269D01*
X16205944Y-14761269D02*
X16205944Y-14685079D01*
X16205944Y-14685079D02*
X16196420Y-14666031D01*
X16196420Y-14666031D02*
X16186896Y-14656508D01*
X16186896Y-14656508D02*
X16167848Y-14646984D01*
X16167848Y-14646984D02*
X16129753Y-14646984D01*
X16129753Y-14646984D02*
X16110706Y-14656508D01*
X16110706Y-14656508D02*
X16101182Y-14666031D01*
X16101182Y-14666031D02*
X16091658Y-14685079D01*
X16091658Y-14685079D02*
X16091658Y-14732698D01*
X16091658Y-14732698D02*
X16101182Y-14751746D01*
X16101182Y-14751746D02*
X16110706Y-14761269D01*
X16110706Y-14761269D02*
X16129753Y-14770793D01*
X16129753Y-14770793D02*
X16167848Y-14770793D01*
X16167848Y-14770793D02*
X16186896Y-14761269D01*
X16186896Y-14761269D02*
X16196420Y-14751746D01*
X16196420Y-14751746D02*
X16205944Y-14732698D01*
X16282134Y-14646984D02*
X16282134Y-14685079D01*
X16358325Y-14646984D02*
X16358325Y-14685079D01*
X16653563Y-14923174D02*
X16644039Y-14913650D01*
X16644039Y-14913650D02*
X16624991Y-14885079D01*
X16624991Y-14885079D02*
X16615468Y-14866031D01*
X16615468Y-14866031D02*
X16605944Y-14837460D01*
X16605944Y-14837460D02*
X16596420Y-14789841D01*
X16596420Y-14789841D02*
X16596420Y-14751746D01*
X16596420Y-14751746D02*
X16605944Y-14704127D01*
X16605944Y-14704127D02*
X16615468Y-14675555D01*
X16615468Y-14675555D02*
X16624991Y-14656508D01*
X16624991Y-14656508D02*
X16644039Y-14627936D01*
X16644039Y-14627936D02*
X16653563Y-14618412D01*
X16720229Y-14666031D02*
X16729753Y-14656508D01*
X16729753Y-14656508D02*
X16748801Y-14646984D01*
X16748801Y-14646984D02*
X16796420Y-14646984D01*
X16796420Y-14646984D02*
X16815468Y-14656508D01*
X16815468Y-14656508D02*
X16824991Y-14666031D01*
X16824991Y-14666031D02*
X16834515Y-14685079D01*
X16834515Y-14685079D02*
X16834515Y-14704127D01*
X16834515Y-14704127D02*
X16824991Y-14732698D01*
X16824991Y-14732698D02*
X16710706Y-14846984D01*
X16710706Y-14846984D02*
X16834515Y-14846984D01*
X17072611Y-14846984D02*
X17072611Y-14646984D01*
X17158325Y-14846984D02*
X17158325Y-14742222D01*
X17158325Y-14742222D02*
X17148801Y-14723174D01*
X17148801Y-14723174D02*
X17129753Y-14713650D01*
X17129753Y-14713650D02*
X17101182Y-14713650D01*
X17101182Y-14713650D02*
X17082134Y-14723174D01*
X17082134Y-14723174D02*
X17072611Y-14732698D01*
X17282134Y-14846984D02*
X17263087Y-14837460D01*
X17263087Y-14837460D02*
X17253563Y-14827936D01*
X17253563Y-14827936D02*
X17244039Y-14808888D01*
X17244039Y-14808888D02*
X17244039Y-14751746D01*
X17244039Y-14751746D02*
X17253563Y-14732698D01*
X17253563Y-14732698D02*
X17263087Y-14723174D01*
X17263087Y-14723174D02*
X17282134Y-14713650D01*
X17282134Y-14713650D02*
X17310706Y-14713650D01*
X17310706Y-14713650D02*
X17329753Y-14723174D01*
X17329753Y-14723174D02*
X17339277Y-14732698D01*
X17339277Y-14732698D02*
X17348801Y-14751746D01*
X17348801Y-14751746D02*
X17348801Y-14808888D01*
X17348801Y-14808888D02*
X17339277Y-14827936D01*
X17339277Y-14827936D02*
X17329753Y-14837460D01*
X17329753Y-14837460D02*
X17310706Y-14846984D01*
X17310706Y-14846984D02*
X17282134Y-14846984D01*
X17463087Y-14846984D02*
X17444039Y-14837460D01*
X17444039Y-14837460D02*
X17434515Y-14818412D01*
X17434515Y-14818412D02*
X17434515Y-14646984D01*
X17615468Y-14837460D02*
X17596420Y-14846984D01*
X17596420Y-14846984D02*
X17558325Y-14846984D01*
X17558325Y-14846984D02*
X17539277Y-14837460D01*
X17539277Y-14837460D02*
X17529753Y-14818412D01*
X17529753Y-14818412D02*
X17529753Y-14742222D01*
X17529753Y-14742222D02*
X17539277Y-14723174D01*
X17539277Y-14723174D02*
X17558325Y-14713650D01*
X17558325Y-14713650D02*
X17596420Y-14713650D01*
X17596420Y-14713650D02*
X17615468Y-14723174D01*
X17615468Y-14723174D02*
X17624992Y-14742222D01*
X17624992Y-14742222D02*
X17624992Y-14761269D01*
X17624992Y-14761269D02*
X17529753Y-14780317D01*
X17701182Y-14837460D02*
X17720230Y-14846984D01*
X17720230Y-14846984D02*
X17758325Y-14846984D01*
X17758325Y-14846984D02*
X17777373Y-14837460D01*
X17777373Y-14837460D02*
X17786896Y-14818412D01*
X17786896Y-14818412D02*
X17786896Y-14808888D01*
X17786896Y-14808888D02*
X17777373Y-14789841D01*
X17777373Y-14789841D02*
X17758325Y-14780317D01*
X17758325Y-14780317D02*
X17729753Y-14780317D01*
X17729753Y-14780317D02*
X17710706Y-14770793D01*
X17710706Y-14770793D02*
X17701182Y-14751746D01*
X17701182Y-14751746D02*
X17701182Y-14742222D01*
X17701182Y-14742222D02*
X17710706Y-14723174D01*
X17710706Y-14723174D02*
X17729753Y-14713650D01*
X17729753Y-14713650D02*
X17758325Y-14713650D01*
X17758325Y-14713650D02*
X17777373Y-14723174D01*
X17853563Y-14923174D02*
X17863087Y-14913650D01*
X17863087Y-14913650D02*
X17882134Y-14885079D01*
X17882134Y-14885079D02*
X17891658Y-14866031D01*
X17891658Y-14866031D02*
X17901182Y-14837460D01*
X17901182Y-14837460D02*
X17910706Y-14789841D01*
X17910706Y-14789841D02*
X17910706Y-14751746D01*
X17910706Y-14751746D02*
X17901182Y-14704127D01*
X17901182Y-14704127D02*
X17891658Y-14675555D01*
X17891658Y-14675555D02*
X17882134Y-14656508D01*
X17882134Y-14656508D02*
X17863087Y-14627936D01*
X17863087Y-14627936D02*
X17853563Y-14618412D01*
X18215468Y-14923174D02*
X18205944Y-14913650D01*
X18205944Y-14913650D02*
X18186896Y-14885079D01*
X18186896Y-14885079D02*
X18177373Y-14866031D01*
X18177373Y-14866031D02*
X18167849Y-14837460D01*
X18167849Y-14837460D02*
X18158325Y-14789841D01*
X18158325Y-14789841D02*
X18158325Y-14751746D01*
X18158325Y-14751746D02*
X18167849Y-14704127D01*
X18167849Y-14704127D02*
X18177373Y-14675555D01*
X18177373Y-14675555D02*
X18186896Y-14656508D01*
X18186896Y-14656508D02*
X18205944Y-14627936D01*
X18205944Y-14627936D02*
X18215468Y-14618412D01*
X18291658Y-14713650D02*
X18291658Y-14846984D01*
X18291658Y-14732698D02*
X18301182Y-14723174D01*
X18301182Y-14723174D02*
X18320230Y-14713650D01*
X18320230Y-14713650D02*
X18348801Y-14713650D01*
X18348801Y-14713650D02*
X18367849Y-14723174D01*
X18367849Y-14723174D02*
X18377373Y-14742222D01*
X18377373Y-14742222D02*
X18377373Y-14846984D01*
X18501182Y-14846984D02*
X18482134Y-14837460D01*
X18482134Y-14837460D02*
X18472611Y-14827936D01*
X18472611Y-14827936D02*
X18463087Y-14808888D01*
X18463087Y-14808888D02*
X18463087Y-14751746D01*
X18463087Y-14751746D02*
X18472611Y-14732698D01*
X18472611Y-14732698D02*
X18482134Y-14723174D01*
X18482134Y-14723174D02*
X18501182Y-14713650D01*
X18501182Y-14713650D02*
X18529754Y-14713650D01*
X18529754Y-14713650D02*
X18548801Y-14723174D01*
X18548801Y-14723174D02*
X18558325Y-14732698D01*
X18558325Y-14732698D02*
X18567849Y-14751746D01*
X18567849Y-14751746D02*
X18567849Y-14808888D01*
X18567849Y-14808888D02*
X18558325Y-14827936D01*
X18558325Y-14827936D02*
X18548801Y-14837460D01*
X18548801Y-14837460D02*
X18529754Y-14846984D01*
X18529754Y-14846984D02*
X18501182Y-14846984D01*
X18624992Y-14713650D02*
X18701182Y-14713650D01*
X18653563Y-14646984D02*
X18653563Y-14818412D01*
X18653563Y-14818412D02*
X18663087Y-14837460D01*
X18663087Y-14837460D02*
X18682134Y-14846984D01*
X18682134Y-14846984D02*
X18701182Y-14846984D01*
X18920230Y-14713650D02*
X18920230Y-14913650D01*
X18920230Y-14723174D02*
X18939277Y-14713650D01*
X18939277Y-14713650D02*
X18977373Y-14713650D01*
X18977373Y-14713650D02*
X18996420Y-14723174D01*
X18996420Y-14723174D02*
X19005944Y-14732698D01*
X19005944Y-14732698D02*
X19015468Y-14751746D01*
X19015468Y-14751746D02*
X19015468Y-14808888D01*
X19015468Y-14808888D02*
X19005944Y-14827936D01*
X19005944Y-14827936D02*
X18996420Y-14837460D01*
X18996420Y-14837460D02*
X18977373Y-14846984D01*
X18977373Y-14846984D02*
X18939277Y-14846984D01*
X18939277Y-14846984D02*
X18920230Y-14837460D01*
X19129754Y-14846984D02*
X19110706Y-14837460D01*
X19110706Y-14837460D02*
X19101182Y-14818412D01*
X19101182Y-14818412D02*
X19101182Y-14646984D01*
X19291658Y-14846984D02*
X19291658Y-14742222D01*
X19291658Y-14742222D02*
X19282135Y-14723174D01*
X19282135Y-14723174D02*
X19263087Y-14713650D01*
X19263087Y-14713650D02*
X19224992Y-14713650D01*
X19224992Y-14713650D02*
X19205944Y-14723174D01*
X19291658Y-14837460D02*
X19272611Y-14846984D01*
X19272611Y-14846984D02*
X19224992Y-14846984D01*
X19224992Y-14846984D02*
X19205944Y-14837460D01*
X19205944Y-14837460D02*
X19196420Y-14818412D01*
X19196420Y-14818412D02*
X19196420Y-14799365D01*
X19196420Y-14799365D02*
X19205944Y-14780317D01*
X19205944Y-14780317D02*
X19224992Y-14770793D01*
X19224992Y-14770793D02*
X19272611Y-14770793D01*
X19272611Y-14770793D02*
X19291658Y-14761269D01*
X19358325Y-14713650D02*
X19434515Y-14713650D01*
X19386896Y-14646984D02*
X19386896Y-14818412D01*
X19386896Y-14818412D02*
X19396420Y-14837460D01*
X19396420Y-14837460D02*
X19415468Y-14846984D01*
X19415468Y-14846984D02*
X19434515Y-14846984D01*
X19577373Y-14837460D02*
X19558325Y-14846984D01*
X19558325Y-14846984D02*
X19520230Y-14846984D01*
X19520230Y-14846984D02*
X19501182Y-14837460D01*
X19501182Y-14837460D02*
X19491658Y-14818412D01*
X19491658Y-14818412D02*
X19491658Y-14742222D01*
X19491658Y-14742222D02*
X19501182Y-14723174D01*
X19501182Y-14723174D02*
X19520230Y-14713650D01*
X19520230Y-14713650D02*
X19558325Y-14713650D01*
X19558325Y-14713650D02*
X19577373Y-14723174D01*
X19577373Y-14723174D02*
X19586896Y-14742222D01*
X19586896Y-14742222D02*
X19586896Y-14761269D01*
X19586896Y-14761269D02*
X19491658Y-14780317D01*
X19758325Y-14846984D02*
X19758325Y-14646984D01*
X19758325Y-14837460D02*
X19739277Y-14846984D01*
X19739277Y-14846984D02*
X19701182Y-14846984D01*
X19701182Y-14846984D02*
X19682135Y-14837460D01*
X19682135Y-14837460D02*
X19672611Y-14827936D01*
X19672611Y-14827936D02*
X19663087Y-14808888D01*
X19663087Y-14808888D02*
X19663087Y-14751746D01*
X19663087Y-14751746D02*
X19672611Y-14732698D01*
X19672611Y-14732698D02*
X19682135Y-14723174D01*
X19682135Y-14723174D02*
X19701182Y-14713650D01*
X19701182Y-14713650D02*
X19739277Y-14713650D01*
X19739277Y-14713650D02*
X19758325Y-14723174D01*
X19834516Y-14923174D02*
X19844039Y-14913650D01*
X19844039Y-14913650D02*
X19863087Y-14885079D01*
X19863087Y-14885079D02*
X19872611Y-14866031D01*
X19872611Y-14866031D02*
X19882135Y-14837460D01*
X19882135Y-14837460D02*
X19891658Y-14789841D01*
X19891658Y-14789841D02*
X19891658Y-14751746D01*
X19891658Y-14751746D02*
X19882135Y-14704127D01*
X19882135Y-14704127D02*
X19872611Y-14675555D01*
X19872611Y-14675555D02*
X19863087Y-14656508D01*
X19863087Y-14656508D02*
X19844039Y-14627936D01*
X19844039Y-14627936D02*
X19834516Y-14618412D01*
X12978500Y-14955500D02*
X12978500Y-15155500D01*
X12878500Y-15055500D02*
X13078500Y-15055500D01*
X13320229Y-14946984D02*
X13444039Y-14946984D01*
X13444039Y-14946984D02*
X13377372Y-15023174D01*
X13377372Y-15023174D02*
X13405943Y-15023174D01*
X13405943Y-15023174D02*
X13424991Y-15032698D01*
X13424991Y-15032698D02*
X13434515Y-15042222D01*
X13434515Y-15042222D02*
X13444039Y-15061269D01*
X13444039Y-15061269D02*
X13444039Y-15108888D01*
X13444039Y-15108888D02*
X13434515Y-15127936D01*
X13434515Y-15127936D02*
X13424991Y-15137460D01*
X13424991Y-15137460D02*
X13405943Y-15146984D01*
X13405943Y-15146984D02*
X13348801Y-15146984D01*
X13348801Y-15146984D02*
X13329753Y-15137460D01*
X13329753Y-15137460D02*
X13320229Y-15127936D01*
X13529753Y-15127936D02*
X13539277Y-15137460D01*
X13539277Y-15137460D02*
X13529753Y-15146984D01*
X13529753Y-15146984D02*
X13520229Y-15137460D01*
X13520229Y-15137460D02*
X13529753Y-15127936D01*
X13529753Y-15127936D02*
X13529753Y-15146984D01*
X13615467Y-14966031D02*
X13624991Y-14956508D01*
X13624991Y-14956508D02*
X13644039Y-14946984D01*
X13644039Y-14946984D02*
X13691658Y-14946984D01*
X13691658Y-14946984D02*
X13710705Y-14956508D01*
X13710705Y-14956508D02*
X13720229Y-14966031D01*
X13720229Y-14966031D02*
X13729753Y-14985079D01*
X13729753Y-14985079D02*
X13729753Y-15004127D01*
X13729753Y-15004127D02*
X13720229Y-15032698D01*
X13720229Y-15032698D02*
X13605943Y-15146984D01*
X13605943Y-15146984D02*
X13729753Y-15146984D01*
X13853562Y-14946984D02*
X13872610Y-14946984D01*
X13872610Y-14946984D02*
X13891658Y-14956508D01*
X13891658Y-14956508D02*
X13901182Y-14966031D01*
X13901182Y-14966031D02*
X13910705Y-14985079D01*
X13910705Y-14985079D02*
X13920229Y-15023174D01*
X13920229Y-15023174D02*
X13920229Y-15070793D01*
X13920229Y-15070793D02*
X13910705Y-15108888D01*
X13910705Y-15108888D02*
X13901182Y-15127936D01*
X13901182Y-15127936D02*
X13891658Y-15137460D01*
X13891658Y-15137460D02*
X13872610Y-15146984D01*
X13872610Y-15146984D02*
X13853562Y-15146984D01*
X13853562Y-15146984D02*
X13834515Y-15137460D01*
X13834515Y-15137460D02*
X13824991Y-15127936D01*
X13824991Y-15127936D02*
X13815467Y-15108888D01*
X13815467Y-15108888D02*
X13805943Y-15070793D01*
X13805943Y-15070793D02*
X13805943Y-15023174D01*
X13805943Y-15023174D02*
X13815467Y-14985079D01*
X13815467Y-14985079D02*
X13824991Y-14966031D01*
X13824991Y-14966031D02*
X13834515Y-14956508D01*
X13834515Y-14956508D02*
X13853562Y-14946984D01*
X14044039Y-14946984D02*
X14063086Y-14946984D01*
X14063086Y-14946984D02*
X14082134Y-14956508D01*
X14082134Y-14956508D02*
X14091658Y-14966031D01*
X14091658Y-14966031D02*
X14101182Y-14985079D01*
X14101182Y-14985079D02*
X14110705Y-15023174D01*
X14110705Y-15023174D02*
X14110705Y-15070793D01*
X14110705Y-15070793D02*
X14101182Y-15108888D01*
X14101182Y-15108888D02*
X14091658Y-15127936D01*
X14091658Y-15127936D02*
X14082134Y-15137460D01*
X14082134Y-15137460D02*
X14063086Y-15146984D01*
X14063086Y-15146984D02*
X14044039Y-15146984D01*
X14044039Y-15146984D02*
X14024991Y-15137460D01*
X14024991Y-15137460D02*
X14015467Y-15127936D01*
X14015467Y-15127936D02*
X14005943Y-15108888D01*
X14005943Y-15108888D02*
X13996420Y-15070793D01*
X13996420Y-15070793D02*
X13996420Y-15023174D01*
X13996420Y-15023174D02*
X14005943Y-14985079D01*
X14005943Y-14985079D02*
X14015467Y-14966031D01*
X14015467Y-14966031D02*
X14024991Y-14956508D01*
X14024991Y-14956508D02*
X14044039Y-14946984D01*
X14196420Y-15146984D02*
X14196420Y-15013650D01*
X14196420Y-15032698D02*
X14205943Y-15023174D01*
X14205943Y-15023174D02*
X14224991Y-15013650D01*
X14224991Y-15013650D02*
X14253563Y-15013650D01*
X14253563Y-15013650D02*
X14272610Y-15023174D01*
X14272610Y-15023174D02*
X14282134Y-15042222D01*
X14282134Y-15042222D02*
X14282134Y-15146984D01*
X14282134Y-15042222D02*
X14291658Y-15023174D01*
X14291658Y-15023174D02*
X14310705Y-15013650D01*
X14310705Y-15013650D02*
X14339277Y-15013650D01*
X14339277Y-15013650D02*
X14358324Y-15023174D01*
X14358324Y-15023174D02*
X14367848Y-15042222D01*
X14367848Y-15042222D02*
X14367848Y-15146984D01*
X14463086Y-15146984D02*
X14463086Y-15013650D01*
X14463086Y-15032698D02*
X14472610Y-15023174D01*
X14472610Y-15023174D02*
X14491658Y-15013650D01*
X14491658Y-15013650D02*
X14520229Y-15013650D01*
X14520229Y-15013650D02*
X14539277Y-15023174D01*
X14539277Y-15023174D02*
X14548801Y-15042222D01*
X14548801Y-15042222D02*
X14548801Y-15146984D01*
X14548801Y-15042222D02*
X14558324Y-15023174D01*
X14558324Y-15023174D02*
X14577372Y-15013650D01*
X14577372Y-15013650D02*
X14605943Y-15013650D01*
X14605943Y-15013650D02*
X14624991Y-15023174D01*
X14624991Y-15023174D02*
X14634515Y-15042222D01*
X14634515Y-15042222D02*
X14634515Y-15146984D01*
X15024991Y-14937460D02*
X14853563Y-15194603D01*
X15282134Y-14946984D02*
X15301182Y-14946984D01*
X15301182Y-14946984D02*
X15320229Y-14956508D01*
X15320229Y-14956508D02*
X15329753Y-14966031D01*
X15329753Y-14966031D02*
X15339277Y-14985079D01*
X15339277Y-14985079D02*
X15348801Y-15023174D01*
X15348801Y-15023174D02*
X15348801Y-15070793D01*
X15348801Y-15070793D02*
X15339277Y-15108888D01*
X15339277Y-15108888D02*
X15329753Y-15127936D01*
X15329753Y-15127936D02*
X15320229Y-15137460D01*
X15320229Y-15137460D02*
X15301182Y-15146984D01*
X15301182Y-15146984D02*
X15282134Y-15146984D01*
X15282134Y-15146984D02*
X15263086Y-15137460D01*
X15263086Y-15137460D02*
X15253563Y-15127936D01*
X15253563Y-15127936D02*
X15244039Y-15108888D01*
X15244039Y-15108888D02*
X15234515Y-15070793D01*
X15234515Y-15070793D02*
X15234515Y-15023174D01*
X15234515Y-15023174D02*
X15244039Y-14985079D01*
X15244039Y-14985079D02*
X15253563Y-14966031D01*
X15253563Y-14966031D02*
X15263086Y-14956508D01*
X15263086Y-14956508D02*
X15282134Y-14946984D01*
X15434515Y-15127936D02*
X15444039Y-15137460D01*
X15444039Y-15137460D02*
X15434515Y-15146984D01*
X15434515Y-15146984D02*
X15424991Y-15137460D01*
X15424991Y-15137460D02*
X15434515Y-15127936D01*
X15434515Y-15127936D02*
X15434515Y-15146984D01*
X15634515Y-15146984D02*
X15520229Y-15146984D01*
X15577372Y-15146984D02*
X15577372Y-14946984D01*
X15577372Y-14946984D02*
X15558325Y-14975555D01*
X15558325Y-14975555D02*
X15539277Y-14994603D01*
X15539277Y-14994603D02*
X15520229Y-15004127D01*
X15710706Y-14966031D02*
X15720229Y-14956508D01*
X15720229Y-14956508D02*
X15739277Y-14946984D01*
X15739277Y-14946984D02*
X15786896Y-14946984D01*
X15786896Y-14946984D02*
X15805944Y-14956508D01*
X15805944Y-14956508D02*
X15815467Y-14966031D01*
X15815467Y-14966031D02*
X15824991Y-14985079D01*
X15824991Y-14985079D02*
X15824991Y-15004127D01*
X15824991Y-15004127D02*
X15815467Y-15032698D01*
X15815467Y-15032698D02*
X15701182Y-15146984D01*
X15701182Y-15146984D02*
X15824991Y-15146984D01*
X15996420Y-14946984D02*
X15958325Y-14946984D01*
X15958325Y-14946984D02*
X15939277Y-14956508D01*
X15939277Y-14956508D02*
X15929753Y-14966031D01*
X15929753Y-14966031D02*
X15910706Y-14994603D01*
X15910706Y-14994603D02*
X15901182Y-15032698D01*
X15901182Y-15032698D02*
X15901182Y-15108888D01*
X15901182Y-15108888D02*
X15910706Y-15127936D01*
X15910706Y-15127936D02*
X15920229Y-15137460D01*
X15920229Y-15137460D02*
X15939277Y-15146984D01*
X15939277Y-15146984D02*
X15977372Y-15146984D01*
X15977372Y-15146984D02*
X15996420Y-15137460D01*
X15996420Y-15137460D02*
X16005944Y-15127936D01*
X16005944Y-15127936D02*
X16015467Y-15108888D01*
X16015467Y-15108888D02*
X16015467Y-15061269D01*
X16015467Y-15061269D02*
X16005944Y-15042222D01*
X16005944Y-15042222D02*
X15996420Y-15032698D01*
X15996420Y-15032698D02*
X15977372Y-15023174D01*
X15977372Y-15023174D02*
X15939277Y-15023174D01*
X15939277Y-15023174D02*
X15920229Y-15032698D01*
X15920229Y-15032698D02*
X15910706Y-15042222D01*
X15910706Y-15042222D02*
X15901182Y-15061269D01*
X16139277Y-14946984D02*
X16158325Y-14946984D01*
X16158325Y-14946984D02*
X16177372Y-14956508D01*
X16177372Y-14956508D02*
X16186896Y-14966031D01*
X16186896Y-14966031D02*
X16196420Y-14985079D01*
X16196420Y-14985079D02*
X16205944Y-15023174D01*
X16205944Y-15023174D02*
X16205944Y-15070793D01*
X16205944Y-15070793D02*
X16196420Y-15108888D01*
X16196420Y-15108888D02*
X16186896Y-15127936D01*
X16186896Y-15127936D02*
X16177372Y-15137460D01*
X16177372Y-15137460D02*
X16158325Y-15146984D01*
X16158325Y-15146984D02*
X16139277Y-15146984D01*
X16139277Y-15146984D02*
X16120229Y-15137460D01*
X16120229Y-15137460D02*
X16110706Y-15127936D01*
X16110706Y-15127936D02*
X16101182Y-15108888D01*
X16101182Y-15108888D02*
X16091658Y-15070793D01*
X16091658Y-15070793D02*
X16091658Y-15023174D01*
X16091658Y-15023174D02*
X16101182Y-14985079D01*
X16101182Y-14985079D02*
X16110706Y-14966031D01*
X16110706Y-14966031D02*
X16120229Y-14956508D01*
X16120229Y-14956508D02*
X16139277Y-14946984D01*
X16282134Y-14946984D02*
X16282134Y-14985079D01*
X16358325Y-14946984D02*
X16358325Y-14985079D01*
X16653563Y-15223174D02*
X16644039Y-15213650D01*
X16644039Y-15213650D02*
X16624991Y-15185079D01*
X16624991Y-15185079D02*
X16615468Y-15166031D01*
X16615468Y-15166031D02*
X16605944Y-15137460D01*
X16605944Y-15137460D02*
X16596420Y-15089841D01*
X16596420Y-15089841D02*
X16596420Y-15051746D01*
X16596420Y-15051746D02*
X16605944Y-15004127D01*
X16605944Y-15004127D02*
X16615468Y-14975555D01*
X16615468Y-14975555D02*
X16624991Y-14956508D01*
X16624991Y-14956508D02*
X16644039Y-14927936D01*
X16644039Y-14927936D02*
X16653563Y-14918412D01*
X16815468Y-15013650D02*
X16815468Y-15146984D01*
X16767848Y-14937460D02*
X16720229Y-15080317D01*
X16720229Y-15080317D02*
X16844039Y-15080317D01*
X17072611Y-15146984D02*
X17072611Y-14946984D01*
X17158325Y-15146984D02*
X17158325Y-15042222D01*
X17158325Y-15042222D02*
X17148801Y-15023174D01*
X17148801Y-15023174D02*
X17129753Y-15013650D01*
X17129753Y-15013650D02*
X17101182Y-15013650D01*
X17101182Y-15013650D02*
X17082134Y-15023174D01*
X17082134Y-15023174D02*
X17072611Y-15032698D01*
X17282134Y-15146984D02*
X17263087Y-15137460D01*
X17263087Y-15137460D02*
X17253563Y-15127936D01*
X17253563Y-15127936D02*
X17244039Y-15108888D01*
X17244039Y-15108888D02*
X17244039Y-15051746D01*
X17244039Y-15051746D02*
X17253563Y-15032698D01*
X17253563Y-15032698D02*
X17263087Y-15023174D01*
X17263087Y-15023174D02*
X17282134Y-15013650D01*
X17282134Y-15013650D02*
X17310706Y-15013650D01*
X17310706Y-15013650D02*
X17329753Y-15023174D01*
X17329753Y-15023174D02*
X17339277Y-15032698D01*
X17339277Y-15032698D02*
X17348801Y-15051746D01*
X17348801Y-15051746D02*
X17348801Y-15108888D01*
X17348801Y-15108888D02*
X17339277Y-15127936D01*
X17339277Y-15127936D02*
X17329753Y-15137460D01*
X17329753Y-15137460D02*
X17310706Y-15146984D01*
X17310706Y-15146984D02*
X17282134Y-15146984D01*
X17463087Y-15146984D02*
X17444039Y-15137460D01*
X17444039Y-15137460D02*
X17434515Y-15118412D01*
X17434515Y-15118412D02*
X17434515Y-14946984D01*
X17615468Y-15137460D02*
X17596420Y-15146984D01*
X17596420Y-15146984D02*
X17558325Y-15146984D01*
X17558325Y-15146984D02*
X17539277Y-15137460D01*
X17539277Y-15137460D02*
X17529753Y-15118412D01*
X17529753Y-15118412D02*
X17529753Y-15042222D01*
X17529753Y-15042222D02*
X17539277Y-15023174D01*
X17539277Y-15023174D02*
X17558325Y-15013650D01*
X17558325Y-15013650D02*
X17596420Y-15013650D01*
X17596420Y-15013650D02*
X17615468Y-15023174D01*
X17615468Y-15023174D02*
X17624992Y-15042222D01*
X17624992Y-15042222D02*
X17624992Y-15061269D01*
X17624992Y-15061269D02*
X17529753Y-15080317D01*
X17701182Y-15137460D02*
X17720230Y-15146984D01*
X17720230Y-15146984D02*
X17758325Y-15146984D01*
X17758325Y-15146984D02*
X17777373Y-15137460D01*
X17777373Y-15137460D02*
X17786896Y-15118412D01*
X17786896Y-15118412D02*
X17786896Y-15108888D01*
X17786896Y-15108888D02*
X17777373Y-15089841D01*
X17777373Y-15089841D02*
X17758325Y-15080317D01*
X17758325Y-15080317D02*
X17729753Y-15080317D01*
X17729753Y-15080317D02*
X17710706Y-15070793D01*
X17710706Y-15070793D02*
X17701182Y-15051746D01*
X17701182Y-15051746D02*
X17701182Y-15042222D01*
X17701182Y-15042222D02*
X17710706Y-15023174D01*
X17710706Y-15023174D02*
X17729753Y-15013650D01*
X17729753Y-15013650D02*
X17758325Y-15013650D01*
X17758325Y-15013650D02*
X17777373Y-15023174D01*
X17853563Y-15223174D02*
X17863087Y-15213650D01*
X17863087Y-15213650D02*
X17882134Y-15185079D01*
X17882134Y-15185079D02*
X17891658Y-15166031D01*
X17891658Y-15166031D02*
X17901182Y-15137460D01*
X17901182Y-15137460D02*
X17910706Y-15089841D01*
X17910706Y-15089841D02*
X17910706Y-15051746D01*
X17910706Y-15051746D02*
X17901182Y-15004127D01*
X17901182Y-15004127D02*
X17891658Y-14975555D01*
X17891658Y-14975555D02*
X17882134Y-14956508D01*
X17882134Y-14956508D02*
X17863087Y-14927936D01*
X17863087Y-14927936D02*
X17853563Y-14918412D01*
X18215468Y-15223174D02*
X18205944Y-15213650D01*
X18205944Y-15213650D02*
X18186896Y-15185079D01*
X18186896Y-15185079D02*
X18177373Y-15166031D01*
X18177373Y-15166031D02*
X18167849Y-15137460D01*
X18167849Y-15137460D02*
X18158325Y-15089841D01*
X18158325Y-15089841D02*
X18158325Y-15051746D01*
X18158325Y-15051746D02*
X18167849Y-15004127D01*
X18167849Y-15004127D02*
X18177373Y-14975555D01*
X18177373Y-14975555D02*
X18186896Y-14956508D01*
X18186896Y-14956508D02*
X18205944Y-14927936D01*
X18205944Y-14927936D02*
X18215468Y-14918412D01*
X18291658Y-15013650D02*
X18291658Y-15146984D01*
X18291658Y-15032698D02*
X18301182Y-15023174D01*
X18301182Y-15023174D02*
X18320230Y-15013650D01*
X18320230Y-15013650D02*
X18348801Y-15013650D01*
X18348801Y-15013650D02*
X18367849Y-15023174D01*
X18367849Y-15023174D02*
X18377373Y-15042222D01*
X18377373Y-15042222D02*
X18377373Y-15146984D01*
X18501182Y-15146984D02*
X18482134Y-15137460D01*
X18482134Y-15137460D02*
X18472611Y-15127936D01*
X18472611Y-15127936D02*
X18463087Y-15108888D01*
X18463087Y-15108888D02*
X18463087Y-15051746D01*
X18463087Y-15051746D02*
X18472611Y-15032698D01*
X18472611Y-15032698D02*
X18482134Y-15023174D01*
X18482134Y-15023174D02*
X18501182Y-15013650D01*
X18501182Y-15013650D02*
X18529754Y-15013650D01*
X18529754Y-15013650D02*
X18548801Y-15023174D01*
X18548801Y-15023174D02*
X18558325Y-15032698D01*
X18558325Y-15032698D02*
X18567849Y-15051746D01*
X18567849Y-15051746D02*
X18567849Y-15108888D01*
X18567849Y-15108888D02*
X18558325Y-15127936D01*
X18558325Y-15127936D02*
X18548801Y-15137460D01*
X18548801Y-15137460D02*
X18529754Y-15146984D01*
X18529754Y-15146984D02*
X18501182Y-15146984D01*
X18624992Y-15013650D02*
X18701182Y-15013650D01*
X18653563Y-14946984D02*
X18653563Y-15118412D01*
X18653563Y-15118412D02*
X18663087Y-15137460D01*
X18663087Y-15137460D02*
X18682134Y-15146984D01*
X18682134Y-15146984D02*
X18701182Y-15146984D01*
X18920230Y-15013650D02*
X18920230Y-15213650D01*
X18920230Y-15023174D02*
X18939277Y-15013650D01*
X18939277Y-15013650D02*
X18977373Y-15013650D01*
X18977373Y-15013650D02*
X18996420Y-15023174D01*
X18996420Y-15023174D02*
X19005944Y-15032698D01*
X19005944Y-15032698D02*
X19015468Y-15051746D01*
X19015468Y-15051746D02*
X19015468Y-15108888D01*
X19015468Y-15108888D02*
X19005944Y-15127936D01*
X19005944Y-15127936D02*
X18996420Y-15137460D01*
X18996420Y-15137460D02*
X18977373Y-15146984D01*
X18977373Y-15146984D02*
X18939277Y-15146984D01*
X18939277Y-15146984D02*
X18920230Y-15137460D01*
X19129754Y-15146984D02*
X19110706Y-15137460D01*
X19110706Y-15137460D02*
X19101182Y-15118412D01*
X19101182Y-15118412D02*
X19101182Y-14946984D01*
X19291658Y-15146984D02*
X19291658Y-15042222D01*
X19291658Y-15042222D02*
X19282135Y-15023174D01*
X19282135Y-15023174D02*
X19263087Y-15013650D01*
X19263087Y-15013650D02*
X19224992Y-15013650D01*
X19224992Y-15013650D02*
X19205944Y-15023174D01*
X19291658Y-15137460D02*
X19272611Y-15146984D01*
X19272611Y-15146984D02*
X19224992Y-15146984D01*
X19224992Y-15146984D02*
X19205944Y-15137460D01*
X19205944Y-15137460D02*
X19196420Y-15118412D01*
X19196420Y-15118412D02*
X19196420Y-15099365D01*
X19196420Y-15099365D02*
X19205944Y-15080317D01*
X19205944Y-15080317D02*
X19224992Y-15070793D01*
X19224992Y-15070793D02*
X19272611Y-15070793D01*
X19272611Y-15070793D02*
X19291658Y-15061269D01*
X19358325Y-15013650D02*
X19434515Y-15013650D01*
X19386896Y-14946984D02*
X19386896Y-15118412D01*
X19386896Y-15118412D02*
X19396420Y-15137460D01*
X19396420Y-15137460D02*
X19415468Y-15146984D01*
X19415468Y-15146984D02*
X19434515Y-15146984D01*
X19577373Y-15137460D02*
X19558325Y-15146984D01*
X19558325Y-15146984D02*
X19520230Y-15146984D01*
X19520230Y-15146984D02*
X19501182Y-15137460D01*
X19501182Y-15137460D02*
X19491658Y-15118412D01*
X19491658Y-15118412D02*
X19491658Y-15042222D01*
X19491658Y-15042222D02*
X19501182Y-15023174D01*
X19501182Y-15023174D02*
X19520230Y-15013650D01*
X19520230Y-15013650D02*
X19558325Y-15013650D01*
X19558325Y-15013650D02*
X19577373Y-15023174D01*
X19577373Y-15023174D02*
X19586896Y-15042222D01*
X19586896Y-15042222D02*
X19586896Y-15061269D01*
X19586896Y-15061269D02*
X19491658Y-15080317D01*
X19758325Y-15146984D02*
X19758325Y-14946984D01*
X19758325Y-15137460D02*
X19739277Y-15146984D01*
X19739277Y-15146984D02*
X19701182Y-15146984D01*
X19701182Y-15146984D02*
X19682135Y-15137460D01*
X19682135Y-15137460D02*
X19672611Y-15127936D01*
X19672611Y-15127936D02*
X19663087Y-15108888D01*
X19663087Y-15108888D02*
X19663087Y-15051746D01*
X19663087Y-15051746D02*
X19672611Y-15032698D01*
X19672611Y-15032698D02*
X19682135Y-15023174D01*
X19682135Y-15023174D02*
X19701182Y-15013650D01*
X19701182Y-15013650D02*
X19739277Y-15013650D01*
X19739277Y-15013650D02*
X19758325Y-15023174D01*
X19834516Y-15223174D02*
X19844039Y-15213650D01*
X19844039Y-15213650D02*
X19863087Y-15185079D01*
X19863087Y-15185079D02*
X19872611Y-15166031D01*
X19872611Y-15166031D02*
X19882135Y-15137460D01*
X19882135Y-15137460D02*
X19891658Y-15089841D01*
X19891658Y-15089841D02*
X19891658Y-15051746D01*
X19891658Y-15051746D02*
X19882135Y-15004127D01*
X19882135Y-15004127D02*
X19872611Y-14975555D01*
X19872611Y-14975555D02*
X19863087Y-14956508D01*
X19863087Y-14956508D02*
X19844039Y-14927936D01*
X19844039Y-14927936D02*
X19834516Y-14918412D01*
M02*
