%TF.GenerationSoftware,KiCad,Pcbnew,8.0.3-8.0.3-0~ubuntu22.04.1*%
%TF.CreationDate,2025-12-31T16:49:29+00:00*%
%TF.ProjectId,pixelpusher,70697865-6c70-4757-9368-65722e6b6963,rev?*%
%TF.SameCoordinates,Original*%
%TF.FileFunction,Copper,L1,Top*%
%TF.FilePolarity,Positive*%
%FSLAX46Y46*%
G04 Gerber Fmt 4.6, Leading zero omitted, Abs format (unit mm)*
G04 Created by KiCad (PCBNEW 8.0.3-8.0.3-0~ubuntu22.04.1) date 2025-12-31 16:49:29*
%MOMM*%
%LPD*%
G01*
G04 APERTURE LIST*
G04 Aperture macros list*
%AMRoundRect*
0 Rectangle with rounded corners*
0 $1 Rounding radius*
0 $2 $3 $4 $5 $6 $7 $8 $9 X,Y pos of 4 corners*
0 Add a 4 corners polygon primitive as box body*
4,1,4,$2,$3,$4,$5,$6,$7,$8,$9,$2,$3,0*
0 Add four circle primitives for the rounded corners*
1,1,$1+$1,$2,$3*
1,1,$1+$1,$4,$5*
1,1,$1+$1,$6,$7*
1,1,$1+$1,$8,$9*
0 Add four rect primitives between the rounded corners*
20,1,$1+$1,$2,$3,$4,$5,0*
20,1,$1+$1,$4,$5,$6,$7,0*
20,1,$1+$1,$6,$7,$8,$9,0*
20,1,$1+$1,$8,$9,$2,$3,0*%
G04 Aperture macros list end*
%TA.AperFunction,SMDPad,CuDef*%
%ADD10RoundRect,0.250000X-0.262500X-0.450000X0.262500X-0.450000X0.262500X0.450000X-0.262500X0.450000X0*%
%TD*%
%TA.AperFunction,ComponentPad*%
%ADD11O,1.700000X1.700000*%
%TD*%
%TA.AperFunction,SMDPad,CuDef*%
%ADD12R,3.500000X1.700000*%
%TD*%
%TA.AperFunction,ComponentPad*%
%ADD13R,1.700000X1.700000*%
%TD*%
%TA.AperFunction,SMDPad,CuDef*%
%ADD14R,1.700000X3.500000*%
%TD*%
%TA.AperFunction,SMDPad,CuDef*%
%ADD15RoundRect,0.150000X-0.875000X-0.150000X0.875000X-0.150000X0.875000X0.150000X-0.875000X0.150000X0*%
%TD*%
%TA.AperFunction,ComponentPad*%
%ADD16R,1.000000X1.000000*%
%TD*%
%TA.AperFunction,ComponentPad*%
%ADD17O,1.000000X1.000000*%
%TD*%
%TA.AperFunction,ViaPad*%
%ADD18C,0.600000*%
%TD*%
%TA.AperFunction,Conductor*%
%ADD19C,0.200000*%
%TD*%
%TA.AperFunction,Profile*%
%ADD20C,0.050000*%
%TD*%
G04 APERTURE END LIST*
D10*
%TO.P,R1,1*%
%TO.N,Net-(U2-1Y0)*%
X148947500Y-123190000D03*
%TO.P,R1,2*%
%TO.N,Net-(J1-Pin_6)*%
X150772500Y-123190000D03*
%TD*%
%TO.P,R7,1*%
%TO.N,Net-(U2-2Y2)*%
X140415000Y-118070000D03*
%TO.P,R7,2*%
%TO.N,Net-(J1-Pin_4)*%
X142240000Y-118070000D03*
%TD*%
%TO.P,R6,1*%
%TO.N,Net-(U2-2Y1)*%
X140415000Y-120610000D03*
%TO.P,R6,2*%
%TO.N,Net-(J1-Pin_3)*%
X142240000Y-120610000D03*
%TD*%
%TO.P,R2,1*%
%TO.N,Net-(U2-1Y1)*%
X148947500Y-120650000D03*
%TO.P,R2,2*%
%TO.N,Net-(J1-Pin_7)*%
X150772500Y-120650000D03*
%TD*%
%TO.P,R5,1*%
%TO.N,Net-(U2-2Y0)*%
X140415000Y-123150000D03*
%TO.P,R5,2*%
%TO.N,Net-(J1-Pin_2)*%
X142240000Y-123150000D03*
%TD*%
D11*
%TO.P,U1,1,GPIO0*%
%TO.N,Net-(U1-GPIO0)*%
X160020000Y-86360000D03*
D12*
X159120000Y-86360000D03*
D11*
%TO.P,U1,2,GPIO1*%
%TO.N,Net-(U1-GPIO1)*%
X160020000Y-88900000D03*
D12*
X159120000Y-88900000D03*
D13*
%TO.P,U1,3,GND*%
%TO.N,unconnected-(U1-GND-Pad3)*%
X160020000Y-91440000D03*
D12*
X159120000Y-91440000D03*
D11*
%TO.P,U1,4,GPIO2*%
%TO.N,Net-(U1-GPIO2)*%
X160020000Y-93980000D03*
D12*
X159120000Y-93980000D03*
D11*
%TO.P,U1,5,GPIO3*%
%TO.N,Net-(U1-GPIO3)*%
X160020000Y-96520000D03*
D12*
X159120000Y-96520000D03*
D11*
%TO.P,U1,6,GPIO4*%
%TO.N,Net-(U1-GPIO4)*%
X160020000Y-99060000D03*
D12*
X159120000Y-99060000D03*
D11*
%TO.P,U1,7,GPIO5*%
%TO.N,Net-(U1-GPIO5)*%
X160020000Y-101600000D03*
D12*
X159120000Y-101600000D03*
D13*
%TO.P,U1,8,GND*%
%TO.N,unconnected-(U1-GND-Pad8)*%
X160020000Y-104140000D03*
D12*
X159120000Y-104140000D03*
D11*
%TO.P,U1,9,GPIO6*%
%TO.N,Net-(U1-GPIO6)*%
X160020000Y-106680000D03*
D12*
X159120000Y-106680000D03*
D11*
%TO.P,U1,10,GPIO7*%
%TO.N,Net-(U1-GPIO7)*%
X160020000Y-109220000D03*
D12*
X159120000Y-109220000D03*
D11*
%TO.P,U1,11,GPIO8*%
%TO.N,unconnected-(U1-GPIO8-Pad11)*%
X160020000Y-111760000D03*
D12*
X159120000Y-111760000D03*
D11*
%TO.P,U1,12,GPIO9*%
%TO.N,unconnected-(U1-GPIO9-Pad12)*%
X160020000Y-114300000D03*
D12*
X159120000Y-114300000D03*
D13*
%TO.P,U1,13,GND*%
%TO.N,unconnected-(U1-GND-Pad13)*%
X160020000Y-116840000D03*
D12*
X159120000Y-116840000D03*
D11*
%TO.P,U1,14,GPIO10*%
%TO.N,unconnected-(U1-GPIO10-Pad14)*%
X160020000Y-119380000D03*
D12*
X159120000Y-119380000D03*
D11*
%TO.P,U1,15,GPIO11*%
%TO.N,unconnected-(U1-GPIO11-Pad15)*%
X160020000Y-121920000D03*
D12*
X159120000Y-121920000D03*
D11*
%TO.P,U1,16,GPIO12*%
%TO.N,unconnected-(U1-GPIO12-Pad16)*%
X160020000Y-124460000D03*
D12*
X159120000Y-124460000D03*
D11*
%TO.P,U1,17,GPIO13*%
%TO.N,unconnected-(U1-GPIO13-Pad17)*%
X160020000Y-127000000D03*
D12*
X159120000Y-127000000D03*
D13*
%TO.P,U1,18,GND*%
%TO.N,GND*%
X160020000Y-129540000D03*
D12*
X159120000Y-129540000D03*
D11*
%TO.P,U1,19,GPIO14*%
%TO.N,unconnected-(U1-GPIO14-Pad19)*%
X160020000Y-132080000D03*
D12*
X159120000Y-132080000D03*
D11*
%TO.P,U1,20,GPIO15*%
%TO.N,unconnected-(U1-GPIO15-Pad20)*%
X160020000Y-134620000D03*
D12*
X159120000Y-134620000D03*
D11*
%TO.P,U1,21,GPIO16*%
%TO.N,unconnected-(U1-GPIO16-Pad21)*%
X177800000Y-134620000D03*
D12*
X178700000Y-134620000D03*
D11*
%TO.P,U1,22,GPIO17*%
%TO.N,unconnected-(U1-GPIO17-Pad22)*%
X177800000Y-132080000D03*
D12*
X178700000Y-132080000D03*
D13*
%TO.P,U1,23,GND*%
%TO.N,unconnected-(U1-GND-Pad23)*%
X177800000Y-129540000D03*
D12*
X178700000Y-129540000D03*
D11*
%TO.P,U1,24,GPIO18*%
%TO.N,unconnected-(U1-GPIO18-Pad24)*%
X177800000Y-127000000D03*
D12*
X178700000Y-127000000D03*
D11*
%TO.P,U1,25,GPIO19*%
%TO.N,unconnected-(U1-GPIO19-Pad25)*%
X177800000Y-124460000D03*
D12*
X178700000Y-124460000D03*
D11*
%TO.P,U1,26,GPIO20*%
%TO.N,unconnected-(U1-GPIO20-Pad26)*%
X177800000Y-121920000D03*
D12*
X178700000Y-121920000D03*
D11*
%TO.P,U1,27,GPIO21*%
%TO.N,unconnected-(U1-GPIO21-Pad27)*%
X177800000Y-119380000D03*
D12*
X178700000Y-119380000D03*
D13*
%TO.P,U1,28,GND*%
%TO.N,unconnected-(U1-GND-Pad28)*%
X177800000Y-116840000D03*
D12*
X178700000Y-116840000D03*
D11*
%TO.P,U1,29,GPIO22*%
%TO.N,unconnected-(U1-GPIO22-Pad29)*%
X177800000Y-114300000D03*
D12*
X178700000Y-114300000D03*
D11*
%TO.P,U1,30,RUN*%
%TO.N,unconnected-(U1-RUN-Pad30)*%
X177800000Y-111760000D03*
D12*
X178700000Y-111760000D03*
D11*
%TO.P,U1,31,GPIO26_ADC0*%
%TO.N,unconnected-(U1-GPIO26_ADC0-Pad31)*%
X177800000Y-109220000D03*
D12*
X178700000Y-109220000D03*
D11*
%TO.P,U1,32,GPIO27_ADC1*%
%TO.N,unconnected-(U1-GPIO27_ADC1-Pad32)*%
X177800000Y-106680000D03*
D12*
X178700000Y-106680000D03*
D13*
%TO.P,U1,33,AGND*%
%TO.N,unconnected-(U1-AGND-Pad33)*%
X177800000Y-104140000D03*
D12*
X178700000Y-104140000D03*
D11*
%TO.P,U1,34,GPIO28_ADC2*%
%TO.N,unconnected-(U1-GPIO28_ADC2-Pad34)*%
X177800000Y-101600000D03*
D12*
X178700000Y-101600000D03*
D11*
%TO.P,U1,35,ADC_VREF*%
%TO.N,unconnected-(U1-ADC_VREF-Pad35)*%
X177800000Y-99060000D03*
D12*
X178700000Y-99060000D03*
D11*
%TO.P,U1,36,3V3*%
%TO.N,unconnected-(U1-3V3-Pad36)*%
X177800000Y-96520000D03*
D12*
X178700000Y-96520000D03*
D11*
%TO.P,U1,37,3V3_EN*%
%TO.N,unconnected-(U1-3V3_EN-Pad37)*%
X177800000Y-93980000D03*
D12*
X178700000Y-93980000D03*
D13*
%TO.P,U1,38,GND*%
%TO.N,GND*%
X177800000Y-91440000D03*
D12*
X178700000Y-91440000D03*
D11*
%TO.P,U1,39,VSYS*%
%TO.N,unconnected-(U1-VSYS-Pad39)*%
X177800000Y-88900000D03*
D12*
X178700000Y-88900000D03*
D11*
%TO.P,U1,40,VBUS*%
%TO.N,VCC*%
X177800000Y-86360000D03*
D12*
X178700000Y-86360000D03*
D11*
%TO.P,U1,41,SWCLK*%
%TO.N,unconnected-(U1-SWCLK-Pad41)*%
X166370000Y-134390000D03*
D14*
X166370000Y-135290000D03*
D13*
%TO.P,U1,42,GND*%
%TO.N,unconnected-(U1-GND-Pad42)*%
X168910000Y-134390000D03*
D14*
X168910000Y-135290000D03*
D11*
%TO.P,U1,43,SWDIO*%
%TO.N,unconnected-(U1-SWDIO-Pad43)*%
X171450000Y-134390000D03*
D14*
X171450000Y-135290000D03*
%TD*%
D10*
%TO.P,R8,1*%
%TO.N,Net-(U2-2Y3)*%
X140415000Y-115570000D03*
%TO.P,R8,2*%
%TO.N,Net-(J1-Pin_5)*%
X142240000Y-115570000D03*
%TD*%
%TO.P,R4,1*%
%TO.N,Net-(U2-1Y3)*%
X148947500Y-115570000D03*
%TO.P,R4,2*%
%TO.N,Net-(J1-Pin_9)*%
X150772500Y-115570000D03*
%TD*%
%TO.P,R3,1*%
%TO.N,Net-(U2-1Y2)*%
X148947500Y-118110000D03*
%TO.P,R3,2*%
%TO.N,Net-(J1-Pin_8)*%
X150772500Y-118110000D03*
%TD*%
D15*
%TO.P,U2,1,1OE*%
%TO.N,GND*%
X141400000Y-93345000D03*
%TO.P,U2,2,1A0*%
%TO.N,Net-(U1-GPIO0)*%
X141400000Y-94615000D03*
%TO.P,U2,3,2Y0*%
%TO.N,Net-(U2-2Y0)*%
X141400000Y-95885000D03*
%TO.P,U2,4,1A1*%
%TO.N,Net-(U1-GPIO1)*%
X141400000Y-97155000D03*
%TO.P,U2,5,2Y1*%
%TO.N,Net-(U2-2Y1)*%
X141400000Y-98425000D03*
%TO.P,U2,6,1A2*%
%TO.N,Net-(U1-GPIO2)*%
X141400000Y-99695000D03*
%TO.P,U2,7,2Y2*%
%TO.N,Net-(U2-2Y2)*%
X141400000Y-100965000D03*
%TO.P,U2,8,1A3*%
%TO.N,Net-(U1-GPIO3)*%
X141400000Y-102235000D03*
%TO.P,U2,9,2Y3*%
%TO.N,Net-(U2-2Y3)*%
X141400000Y-103505000D03*
%TO.P,U2,10,GND*%
%TO.N,GND*%
X141400000Y-104775000D03*
%TO.P,U2,11,2A3*%
%TO.N,Net-(U1-GPIO7)*%
X150700000Y-104775000D03*
%TO.P,U2,12,1Y3*%
%TO.N,Net-(U2-1Y3)*%
X150700000Y-103505000D03*
%TO.P,U2,13,2A2*%
%TO.N,Net-(U1-GPIO6)*%
X150700000Y-102235000D03*
%TO.P,U2,14,1Y2*%
%TO.N,Net-(U2-1Y2)*%
X150700000Y-100965000D03*
%TO.P,U2,15,2A1*%
%TO.N,Net-(U1-GPIO5)*%
X150700000Y-99695000D03*
%TO.P,U2,16,1Y1*%
%TO.N,Net-(U2-1Y1)*%
X150700000Y-98425000D03*
%TO.P,U2,17,2A0*%
%TO.N,Net-(U1-GPIO4)*%
X150700000Y-97155000D03*
%TO.P,U2,18,1Y0*%
%TO.N,Net-(U2-1Y0)*%
X150700000Y-95885000D03*
%TO.P,U2,19,2OE*%
%TO.N,GND*%
X150700000Y-94615000D03*
%TO.P,U2,20,VCC*%
%TO.N,VCC*%
X150700000Y-93345000D03*
%TD*%
D16*
%TO.P,J1,1,Pin_1*%
%TO.N,GND*%
X140970000Y-130810000D03*
D17*
%TO.P,J1,2,Pin_2*%
%TO.N,Net-(J1-Pin_2)*%
X142240000Y-130810000D03*
%TO.P,J1,3,Pin_3*%
%TO.N,Net-(J1-Pin_3)*%
X143510000Y-130810000D03*
%TO.P,J1,4,Pin_4*%
%TO.N,Net-(J1-Pin_4)*%
X144780000Y-130810000D03*
%TO.P,J1,5,Pin_5*%
%TO.N,Net-(J1-Pin_5)*%
X146050000Y-130810000D03*
%TO.P,J1,6,Pin_6*%
%TO.N,Net-(J1-Pin_6)*%
X147320000Y-130810000D03*
%TO.P,J1,7,Pin_7*%
%TO.N,Net-(J1-Pin_7)*%
X148590000Y-130810000D03*
%TO.P,J1,8,Pin_8*%
%TO.N,Net-(J1-Pin_8)*%
X149860000Y-130810000D03*
%TO.P,J1,9,Pin_9*%
%TO.N,Net-(J1-Pin_9)*%
X151130000Y-130810000D03*
%TD*%
D18*
%TO.N,GND*%
X143510000Y-104775000D03*
X148590000Y-94615000D03*
%TD*%
D19*
%TO.N,Net-(J1-Pin_6)*%
X147320000Y-128270000D02*
X150772500Y-124817500D01*
X150772500Y-124817500D02*
X150772500Y-123190000D01*
X147320000Y-130810000D02*
X147320000Y-128270000D01*
%TO.N,Net-(J1-Pin_5)*%
X146050000Y-119380000D02*
X142240000Y-115570000D01*
X146050000Y-130810000D02*
X146050000Y-119380000D01*
%TO.N,Net-(J1-Pin_4)*%
X142240000Y-118070000D02*
X144780000Y-120610000D01*
X144780000Y-120610000D02*
X144780000Y-130810000D01*
%TO.N,GND*%
X157480000Y-129540000D02*
X160020000Y-129540000D01*
X141400000Y-93345000D02*
X140375001Y-93345000D01*
%TO.N,Net-(J1-Pin_7)*%
X148590000Y-128270000D02*
X152400000Y-124460000D01*
X152400000Y-124460000D02*
X152400000Y-121920000D01*
X152400000Y-121920000D02*
X151130000Y-120650000D01*
X151130000Y-120650000D02*
X150772500Y-120650000D01*
X148590000Y-130810000D02*
X148590000Y-128270000D01*
%TO.N,Net-(J1-Pin_3)*%
X142240000Y-120610000D02*
X143510000Y-121880000D01*
X143510000Y-121880000D02*
X143510000Y-130810000D01*
%TO.N,Net-(J1-Pin_8)*%
X153035000Y-125095000D02*
X153035000Y-120015000D01*
X149860000Y-128270000D02*
X153035000Y-125095000D01*
X151130000Y-118110000D02*
X150772500Y-118110000D01*
X149860000Y-130810000D02*
X149860000Y-128270000D01*
X153035000Y-120015000D02*
X151130000Y-118110000D01*
%TO.N,Net-(J1-Pin_2)*%
X142240000Y-123150000D02*
X142240000Y-130810000D01*
%TO.N,Net-(J1-Pin_9)*%
X153670000Y-125730000D02*
X153670000Y-118427500D01*
X150812500Y-115570000D02*
X150772500Y-115570000D01*
X151130000Y-128270000D02*
X153670000Y-125730000D01*
X153670000Y-118427500D02*
X150812500Y-115570000D01*
X151130000Y-130810000D02*
X151130000Y-128270000D01*
%TO.N,Net-(U2-1Y0)*%
X149860000Y-95885000D02*
X150700000Y-95885000D01*
X148947500Y-123190000D02*
X147955000Y-123190000D01*
X146685000Y-99060000D02*
X149860000Y-95885000D01*
X147955000Y-123190000D02*
X146685000Y-121920000D01*
X146685000Y-121920000D02*
X146685000Y-99060000D01*
%TO.N,Net-(U2-1Y1)*%
X148947500Y-120650000D02*
X148590000Y-120650000D01*
X148590000Y-120650000D02*
X147320000Y-119380000D01*
X149860000Y-98425000D02*
X150700000Y-98425000D01*
X147320000Y-100965000D02*
X149860000Y-98425000D01*
X147320000Y-119380000D02*
X147320000Y-100965000D01*
%TO.N,Net-(U2-1Y2)*%
X147955000Y-117475000D02*
X147955000Y-102870000D01*
X148590000Y-118110000D02*
X147955000Y-117475000D01*
X147955000Y-102870000D02*
X149860000Y-100965000D01*
X149860000Y-100965000D02*
X150700000Y-100965000D01*
X148947500Y-118110000D02*
X148590000Y-118110000D01*
%TO.N,Net-(U2-1Y3)*%
X148590000Y-115212500D02*
X148947500Y-115570000D01*
X150700000Y-103505000D02*
X149860000Y-103505000D01*
X148590000Y-104775000D02*
X148590000Y-115212500D01*
X149860000Y-103505000D02*
X148590000Y-104775000D01*
%TO.N,Net-(U2-2Y0)*%
X140335000Y-95885000D02*
X141400000Y-95885000D01*
X137795000Y-98425000D02*
X140335000Y-95885000D01*
X140415000Y-123150000D02*
X137795000Y-120530000D01*
X137795000Y-120530000D02*
X137795000Y-98425000D01*
%TO.N,Net-(U2-2Y1)*%
X138430000Y-118745000D02*
X138430000Y-100370001D01*
X138430000Y-100370001D02*
X140375001Y-98425000D01*
X140375001Y-98425000D02*
X141400000Y-98425000D01*
X140415000Y-120610000D02*
X140295000Y-120610000D01*
X140295000Y-120610000D02*
X138430000Y-118745000D01*
%TO.N,Net-(U2-2Y2)*%
X140295000Y-118070000D02*
X139065000Y-116840000D01*
X140415000Y-118070000D02*
X140295000Y-118070000D01*
X140375001Y-100965000D02*
X141400000Y-100965000D01*
X139065000Y-116840000D02*
X139065000Y-102275001D01*
X139065000Y-102275001D02*
X140375001Y-100965000D01*
%TO.N,Net-(U2-2Y3)*%
X140415000Y-115570000D02*
X139780000Y-114935000D01*
X140375001Y-103505000D02*
X141400000Y-103505000D01*
X139780000Y-114935000D02*
X139700000Y-114935000D01*
X139700000Y-114935000D02*
X139700000Y-104180001D01*
X139700000Y-104180001D02*
X140375001Y-103505000D01*
%TO.N,Net-(U1-GPIO4)*%
X152400000Y-97155000D02*
X154305000Y-99060000D01*
X150700000Y-97155000D02*
X152400000Y-97155000D01*
X154305000Y-99060000D02*
X160020000Y-99060000D01*
%TO.N,Net-(U1-GPIO1)*%
X160020000Y-88900000D02*
X151199314Y-88900000D01*
X151199314Y-88900000D02*
X142944314Y-97155000D01*
X142944314Y-97155000D02*
X141400000Y-97155000D01*
%TO.N,VCC*%
X156169999Y-97790000D02*
X166370000Y-97790000D01*
X150700000Y-93345000D02*
X151724999Y-93345000D01*
X166370000Y-97790000D02*
X177800000Y-86360000D01*
X151724999Y-93345000D02*
X156169999Y-97790000D01*
%TO.N,Net-(U1-GPIO5)*%
X150700000Y-99695000D02*
X152400000Y-99695000D01*
X154305000Y-101600000D02*
X160020000Y-101600000D01*
X152400000Y-99695000D02*
X154305000Y-101600000D01*
%TO.N,Net-(U1-GPIO0)*%
X153035000Y-86360000D02*
X144780000Y-94615000D01*
X160020000Y-86360000D02*
X153035000Y-86360000D01*
X144780000Y-94615000D02*
X141400000Y-94615000D01*
%TO.N,Net-(U1-GPIO2)*%
X155575000Y-93980000D02*
X152400000Y-90805000D01*
X145415000Y-95250000D02*
X145415000Y-97790000D01*
X149860000Y-90805000D02*
X145415000Y-95250000D01*
X152400000Y-90805000D02*
X149860000Y-90805000D01*
X145415000Y-97790000D02*
X143510000Y-99695000D01*
X143510000Y-99695000D02*
X141400000Y-99695000D01*
X160020000Y-93980000D02*
X155575000Y-93980000D01*
%TO.N,Net-(U1-GPIO3)*%
X157162500Y-96520000D02*
X152082500Y-91440000D01*
X143510000Y-102235000D02*
X141400000Y-102235000D01*
X160020000Y-96520000D02*
X157162500Y-96520000D01*
X146050000Y-95250000D02*
X146050000Y-99695000D01*
X146050000Y-99695000D02*
X143510000Y-102235000D01*
X149860000Y-91440000D02*
X146050000Y-95250000D01*
X152082500Y-91440000D02*
X149860000Y-91440000D01*
%TO.N,Net-(U1-GPIO7)*%
X156210000Y-109220000D02*
X160020000Y-109220000D01*
X150700000Y-104775000D02*
X151765000Y-104775000D01*
X151765000Y-104775000D02*
X156210000Y-109220000D01*
%TO.N,Net-(U1-GPIO6)*%
X156210000Y-106680000D02*
X160020000Y-106680000D01*
X150700000Y-102235000D02*
X151765000Y-102235000D01*
X151765000Y-102235000D02*
X156210000Y-106680000D01*
%TD*%
%TA.AperFunction,Conductor*%
%TO.N,GND*%
G36*
X156979211Y-84975185D02*
G01*
X157024966Y-85027989D01*
X157034910Y-85097147D01*
X157011438Y-85153811D01*
X156926206Y-85267664D01*
X156926202Y-85267671D01*
X156875908Y-85402517D01*
X156870149Y-85456087D01*
X156869501Y-85462123D01*
X156869500Y-85462135D01*
X156869500Y-85635500D01*
X156849815Y-85702539D01*
X156797011Y-85748294D01*
X156745500Y-85759500D01*
X153121669Y-85759500D01*
X153121653Y-85759499D01*
X153114057Y-85759499D01*
X152955943Y-85759499D01*
X152848587Y-85788265D01*
X152803210Y-85800424D01*
X152803209Y-85800425D01*
X152753096Y-85829359D01*
X152753095Y-85829360D01*
X152709689Y-85854420D01*
X152666285Y-85879479D01*
X152666282Y-85879481D01*
X152589226Y-85956538D01*
X152554480Y-85991284D01*
X152554478Y-85991286D01*
X148546468Y-89999297D01*
X144567584Y-93978181D01*
X144506261Y-94011666D01*
X144479903Y-94014500D01*
X142940326Y-94014500D01*
X142873287Y-93994815D01*
X142827532Y-93942011D01*
X142817588Y-93872853D01*
X142833594Y-93827379D01*
X142876281Y-93755198D01*
X142922100Y-93597486D01*
X142922295Y-93595001D01*
X142922295Y-93595000D01*
X139877705Y-93595000D01*
X139877704Y-93595001D01*
X139877899Y-93597486D01*
X139923718Y-93755198D01*
X140007314Y-93896552D01*
X140012100Y-93902722D01*
X140009640Y-93904629D01*
X140036210Y-93953288D01*
X140031226Y-94022980D01*
X140010162Y-94055781D01*
X140011699Y-94056974D01*
X140006915Y-94063140D01*
X139923255Y-94204603D01*
X139923254Y-94204606D01*
X139877402Y-94362426D01*
X139877401Y-94362432D01*
X139874500Y-94399298D01*
X139874500Y-94830701D01*
X139877401Y-94867567D01*
X139877402Y-94867573D01*
X139923254Y-95025393D01*
X139923255Y-95025396D01*
X140006917Y-95166862D01*
X140011702Y-95173031D01*
X140009256Y-95174927D01*
X140035857Y-95223642D01*
X140030873Y-95293334D01*
X140010070Y-95325702D01*
X140011702Y-95326968D01*
X140006921Y-95333131D01*
X139970443Y-95394811D01*
X139951394Y-95419369D01*
X139854480Y-95516284D01*
X139854479Y-95516283D01*
X139854478Y-95516286D01*
X137314481Y-98056282D01*
X137314477Y-98056287D01*
X137295978Y-98088331D01*
X137295977Y-98088333D01*
X137235423Y-98193215D01*
X137194499Y-98345943D01*
X137194499Y-98345945D01*
X137194499Y-98514046D01*
X137194500Y-98514059D01*
X137194500Y-120443330D01*
X137194499Y-120443348D01*
X137194499Y-120609054D01*
X137194498Y-120609054D01*
X137235423Y-120761785D01*
X137264358Y-120811900D01*
X137264359Y-120811904D01*
X137264360Y-120811904D01*
X137314479Y-120898714D01*
X137314481Y-120898717D01*
X137433349Y-121017585D01*
X137433355Y-121017590D01*
X139365681Y-122949917D01*
X139399166Y-123011240D01*
X139402000Y-123037598D01*
X139402000Y-123650001D01*
X139402001Y-123650019D01*
X139412500Y-123752796D01*
X139412501Y-123752799D01*
X139434113Y-123818018D01*
X139467686Y-123919334D01*
X139559788Y-124068656D01*
X139683844Y-124192712D01*
X139833166Y-124284814D01*
X139999703Y-124339999D01*
X140102491Y-124350500D01*
X140727508Y-124350499D01*
X140727516Y-124350498D01*
X140727519Y-124350498D01*
X140805745Y-124342507D01*
X140830297Y-124339999D01*
X140996834Y-124284814D01*
X141146156Y-124192712D01*
X141239819Y-124099049D01*
X141301142Y-124065564D01*
X141370834Y-124070548D01*
X141415181Y-124099049D01*
X141508844Y-124192712D01*
X141580596Y-124236968D01*
X141627321Y-124288915D01*
X141639500Y-124342507D01*
X141639500Y-129686000D01*
X141619815Y-129753039D01*
X141567011Y-129798794D01*
X141515500Y-129810000D01*
X141220000Y-129810000D01*
X141220000Y-130600382D01*
X141169554Y-130549936D01*
X141095445Y-130507149D01*
X141012787Y-130485000D01*
X140927213Y-130485000D01*
X140844555Y-130507149D01*
X140770446Y-130549936D01*
X140709936Y-130610446D01*
X140667149Y-130684555D01*
X140645000Y-130767213D01*
X140645000Y-130852787D01*
X140667149Y-130935445D01*
X140709936Y-131009554D01*
X140770446Y-131070064D01*
X140844555Y-131112851D01*
X140927213Y-131135000D01*
X141012787Y-131135000D01*
X141095445Y-131112851D01*
X141169554Y-131070064D01*
X141220000Y-131019618D01*
X141220000Y-131810000D01*
X141517828Y-131810000D01*
X141517844Y-131809999D01*
X141577372Y-131803598D01*
X141577376Y-131803597D01*
X141712089Y-131753351D01*
X141719890Y-131747512D01*
X141785353Y-131723091D01*
X141849529Y-131736751D01*
X141849641Y-131736482D01*
X141851100Y-131737086D01*
X141852663Y-131737419D01*
X141855273Y-131738814D01*
X142043868Y-131796024D01*
X142240000Y-131815341D01*
X142436132Y-131796024D01*
X142624727Y-131738814D01*
X142798538Y-131645910D01*
X142798544Y-131645904D01*
X142803607Y-131642523D01*
X142804703Y-131644164D01*
X142860639Y-131620405D01*
X142929507Y-131632194D01*
X142946148Y-131642888D01*
X142946393Y-131642523D01*
X142951458Y-131645907D01*
X142951462Y-131645910D01*
X143125273Y-131738814D01*
X143313868Y-131796024D01*
X143510000Y-131815341D01*
X143706132Y-131796024D01*
X143894727Y-131738814D01*
X144068538Y-131645910D01*
X144068544Y-131645904D01*
X144073607Y-131642523D01*
X144074703Y-131644164D01*
X144130639Y-131620405D01*
X144199507Y-131632194D01*
X144216148Y-131642888D01*
X144216393Y-131642523D01*
X144221458Y-131645907D01*
X144221462Y-131645910D01*
X144395273Y-131738814D01*
X144583868Y-131796024D01*
X144780000Y-131815341D01*
X144976132Y-131796024D01*
X145164727Y-131738814D01*
X145338538Y-131645910D01*
X145338544Y-131645904D01*
X145343607Y-131642523D01*
X145344703Y-131644164D01*
X145400639Y-131620405D01*
X145469507Y-131632194D01*
X145486148Y-131642888D01*
X145486393Y-131642523D01*
X145491458Y-131645907D01*
X145491462Y-131645910D01*
X145665273Y-131738814D01*
X145853868Y-131796024D01*
X146050000Y-131815341D01*
X146246132Y-131796024D01*
X146434727Y-131738814D01*
X146608538Y-131645910D01*
X146608544Y-131645904D01*
X146613607Y-131642523D01*
X146614703Y-131644164D01*
X146670639Y-131620405D01*
X146739507Y-131632194D01*
X146756148Y-131642888D01*
X146756393Y-131642523D01*
X146761458Y-131645907D01*
X146761462Y-131645910D01*
X146935273Y-131738814D01*
X147123868Y-131796024D01*
X147320000Y-131815341D01*
X147516132Y-131796024D01*
X147704727Y-131738814D01*
X147878538Y-131645910D01*
X147878544Y-131645904D01*
X147883607Y-131642523D01*
X147884703Y-131644164D01*
X147940639Y-131620405D01*
X148009507Y-131632194D01*
X148026148Y-131642888D01*
X148026393Y-131642523D01*
X148031458Y-131645907D01*
X148031462Y-131645910D01*
X148205273Y-131738814D01*
X148393868Y-131796024D01*
X148590000Y-131815341D01*
X148786132Y-131796024D01*
X148974727Y-131738814D01*
X149148538Y-131645910D01*
X149148544Y-131645904D01*
X149153607Y-131642523D01*
X149154703Y-131644164D01*
X149210639Y-131620405D01*
X149279507Y-131632194D01*
X149296148Y-131642888D01*
X149296393Y-131642523D01*
X149301458Y-131645907D01*
X149301462Y-131645910D01*
X149475273Y-131738814D01*
X149663868Y-131796024D01*
X149860000Y-131815341D01*
X150056132Y-131796024D01*
X150244727Y-131738814D01*
X150418538Y-131645910D01*
X150418544Y-131645904D01*
X150423607Y-131642523D01*
X150424703Y-131644164D01*
X150480639Y-131620405D01*
X150549507Y-131632194D01*
X150566148Y-131642888D01*
X150566393Y-131642523D01*
X150571458Y-131645907D01*
X150571462Y-131645910D01*
X150745273Y-131738814D01*
X150933868Y-131796024D01*
X151130000Y-131815341D01*
X151326132Y-131796024D01*
X151514727Y-131738814D01*
X151688538Y-131645910D01*
X151840883Y-131520883D01*
X151965910Y-131368538D01*
X152058814Y-131194727D01*
X152116024Y-131006132D01*
X152135341Y-130810000D01*
X152116024Y-130613868D01*
X152058814Y-130425273D01*
X152058811Y-130425269D01*
X152058811Y-130425266D01*
X151965913Y-130251467D01*
X151965909Y-130251460D01*
X151840887Y-130099122D01*
X151840883Y-130099117D01*
X151775832Y-130045730D01*
X151736500Y-129987987D01*
X151730500Y-129949880D01*
X151730500Y-128570096D01*
X151750185Y-128503057D01*
X151766814Y-128482420D01*
X154028506Y-126220727D01*
X154028511Y-126220724D01*
X154038714Y-126210520D01*
X154038716Y-126210520D01*
X154150520Y-126098716D01*
X154229577Y-125961784D01*
X154268731Y-125815659D01*
X154270500Y-125809058D01*
X154270500Y-125650943D01*
X154270500Y-118348443D01*
X154248003Y-118264481D01*
X154229577Y-118195715D01*
X154193828Y-118133796D01*
X154193828Y-118133795D01*
X154150524Y-118058790D01*
X154150521Y-118058786D01*
X154150520Y-118058784D01*
X154038716Y-117946980D01*
X154038715Y-117946979D01*
X154034385Y-117942649D01*
X154034374Y-117942639D01*
X151821818Y-115730083D01*
X151788333Y-115668760D01*
X151785499Y-115642402D01*
X151785499Y-115069998D01*
X151785498Y-115069981D01*
X151774999Y-114967203D01*
X151774998Y-114967200D01*
X151719814Y-114800666D01*
X151627712Y-114651344D01*
X151503656Y-114527288D01*
X151354334Y-114435186D01*
X151187797Y-114380001D01*
X151187795Y-114380000D01*
X151085010Y-114369500D01*
X150459998Y-114369500D01*
X150459980Y-114369501D01*
X150357203Y-114380000D01*
X150357200Y-114380001D01*
X150190668Y-114435185D01*
X150190663Y-114435187D01*
X150041342Y-114527289D01*
X149947681Y-114620951D01*
X149886358Y-114654436D01*
X149816666Y-114649452D01*
X149772319Y-114620951D01*
X149678657Y-114527289D01*
X149678656Y-114527288D01*
X149529334Y-114435186D01*
X149362797Y-114380001D01*
X149362794Y-114380000D01*
X149301897Y-114373779D01*
X149237205Y-114347382D01*
X149197054Y-114290201D01*
X149190500Y-114250421D01*
X149190500Y-105509809D01*
X149210185Y-105442770D01*
X149262989Y-105397015D01*
X149332147Y-105387071D01*
X149395703Y-105416096D01*
X149402181Y-105422128D01*
X149423129Y-105443076D01*
X149423133Y-105443079D01*
X149423135Y-105443081D01*
X149564602Y-105526744D01*
X149606224Y-105538836D01*
X149722426Y-105572597D01*
X149722429Y-105572597D01*
X149722431Y-105572598D01*
X149759306Y-105575500D01*
X149759314Y-105575500D01*
X151640686Y-105575500D01*
X151640694Y-105575500D01*
X151653762Y-105574471D01*
X151722138Y-105588834D01*
X151751173Y-105610408D01*
X155725139Y-109584374D01*
X155725149Y-109584385D01*
X155729479Y-109588715D01*
X155729480Y-109588716D01*
X155841284Y-109700520D01*
X155928095Y-109750639D01*
X155928097Y-109750641D01*
X155978213Y-109779576D01*
X155978215Y-109779577D01*
X156130942Y-109820500D01*
X156130943Y-109820500D01*
X156745501Y-109820500D01*
X156812540Y-109840185D01*
X156858295Y-109892989D01*
X156869501Y-109944500D01*
X156869501Y-110117876D01*
X156875908Y-110177483D01*
X156926202Y-110312328D01*
X156926203Y-110312330D01*
X157003578Y-110415689D01*
X157027995Y-110481153D01*
X157013144Y-110549426D01*
X157003578Y-110564311D01*
X156926203Y-110667669D01*
X156926202Y-110667671D01*
X156875908Y-110802517D01*
X156869501Y-110862116D01*
X156869501Y-110862123D01*
X156869500Y-110862135D01*
X156869500Y-112657870D01*
X156869501Y-112657876D01*
X156875908Y-112717483D01*
X156926202Y-112852328D01*
X156926203Y-112852330D01*
X157003578Y-112955689D01*
X157027995Y-113021153D01*
X157013144Y-113089426D01*
X157003578Y-113104311D01*
X156926203Y-113207669D01*
X156926202Y-113207671D01*
X156875908Y-113342517D01*
X156869501Y-113402116D01*
X156869501Y-113402123D01*
X156869500Y-113402135D01*
X156869500Y-115197870D01*
X156869501Y-115197876D01*
X156875908Y-115257483D01*
X156926202Y-115392328D01*
X156926203Y-115392330D01*
X157003578Y-115495689D01*
X157027995Y-115561153D01*
X157013144Y-115629426D01*
X157003578Y-115644311D01*
X156926203Y-115747669D01*
X156926202Y-115747671D01*
X156875908Y-115882517D01*
X156869501Y-115942116D01*
X156869501Y-115942123D01*
X156869500Y-115942135D01*
X156869500Y-117737870D01*
X156869501Y-117737876D01*
X156875908Y-117797483D01*
X156926202Y-117932328D01*
X156926203Y-117932330D01*
X157003578Y-118035689D01*
X157027995Y-118101153D01*
X157013144Y-118169426D01*
X157003578Y-118184311D01*
X156926203Y-118287669D01*
X156926202Y-118287671D01*
X156875908Y-118422517D01*
X156870668Y-118471261D01*
X156869501Y-118482123D01*
X156869500Y-118482135D01*
X156869500Y-120277870D01*
X156869501Y-120277876D01*
X156875908Y-120337483D01*
X156926202Y-120472328D01*
X156926203Y-120472330D01*
X157003578Y-120575689D01*
X157027995Y-120641153D01*
X157013144Y-120709426D01*
X157003578Y-120724311D01*
X156926203Y-120827669D01*
X156926202Y-120827671D01*
X156875908Y-120962517D01*
X156869988Y-121017585D01*
X156869501Y-121022123D01*
X156869500Y-121022135D01*
X156869500Y-122817870D01*
X156869501Y-122817876D01*
X156875908Y-122877483D01*
X156926202Y-123012328D01*
X156926203Y-123012330D01*
X157003578Y-123115689D01*
X157027995Y-123181153D01*
X157013144Y-123249426D01*
X157003578Y-123264311D01*
X156926203Y-123367669D01*
X156926202Y-123367671D01*
X156875908Y-123502517D01*
X156870332Y-123554385D01*
X156869501Y-123562123D01*
X156869500Y-123562135D01*
X156869500Y-125357870D01*
X156869501Y-125357876D01*
X156875908Y-125417483D01*
X156926202Y-125552328D01*
X156926203Y-125552330D01*
X157003578Y-125655689D01*
X157027995Y-125721153D01*
X157013144Y-125789426D01*
X157003578Y-125804311D01*
X156926203Y-125907669D01*
X156926202Y-125907671D01*
X156875908Y-126042517D01*
X156869501Y-126102116D01*
X156869501Y-126102123D01*
X156869500Y-126102135D01*
X156869500Y-127897870D01*
X156869501Y-127897876D01*
X156875908Y-127957483D01*
X156926202Y-128092328D01*
X156926206Y-128092335D01*
X157003889Y-128196105D01*
X157028307Y-128261569D01*
X157013456Y-128329842D01*
X157003890Y-128344727D01*
X156926647Y-128447910D01*
X156926645Y-128447913D01*
X156876403Y-128582620D01*
X156876401Y-128582627D01*
X156870000Y-128642155D01*
X156870000Y-129290000D01*
X159575440Y-129290000D01*
X159544755Y-129343147D01*
X159510000Y-129472857D01*
X159510000Y-129607143D01*
X159544755Y-129736853D01*
X159575440Y-129790000D01*
X156870000Y-129790000D01*
X156870000Y-130437844D01*
X156876401Y-130497372D01*
X156876403Y-130497379D01*
X156926645Y-130632086D01*
X156926646Y-130632088D01*
X157003890Y-130735272D01*
X157028307Y-130800736D01*
X157013456Y-130869009D01*
X157003890Y-130883894D01*
X156926204Y-130987669D01*
X156926202Y-130987671D01*
X156875908Y-131122517D01*
X156869501Y-131182116D01*
X156869501Y-131182123D01*
X156869500Y-131182135D01*
X156869500Y-132977870D01*
X156869501Y-132977876D01*
X156875908Y-133037483D01*
X156926202Y-133172328D01*
X156926203Y-133172330D01*
X157003578Y-133275689D01*
X157027995Y-133341153D01*
X157013144Y-133409426D01*
X157003578Y-133424311D01*
X156926203Y-133527669D01*
X156926202Y-133527671D01*
X156875908Y-133662517D01*
X156869501Y-133722116D01*
X156869501Y-133722123D01*
X156869500Y-133722135D01*
X156869500Y-135517870D01*
X156869501Y-135517876D01*
X156875908Y-135577483D01*
X156926202Y-135712328D01*
X156926206Y-135712335D01*
X157012452Y-135827544D01*
X157012455Y-135827547D01*
X157127664Y-135913793D01*
X157127671Y-135913797D01*
X157262517Y-135964091D01*
X157262516Y-135964091D01*
X157269444Y-135964835D01*
X157322127Y-135970500D01*
X159955611Y-135970499D01*
X159966419Y-135970971D01*
X160019999Y-135975659D01*
X160020000Y-135975659D01*
X160020001Y-135975659D01*
X160073580Y-135970971D01*
X160084388Y-135970499D01*
X160917871Y-135970499D01*
X160917872Y-135970499D01*
X160977483Y-135964091D01*
X161112331Y-135913796D01*
X161227546Y-135827546D01*
X161313796Y-135712331D01*
X161364091Y-135577483D01*
X161370500Y-135517873D01*
X161370499Y-134684383D01*
X161370971Y-134673576D01*
X161375659Y-134620000D01*
X161375659Y-134619999D01*
X161370971Y-134566421D01*
X161370499Y-134555613D01*
X161370499Y-134389997D01*
X165014341Y-134389997D01*
X165014341Y-134390001D01*
X165019028Y-134443574D01*
X165019500Y-134454381D01*
X165019500Y-137087870D01*
X165019501Y-137087876D01*
X165025908Y-137147483D01*
X165076202Y-137282328D01*
X165076206Y-137282335D01*
X165162452Y-137397544D01*
X165162455Y-137397547D01*
X165277664Y-137483793D01*
X165277671Y-137483797D01*
X165412517Y-137534091D01*
X165412516Y-137534091D01*
X165419444Y-137534835D01*
X165472127Y-137540500D01*
X167267872Y-137540499D01*
X167327483Y-137534091D01*
X167462331Y-137483796D01*
X167565690Y-137406421D01*
X167631152Y-137382004D01*
X167699425Y-137396855D01*
X167714303Y-137406416D01*
X167815834Y-137482422D01*
X167817668Y-137483795D01*
X167817671Y-137483797D01*
X167952517Y-137534091D01*
X167952516Y-137534091D01*
X167959444Y-137534835D01*
X168012127Y-137540500D01*
X169807872Y-137540499D01*
X169867483Y-137534091D01*
X170002331Y-137483796D01*
X170105690Y-137406421D01*
X170171152Y-137382004D01*
X170239425Y-137396855D01*
X170254303Y-137406416D01*
X170355834Y-137482422D01*
X170357668Y-137483795D01*
X170357671Y-137483797D01*
X170492517Y-137534091D01*
X170492516Y-137534091D01*
X170499444Y-137534835D01*
X170552127Y-137540500D01*
X172347872Y-137540499D01*
X172407483Y-137534091D01*
X172542331Y-137483796D01*
X172657546Y-137397546D01*
X172743796Y-137282331D01*
X172794091Y-137147483D01*
X172800500Y-137087873D01*
X172800499Y-134454381D01*
X172800971Y-134443578D01*
X172805659Y-134390000D01*
X172805659Y-134389999D01*
X172800971Y-134336418D01*
X172800499Y-134325610D01*
X172800499Y-133492129D01*
X172800498Y-133492123D01*
X172800497Y-133492116D01*
X172794091Y-133432517D01*
X172791030Y-133424311D01*
X172743797Y-133297671D01*
X172743793Y-133297664D01*
X172657547Y-133182455D01*
X172657544Y-133182452D01*
X172542335Y-133096206D01*
X172542328Y-133096202D01*
X172407482Y-133045908D01*
X172407483Y-133045908D01*
X172347883Y-133039501D01*
X172347881Y-133039500D01*
X172347873Y-133039500D01*
X172347865Y-133039500D01*
X171514383Y-133039500D01*
X171503576Y-133039028D01*
X171450002Y-133034341D01*
X171449999Y-133034341D01*
X171414865Y-133037414D01*
X171396421Y-133039028D01*
X171385616Y-133039500D01*
X170552129Y-133039500D01*
X170552123Y-133039501D01*
X170492516Y-133045908D01*
X170357671Y-133096202D01*
X170357669Y-133096203D01*
X170254311Y-133173578D01*
X170188847Y-133197995D01*
X170120574Y-133183144D01*
X170105689Y-133173578D01*
X170002330Y-133096203D01*
X170002328Y-133096202D01*
X169867482Y-133045908D01*
X169867483Y-133045908D01*
X169807883Y-133039501D01*
X169807881Y-133039500D01*
X169807873Y-133039500D01*
X169807864Y-133039500D01*
X168012129Y-133039500D01*
X168012123Y-133039501D01*
X167952516Y-133045908D01*
X167817671Y-133096202D01*
X167817669Y-133096203D01*
X167714311Y-133173578D01*
X167648847Y-133197995D01*
X167580574Y-133183144D01*
X167565689Y-133173578D01*
X167462330Y-133096203D01*
X167462328Y-133096202D01*
X167327482Y-133045908D01*
X167327483Y-133045908D01*
X167267883Y-133039501D01*
X167267881Y-133039500D01*
X167267873Y-133039500D01*
X167267865Y-133039500D01*
X166434383Y-133039500D01*
X166423576Y-133039028D01*
X166370002Y-133034341D01*
X166369999Y-133034341D01*
X166334865Y-133037414D01*
X166316421Y-133039028D01*
X166305616Y-133039500D01*
X165472129Y-133039500D01*
X165472123Y-133039501D01*
X165412516Y-133045908D01*
X165277671Y-133096202D01*
X165277664Y-133096206D01*
X165162455Y-133182452D01*
X165162452Y-133182455D01*
X165076206Y-133297664D01*
X165076202Y-133297671D01*
X165025908Y-133432517D01*
X165019501Y-133492116D01*
X165019501Y-133492123D01*
X165019500Y-133492135D01*
X165019500Y-134325618D01*
X165019028Y-134336425D01*
X165014341Y-134389997D01*
X161370499Y-134389997D01*
X161370499Y-133722129D01*
X161370498Y-133722123D01*
X161370497Y-133722116D01*
X161364091Y-133662517D01*
X161336934Y-133589706D01*
X161313797Y-133527671D01*
X161313795Y-133527668D01*
X161287195Y-133492135D01*
X161236421Y-133424309D01*
X161212004Y-133358848D01*
X161226855Y-133290575D01*
X161236416Y-133275696D01*
X161313796Y-133172331D01*
X161364091Y-133037483D01*
X161370500Y-132977873D01*
X161370499Y-132144383D01*
X161370971Y-132133576D01*
X161375659Y-132080000D01*
X161375659Y-132079999D01*
X161370971Y-132026421D01*
X161370499Y-132015613D01*
X161370499Y-131182129D01*
X161370498Y-131182123D01*
X161370497Y-131182116D01*
X161364091Y-131122517D01*
X161344527Y-131070064D01*
X161313797Y-130987671D01*
X161313795Y-130987668D01*
X161274701Y-130935445D01*
X161236109Y-130883893D01*
X161211692Y-130818430D01*
X161226543Y-130750157D01*
X161236110Y-130735271D01*
X161313352Y-130632089D01*
X161313354Y-130632086D01*
X161363596Y-130497379D01*
X161363598Y-130497372D01*
X161369999Y-130437844D01*
X161370000Y-130437827D01*
X161370000Y-129790000D01*
X160464560Y-129790000D01*
X160495245Y-129736853D01*
X160530000Y-129607143D01*
X160530000Y-129472857D01*
X160495245Y-129343147D01*
X160464560Y-129290000D01*
X161370000Y-129290000D01*
X161370000Y-128642172D01*
X161369999Y-128642155D01*
X161363598Y-128582627D01*
X161363596Y-128582620D01*
X161313354Y-128447913D01*
X161313352Y-128447910D01*
X161236110Y-128344729D01*
X161211692Y-128279265D01*
X161226543Y-128210992D01*
X161236105Y-128196111D01*
X161313796Y-128092331D01*
X161364091Y-127957483D01*
X161370500Y-127897873D01*
X161370499Y-127064383D01*
X161370971Y-127053576D01*
X161375659Y-127000000D01*
X161375659Y-126999999D01*
X161370971Y-126946421D01*
X161370499Y-126935613D01*
X161370499Y-126102129D01*
X161370498Y-126102123D01*
X161370497Y-126102116D01*
X161364091Y-126042517D01*
X161313796Y-125907669D01*
X161236421Y-125804309D01*
X161212004Y-125738848D01*
X161226855Y-125670575D01*
X161236416Y-125655696D01*
X161313796Y-125552331D01*
X161364091Y-125417483D01*
X161370500Y-125357873D01*
X161370499Y-124524383D01*
X161370971Y-124513576D01*
X161375659Y-124460000D01*
X161375659Y-124459999D01*
X161370971Y-124406421D01*
X161370499Y-124395613D01*
X161370499Y-123562129D01*
X161370498Y-123562123D01*
X161370497Y-123562116D01*
X161364091Y-123502517D01*
X161313796Y-123367669D01*
X161236421Y-123264309D01*
X161212004Y-123198848D01*
X161226855Y-123130575D01*
X161236416Y-123115696D01*
X161313796Y-123012331D01*
X161364091Y-122877483D01*
X161370500Y-122817873D01*
X161370499Y-121984383D01*
X161370971Y-121973576D01*
X161375659Y-121920000D01*
X161375659Y-121919999D01*
X161370971Y-121866421D01*
X161370499Y-121855613D01*
X161370499Y-121022129D01*
X161370498Y-121022123D01*
X161370497Y-121022116D01*
X161364091Y-120962517D01*
X161347747Y-120918697D01*
X161313797Y-120827671D01*
X161313795Y-120827668D01*
X161236421Y-120724309D01*
X161212004Y-120658848D01*
X161226855Y-120590575D01*
X161236416Y-120575696D01*
X161313796Y-120472331D01*
X161364091Y-120337483D01*
X161370500Y-120277873D01*
X161370499Y-119444383D01*
X161370971Y-119433576D01*
X161375659Y-119380000D01*
X161375659Y-119379999D01*
X161370971Y-119326421D01*
X161370499Y-119315613D01*
X161370499Y-118482129D01*
X161370498Y-118482123D01*
X161370497Y-118482116D01*
X161364091Y-118422517D01*
X161338380Y-118353583D01*
X161313797Y-118287671D01*
X161313795Y-118287668D01*
X161296437Y-118264481D01*
X161236421Y-118184309D01*
X161212004Y-118118848D01*
X161226855Y-118050575D01*
X161236416Y-118035696D01*
X161313796Y-117932331D01*
X161364091Y-117797483D01*
X161370500Y-117737873D01*
X161370499Y-115942128D01*
X161364091Y-115882517D01*
X161322155Y-115770082D01*
X161313797Y-115747671D01*
X161313795Y-115747668D01*
X161236421Y-115644309D01*
X161212004Y-115578848D01*
X161226855Y-115510575D01*
X161236416Y-115495696D01*
X161313796Y-115392331D01*
X161364091Y-115257483D01*
X161370500Y-115197873D01*
X161370499Y-114364383D01*
X161370971Y-114353576D01*
X161375659Y-114300000D01*
X161375659Y-114299999D01*
X161370971Y-114246421D01*
X161370499Y-114235613D01*
X161370499Y-113402129D01*
X161370498Y-113402123D01*
X161370497Y-113402116D01*
X161364091Y-113342517D01*
X161313796Y-113207669D01*
X161236421Y-113104309D01*
X161212004Y-113038848D01*
X161226855Y-112970575D01*
X161236416Y-112955696D01*
X161313796Y-112852331D01*
X161364091Y-112717483D01*
X161370500Y-112657873D01*
X161370499Y-111824383D01*
X161370971Y-111813576D01*
X161375659Y-111760000D01*
X161375659Y-111759999D01*
X161370971Y-111706421D01*
X161370499Y-111695613D01*
X161370499Y-110862129D01*
X161370498Y-110862123D01*
X161370497Y-110862116D01*
X161364091Y-110802517D01*
X161313796Y-110667669D01*
X161236421Y-110564309D01*
X161212004Y-110498848D01*
X161226855Y-110430575D01*
X161236416Y-110415696D01*
X161313796Y-110312331D01*
X161364091Y-110177483D01*
X161370500Y-110117873D01*
X161370499Y-109284383D01*
X161370971Y-109273576D01*
X161375659Y-109220000D01*
X161375659Y-109219999D01*
X161370971Y-109166421D01*
X161370499Y-109155613D01*
X161370499Y-108322129D01*
X161370498Y-108322123D01*
X161370497Y-108322116D01*
X161364091Y-108262517D01*
X161313796Y-108127669D01*
X161236421Y-108024309D01*
X161212004Y-107958848D01*
X161226855Y-107890575D01*
X161236416Y-107875696D01*
X161313796Y-107772331D01*
X161364091Y-107637483D01*
X161370500Y-107577873D01*
X161370499Y-106744383D01*
X161370971Y-106733576D01*
X161375659Y-106680000D01*
X161375659Y-106679999D01*
X161370971Y-106626421D01*
X161370499Y-106615613D01*
X161370499Y-105782129D01*
X161370498Y-105782123D01*
X161370497Y-105782116D01*
X161364091Y-105722517D01*
X161313796Y-105587669D01*
X161236421Y-105484309D01*
X161212004Y-105418848D01*
X161226855Y-105350575D01*
X161236416Y-105335696D01*
X161313796Y-105232331D01*
X161364091Y-105097483D01*
X161370500Y-105037873D01*
X161370499Y-103242128D01*
X161364091Y-103182517D01*
X161359458Y-103170096D01*
X161313797Y-103047671D01*
X161313795Y-103047668D01*
X161295044Y-103022620D01*
X161236421Y-102944309D01*
X161212004Y-102878848D01*
X161226855Y-102810575D01*
X161236416Y-102795696D01*
X161313796Y-102692331D01*
X161364091Y-102557483D01*
X161370500Y-102497873D01*
X161370499Y-101664383D01*
X161370971Y-101653576D01*
X161375659Y-101600000D01*
X161375659Y-101599999D01*
X161370971Y-101546421D01*
X161370499Y-101535613D01*
X161370499Y-100702129D01*
X161370498Y-100702123D01*
X161370497Y-100702116D01*
X161364091Y-100642517D01*
X161355221Y-100618736D01*
X161313797Y-100507671D01*
X161313795Y-100507668D01*
X161295044Y-100482620D01*
X161236421Y-100404309D01*
X161212004Y-100338848D01*
X161226855Y-100270575D01*
X161236416Y-100255696D01*
X161313796Y-100152331D01*
X161364091Y-100017483D01*
X161370500Y-99957873D01*
X161370499Y-99124383D01*
X161370971Y-99113576D01*
X161375659Y-99060000D01*
X161375659Y-99059999D01*
X161370971Y-99006421D01*
X161370499Y-98995613D01*
X161370499Y-98514500D01*
X161390184Y-98447461D01*
X161442988Y-98401706D01*
X161494499Y-98390500D01*
X166283331Y-98390500D01*
X166283347Y-98390501D01*
X166290943Y-98390501D01*
X166449054Y-98390501D01*
X166449057Y-98390501D01*
X166601785Y-98349577D01*
X166651904Y-98320639D01*
X166738716Y-98270520D01*
X166850520Y-98158716D01*
X166850520Y-98158714D01*
X166860728Y-98148507D01*
X166860730Y-98148504D01*
X176235569Y-88773664D01*
X176296890Y-88740181D01*
X176366582Y-88745165D01*
X176422515Y-88787037D01*
X176446932Y-88852501D01*
X176446776Y-88872150D01*
X176444341Y-88899992D01*
X176444341Y-88900002D01*
X176449028Y-88953576D01*
X176449500Y-88964383D01*
X176449500Y-89797870D01*
X176449501Y-89797876D01*
X176455908Y-89857483D01*
X176506202Y-89992328D01*
X176506206Y-89992335D01*
X176583889Y-90096105D01*
X176608307Y-90161569D01*
X176593456Y-90229842D01*
X176583890Y-90244727D01*
X176506647Y-90347910D01*
X176506645Y-90347913D01*
X176456403Y-90482620D01*
X176456401Y-90482627D01*
X176450000Y-90542155D01*
X176450000Y-91190000D01*
X177355440Y-91190000D01*
X177324755Y-91243147D01*
X177290000Y-91372857D01*
X177290000Y-91507143D01*
X177324755Y-91636853D01*
X177355440Y-91690000D01*
X176450000Y-91690000D01*
X176450000Y-92337844D01*
X176456401Y-92397372D01*
X176456403Y-92397379D01*
X176506645Y-92532086D01*
X176506646Y-92532088D01*
X176583890Y-92635272D01*
X176608307Y-92700736D01*
X176593456Y-92769009D01*
X176583890Y-92783894D01*
X176506204Y-92887669D01*
X176506202Y-92887671D01*
X176455908Y-93022517D01*
X176449501Y-93082116D01*
X176449501Y-93082123D01*
X176449500Y-93082135D01*
X176449500Y-93915616D01*
X176449028Y-93926423D01*
X176444341Y-93979997D01*
X176444341Y-93980002D01*
X176449028Y-94033576D01*
X176449500Y-94044383D01*
X176449500Y-94877870D01*
X176449501Y-94877876D01*
X176455908Y-94937483D01*
X176506202Y-95072328D01*
X176506203Y-95072330D01*
X176506204Y-95072331D01*
X176583007Y-95174927D01*
X176583578Y-95175689D01*
X176607995Y-95241153D01*
X176593144Y-95309426D01*
X176583578Y-95324309D01*
X176575654Y-95334896D01*
X176506203Y-95427669D01*
X176506202Y-95427671D01*
X176455908Y-95562517D01*
X176449501Y-95622116D01*
X176449501Y-95622123D01*
X176449500Y-95622135D01*
X176449500Y-96455616D01*
X176449028Y-96466423D01*
X176444341Y-96519997D01*
X176444341Y-96520002D01*
X176449028Y-96573576D01*
X176449500Y-96584383D01*
X176449500Y-97417870D01*
X176449501Y-97417876D01*
X176455908Y-97477483D01*
X176506202Y-97612328D01*
X176506203Y-97612330D01*
X176523563Y-97635520D01*
X176583007Y-97714927D01*
X176583578Y-97715689D01*
X176607995Y-97781153D01*
X176593144Y-97849426D01*
X176583578Y-97864311D01*
X176506203Y-97967669D01*
X176506202Y-97967671D01*
X176455908Y-98102517D01*
X176450332Y-98154385D01*
X176449501Y-98162123D01*
X176449500Y-98162135D01*
X176449500Y-98995616D01*
X176449028Y-99006423D01*
X176444341Y-99059997D01*
X176444341Y-99060002D01*
X176449028Y-99113576D01*
X176449500Y-99124383D01*
X176449500Y-99957870D01*
X176449501Y-99957876D01*
X176455908Y-100017483D01*
X176506202Y-100152328D01*
X176506203Y-100152330D01*
X176523563Y-100175520D01*
X176583007Y-100254927D01*
X176583578Y-100255689D01*
X176607995Y-100321153D01*
X176593144Y-100389426D01*
X176583578Y-100404311D01*
X176506203Y-100507669D01*
X176506202Y-100507671D01*
X176455908Y-100642517D01*
X176449501Y-100702116D01*
X176449501Y-100702123D01*
X176449500Y-100702135D01*
X176449500Y-101535616D01*
X176449028Y-101546423D01*
X176444341Y-101599997D01*
X176444341Y-101600002D01*
X176449028Y-101653576D01*
X176449500Y-101664383D01*
X176449500Y-102497870D01*
X176449501Y-102497876D01*
X176455908Y-102557483D01*
X176506202Y-102692328D01*
X176506203Y-102692330D01*
X176506204Y-102692331D01*
X176583007Y-102794927D01*
X176583578Y-102795689D01*
X176607995Y-102861153D01*
X176593144Y-102929426D01*
X176583578Y-102944311D01*
X176506203Y-103047669D01*
X176506202Y-103047671D01*
X176455908Y-103182517D01*
X176449501Y-103242116D01*
X176449501Y-103242123D01*
X176449500Y-103242135D01*
X176449500Y-105037870D01*
X176449501Y-105037876D01*
X176455908Y-105097483D01*
X176506202Y-105232328D01*
X176506203Y-105232330D01*
X176583578Y-105335689D01*
X176607995Y-105401153D01*
X176593144Y-105469426D01*
X176583578Y-105484311D01*
X176506203Y-105587669D01*
X176506202Y-105587671D01*
X176455908Y-105722517D01*
X176449501Y-105782116D01*
X176449501Y-105782123D01*
X176449500Y-105782135D01*
X176449500Y-106615616D01*
X176449028Y-106626423D01*
X176444341Y-106679997D01*
X176444341Y-106680002D01*
X176449028Y-106733576D01*
X176449500Y-106744383D01*
X176449500Y-107577870D01*
X176449501Y-107577876D01*
X176455908Y-107637483D01*
X176506202Y-107772328D01*
X176506203Y-107772330D01*
X176583578Y-107875689D01*
X176607995Y-107941153D01*
X176593144Y-108009426D01*
X176583578Y-108024311D01*
X176506203Y-108127669D01*
X176506202Y-108127671D01*
X176455908Y-108262517D01*
X176449501Y-108322116D01*
X176449501Y-108322123D01*
X176449500Y-108322135D01*
X176449500Y-109155616D01*
X176449028Y-109166423D01*
X176444341Y-109219997D01*
X176444341Y-109220002D01*
X176449028Y-109273576D01*
X176449500Y-109284383D01*
X176449500Y-110117870D01*
X176449501Y-110117876D01*
X176455908Y-110177483D01*
X176506202Y-110312328D01*
X176506203Y-110312330D01*
X176583578Y-110415689D01*
X176607995Y-110481153D01*
X176593144Y-110549426D01*
X176583578Y-110564311D01*
X176506203Y-110667669D01*
X176506202Y-110667671D01*
X176455908Y-110802517D01*
X176449501Y-110862116D01*
X176449501Y-110862123D01*
X176449500Y-110862135D01*
X176449500Y-111695616D01*
X176449028Y-111706423D01*
X176444341Y-111759997D01*
X176444341Y-111760002D01*
X176449028Y-111813576D01*
X176449500Y-111824383D01*
X176449500Y-112657870D01*
X176449501Y-112657876D01*
X176455908Y-112717483D01*
X176506202Y-112852328D01*
X176506203Y-112852330D01*
X176583578Y-112955689D01*
X176607995Y-113021153D01*
X176593144Y-113089426D01*
X176583578Y-113104311D01*
X176506203Y-113207669D01*
X176506202Y-113207671D01*
X176455908Y-113342517D01*
X176449501Y-113402116D01*
X176449501Y-113402123D01*
X176449500Y-113402135D01*
X176449500Y-114235616D01*
X176449028Y-114246423D01*
X176444341Y-114299997D01*
X176444341Y-114300002D01*
X176449028Y-114353576D01*
X176449500Y-114364383D01*
X176449500Y-115197870D01*
X176449501Y-115197876D01*
X176455908Y-115257483D01*
X176506202Y-115392328D01*
X176506203Y-115392330D01*
X176583578Y-115495689D01*
X176607995Y-115561153D01*
X176593144Y-115629426D01*
X176583578Y-115644311D01*
X176506203Y-115747669D01*
X176506202Y-115747671D01*
X176455908Y-115882517D01*
X176449501Y-115942116D01*
X176449501Y-115942123D01*
X176449500Y-115942135D01*
X176449500Y-117737870D01*
X176449501Y-117737876D01*
X176455908Y-117797483D01*
X176506202Y-117932328D01*
X176506203Y-117932330D01*
X176583578Y-118035689D01*
X176607995Y-118101153D01*
X176593144Y-118169426D01*
X176583578Y-118184311D01*
X176506203Y-118287669D01*
X176506202Y-118287671D01*
X176455908Y-118422517D01*
X176450668Y-118471261D01*
X176449501Y-118482123D01*
X176449500Y-118482135D01*
X176449500Y-119315616D01*
X176449028Y-119326423D01*
X176444341Y-119379997D01*
X176444341Y-119380002D01*
X176449028Y-119433576D01*
X176449500Y-119444383D01*
X176449500Y-120277870D01*
X176449501Y-120277876D01*
X176455908Y-120337483D01*
X176506202Y-120472328D01*
X176506203Y-120472330D01*
X176583578Y-120575689D01*
X176607995Y-120641153D01*
X176593144Y-120709426D01*
X176583578Y-120724311D01*
X176506203Y-120827669D01*
X176506202Y-120827671D01*
X176455908Y-120962517D01*
X176449988Y-121017585D01*
X176449501Y-121022123D01*
X176449500Y-121022135D01*
X176449500Y-121855616D01*
X176449028Y-121866423D01*
X176444341Y-121919997D01*
X176444341Y-121920002D01*
X176449028Y-121973576D01*
X176449500Y-121984383D01*
X176449500Y-122817870D01*
X176449501Y-122817876D01*
X176455908Y-122877483D01*
X176506202Y-123012328D01*
X176506203Y-123012330D01*
X176583578Y-123115689D01*
X176607995Y-123181153D01*
X176593144Y-123249426D01*
X176583578Y-123264311D01*
X176506203Y-123367669D01*
X176506202Y-123367671D01*
X176455908Y-123502517D01*
X176450332Y-123554385D01*
X176449501Y-123562123D01*
X176449500Y-123562135D01*
X176449500Y-124395616D01*
X176449028Y-124406423D01*
X176444341Y-124459997D01*
X176444341Y-124460002D01*
X176449028Y-124513576D01*
X176449500Y-124524383D01*
X176449500Y-125357870D01*
X176449501Y-125357876D01*
X176455908Y-125417483D01*
X176506202Y-125552328D01*
X176506203Y-125552330D01*
X176583578Y-125655689D01*
X176607995Y-125721153D01*
X176593144Y-125789426D01*
X176583578Y-125804311D01*
X176506203Y-125907669D01*
X176506202Y-125907671D01*
X176455908Y-126042517D01*
X176449501Y-126102116D01*
X176449501Y-126102123D01*
X176449500Y-126102135D01*
X176449500Y-126935616D01*
X176449028Y-126946423D01*
X176444341Y-126999997D01*
X176444341Y-127000002D01*
X176449028Y-127053576D01*
X176449500Y-127064383D01*
X176449500Y-127897870D01*
X176449501Y-127897876D01*
X176455908Y-127957483D01*
X176506202Y-128092328D01*
X176506203Y-128092330D01*
X176583578Y-128195689D01*
X176607995Y-128261153D01*
X176593144Y-128329426D01*
X176583578Y-128344309D01*
X176583265Y-128344729D01*
X176506203Y-128447669D01*
X176506202Y-128447671D01*
X176455908Y-128582517D01*
X176449501Y-128642116D01*
X176449501Y-128642123D01*
X176449500Y-128642135D01*
X176449500Y-130437870D01*
X176449501Y-130437876D01*
X176455908Y-130497483D01*
X176506202Y-130632328D01*
X176506203Y-130632330D01*
X176583578Y-130735689D01*
X176607995Y-130801153D01*
X176593144Y-130869426D01*
X176583578Y-130884311D01*
X176506203Y-130987669D01*
X176506202Y-130987671D01*
X176455908Y-131122517D01*
X176449501Y-131182116D01*
X176449501Y-131182123D01*
X176449500Y-131182135D01*
X176449500Y-132015616D01*
X176449028Y-132026423D01*
X176444341Y-132079997D01*
X176444341Y-132080002D01*
X176449028Y-132133576D01*
X176449500Y-132144383D01*
X176449500Y-132977870D01*
X176449501Y-132977876D01*
X176455908Y-133037483D01*
X176506202Y-133172328D01*
X176506203Y-133172330D01*
X176583578Y-133275689D01*
X176607995Y-133341153D01*
X176593144Y-133409426D01*
X176583578Y-133424311D01*
X176506203Y-133527669D01*
X176506202Y-133527671D01*
X176455908Y-133662517D01*
X176449501Y-133722116D01*
X176449501Y-133722123D01*
X176449500Y-133722135D01*
X176449500Y-134555616D01*
X176449028Y-134566423D01*
X176444341Y-134619997D01*
X176444341Y-134620002D01*
X176449028Y-134673576D01*
X176449500Y-134684383D01*
X176449500Y-135517870D01*
X176449501Y-135517876D01*
X176455908Y-135577483D01*
X176506202Y-135712328D01*
X176506206Y-135712335D01*
X176592452Y-135827544D01*
X176592455Y-135827547D01*
X176707664Y-135913793D01*
X176707671Y-135913797D01*
X176842517Y-135964091D01*
X176842516Y-135964091D01*
X176849444Y-135964835D01*
X176902127Y-135970500D01*
X177735616Y-135970499D01*
X177746425Y-135970971D01*
X177800000Y-135975659D01*
X177853575Y-135970971D01*
X177864384Y-135970499D01*
X180497871Y-135970499D01*
X180497872Y-135970499D01*
X180557483Y-135964091D01*
X180692331Y-135913796D01*
X180807546Y-135827546D01*
X180893796Y-135712331D01*
X180944091Y-135577483D01*
X180950500Y-135517873D01*
X180950499Y-134498711D01*
X186744500Y-134498711D01*
X186744500Y-134741288D01*
X186776161Y-134981785D01*
X186838947Y-135216104D01*
X186931773Y-135440205D01*
X186931776Y-135440212D01*
X187053064Y-135650289D01*
X187053066Y-135650292D01*
X187053067Y-135650293D01*
X187200733Y-135842736D01*
X187200739Y-135842743D01*
X187372256Y-136014260D01*
X187372262Y-136014265D01*
X187564711Y-136161936D01*
X187774788Y-136283224D01*
X187998900Y-136376054D01*
X188233211Y-136438838D01*
X188413586Y-136462584D01*
X188473711Y-136470500D01*
X188473712Y-136470500D01*
X188716289Y-136470500D01*
X188764388Y-136464167D01*
X188956789Y-136438838D01*
X189191100Y-136376054D01*
X189415212Y-136283224D01*
X189625289Y-136161936D01*
X189817738Y-136014265D01*
X189989265Y-135842738D01*
X190136936Y-135650289D01*
X190258224Y-135440212D01*
X190351054Y-135216100D01*
X190413838Y-134981789D01*
X190445500Y-134741288D01*
X190445500Y-134498712D01*
X190413838Y-134258211D01*
X190351054Y-134023900D01*
X190258224Y-133799788D01*
X190136936Y-133589711D01*
X190010021Y-133424312D01*
X189989266Y-133397263D01*
X189989260Y-133397256D01*
X189817743Y-133225739D01*
X189817736Y-133225733D01*
X189625293Y-133078067D01*
X189625292Y-133078066D01*
X189625289Y-133078064D01*
X189451748Y-132977870D01*
X189415214Y-132956777D01*
X189415205Y-132956773D01*
X189191104Y-132863947D01*
X188956785Y-132801161D01*
X188716289Y-132769500D01*
X188716288Y-132769500D01*
X188473712Y-132769500D01*
X188473711Y-132769500D01*
X188233214Y-132801161D01*
X187998895Y-132863947D01*
X187774794Y-132956773D01*
X187774785Y-132956777D01*
X187564706Y-133078067D01*
X187372263Y-133225733D01*
X187372256Y-133225739D01*
X187200739Y-133397256D01*
X187200733Y-133397263D01*
X187053067Y-133589706D01*
X186931777Y-133799785D01*
X186931773Y-133799794D01*
X186838947Y-134023895D01*
X186776161Y-134258214D01*
X186744500Y-134498711D01*
X180950499Y-134498711D01*
X180950499Y-133722128D01*
X180944091Y-133662517D01*
X180916934Y-133589706D01*
X180893797Y-133527671D01*
X180893795Y-133527668D01*
X180867195Y-133492135D01*
X180816421Y-133424309D01*
X180792004Y-133358848D01*
X180806855Y-133290575D01*
X180816416Y-133275696D01*
X180893796Y-133172331D01*
X180944091Y-133037483D01*
X180950500Y-132977873D01*
X180950499Y-131182128D01*
X180944091Y-131122517D01*
X180924527Y-131070064D01*
X180893797Y-130987671D01*
X180893795Y-130987668D01*
X180854701Y-130935445D01*
X180816421Y-130884309D01*
X180792004Y-130818848D01*
X180806855Y-130750575D01*
X180816416Y-130735696D01*
X180893796Y-130632331D01*
X180944091Y-130497483D01*
X180950500Y-130437873D01*
X180950499Y-128642128D01*
X180944091Y-128582517D01*
X180939458Y-128570096D01*
X180893797Y-128447671D01*
X180893795Y-128447668D01*
X180816421Y-128344309D01*
X180792004Y-128278848D01*
X180806855Y-128210575D01*
X180816416Y-128195696D01*
X180893796Y-128092331D01*
X180944091Y-127957483D01*
X180950500Y-127897873D01*
X180950499Y-126102128D01*
X180944091Y-126042517D01*
X180893796Y-125907669D01*
X180816421Y-125804309D01*
X180792004Y-125738848D01*
X180806855Y-125670575D01*
X180816416Y-125655696D01*
X180893796Y-125552331D01*
X180944091Y-125417483D01*
X180950500Y-125357873D01*
X180950499Y-123562128D01*
X180944091Y-123502517D01*
X180893796Y-123367669D01*
X180816421Y-123264309D01*
X180792004Y-123198848D01*
X180806855Y-123130575D01*
X180816416Y-123115696D01*
X180893796Y-123012331D01*
X180944091Y-122877483D01*
X180950500Y-122817873D01*
X180950499Y-121022128D01*
X180944091Y-120962517D01*
X180927747Y-120918697D01*
X180893797Y-120827671D01*
X180893795Y-120827668D01*
X180816421Y-120724309D01*
X180792004Y-120658848D01*
X180806855Y-120590575D01*
X180816416Y-120575696D01*
X180893796Y-120472331D01*
X180944091Y-120337483D01*
X180950500Y-120277873D01*
X180950499Y-118482128D01*
X180944091Y-118422517D01*
X180918380Y-118353583D01*
X180893797Y-118287671D01*
X180893795Y-118287668D01*
X180876437Y-118264481D01*
X180816421Y-118184309D01*
X180792004Y-118118848D01*
X180806855Y-118050575D01*
X180816416Y-118035696D01*
X180893796Y-117932331D01*
X180944091Y-117797483D01*
X180950500Y-117737873D01*
X180950499Y-115942128D01*
X180944091Y-115882517D01*
X180902155Y-115770082D01*
X180893797Y-115747671D01*
X180893795Y-115747668D01*
X180816421Y-115644309D01*
X180792004Y-115578848D01*
X180806855Y-115510575D01*
X180816416Y-115495696D01*
X180893796Y-115392331D01*
X180944091Y-115257483D01*
X180950500Y-115197873D01*
X180950499Y-113402128D01*
X180944091Y-113342517D01*
X180893796Y-113207669D01*
X180816421Y-113104309D01*
X180792004Y-113038848D01*
X180806855Y-112970575D01*
X180816416Y-112955696D01*
X180893796Y-112852331D01*
X180944091Y-112717483D01*
X180950500Y-112657873D01*
X180950499Y-110862128D01*
X180944091Y-110802517D01*
X180893796Y-110667669D01*
X180816421Y-110564309D01*
X180792004Y-110498848D01*
X180806855Y-110430575D01*
X180816416Y-110415696D01*
X180893796Y-110312331D01*
X180944091Y-110177483D01*
X180950500Y-110117873D01*
X180950499Y-108322128D01*
X180944091Y-108262517D01*
X180893796Y-108127669D01*
X180816421Y-108024309D01*
X180792004Y-107958848D01*
X180806855Y-107890575D01*
X180816416Y-107875696D01*
X180893796Y-107772331D01*
X180944091Y-107637483D01*
X180950500Y-107577873D01*
X180950499Y-105782128D01*
X180944091Y-105722517D01*
X180893796Y-105587669D01*
X180816421Y-105484309D01*
X180792004Y-105418848D01*
X180806855Y-105350575D01*
X180816416Y-105335696D01*
X180893796Y-105232331D01*
X180944091Y-105097483D01*
X180950500Y-105037873D01*
X180950499Y-103242128D01*
X180944091Y-103182517D01*
X180939458Y-103170096D01*
X180893797Y-103047671D01*
X180893795Y-103047668D01*
X180875044Y-103022620D01*
X180816421Y-102944309D01*
X180792004Y-102878848D01*
X180806855Y-102810575D01*
X180816416Y-102795696D01*
X180893796Y-102692331D01*
X180944091Y-102557483D01*
X180950500Y-102497873D01*
X180950499Y-100702128D01*
X180944091Y-100642517D01*
X180935221Y-100618736D01*
X180893797Y-100507671D01*
X180893795Y-100507668D01*
X180875044Y-100482620D01*
X180816421Y-100404309D01*
X180792004Y-100338848D01*
X180806855Y-100270575D01*
X180816416Y-100255696D01*
X180893796Y-100152331D01*
X180944091Y-100017483D01*
X180950500Y-99957873D01*
X180950499Y-98162128D01*
X180944091Y-98102517D01*
X180926848Y-98056287D01*
X180893797Y-97967671D01*
X180893795Y-97967668D01*
X180877502Y-97945903D01*
X180816421Y-97864309D01*
X180792004Y-97798848D01*
X180806855Y-97730575D01*
X180816416Y-97715696D01*
X180893796Y-97612331D01*
X180944091Y-97477483D01*
X180950500Y-97417873D01*
X180950499Y-95622128D01*
X180944091Y-95562517D01*
X180926847Y-95516284D01*
X180893797Y-95427671D01*
X180893795Y-95427668D01*
X180816421Y-95324309D01*
X180792004Y-95258848D01*
X180806855Y-95190575D01*
X180816416Y-95175696D01*
X180893796Y-95072331D01*
X180944091Y-94937483D01*
X180950500Y-94877873D01*
X180950499Y-93082128D01*
X180944091Y-93022517D01*
X180929483Y-92983352D01*
X180893797Y-92887671D01*
X180893795Y-92887668D01*
X180823261Y-92793447D01*
X180816109Y-92783893D01*
X180791692Y-92718430D01*
X180806543Y-92650157D01*
X180816110Y-92635271D01*
X180893352Y-92532089D01*
X180893354Y-92532086D01*
X180943596Y-92397379D01*
X180943598Y-92397372D01*
X180949999Y-92337844D01*
X180950000Y-92337827D01*
X180950000Y-91690000D01*
X178244560Y-91690000D01*
X178275245Y-91636853D01*
X178310000Y-91507143D01*
X178310000Y-91372857D01*
X178275245Y-91243147D01*
X178244560Y-91190000D01*
X180950000Y-91190000D01*
X180950000Y-90542172D01*
X180949999Y-90542155D01*
X180943598Y-90482627D01*
X180943596Y-90482620D01*
X180893354Y-90347913D01*
X180893352Y-90347910D01*
X180816110Y-90244729D01*
X180791692Y-90179265D01*
X180806543Y-90110992D01*
X180816105Y-90096111D01*
X180893796Y-89992331D01*
X180944091Y-89857483D01*
X180950500Y-89797873D01*
X180950499Y-88143711D01*
X186744500Y-88143711D01*
X186744500Y-88386288D01*
X186776161Y-88626785D01*
X186838947Y-88861104D01*
X186881727Y-88964383D01*
X186931776Y-89085212D01*
X187053064Y-89295289D01*
X187053066Y-89295292D01*
X187053067Y-89295293D01*
X187200733Y-89487736D01*
X187200739Y-89487743D01*
X187372256Y-89659260D01*
X187372262Y-89659265D01*
X187564711Y-89806936D01*
X187774788Y-89928224D01*
X187998900Y-90021054D01*
X188233211Y-90083838D01*
X188413294Y-90107546D01*
X188473711Y-90115500D01*
X188473712Y-90115500D01*
X188716289Y-90115500D01*
X188764388Y-90109167D01*
X188956789Y-90083838D01*
X189191100Y-90021054D01*
X189415212Y-89928224D01*
X189625289Y-89806936D01*
X189817738Y-89659265D01*
X189989265Y-89487738D01*
X190136936Y-89295289D01*
X190258224Y-89085212D01*
X190351054Y-88861100D01*
X190413838Y-88626789D01*
X190445500Y-88386288D01*
X190445500Y-88143712D01*
X190413838Y-87903211D01*
X190351054Y-87668900D01*
X190350047Y-87666470D01*
X190331277Y-87621153D01*
X190258224Y-87444788D01*
X190136936Y-87234711D01*
X189989265Y-87042262D01*
X189989260Y-87042256D01*
X189817743Y-86870739D01*
X189817736Y-86870733D01*
X189625293Y-86723067D01*
X189625292Y-86723066D01*
X189625289Y-86723064D01*
X189415212Y-86601776D01*
X189415205Y-86601773D01*
X189191104Y-86508947D01*
X188956785Y-86446161D01*
X188716289Y-86414500D01*
X188716288Y-86414500D01*
X188473712Y-86414500D01*
X188473711Y-86414500D01*
X188233214Y-86446161D01*
X187998895Y-86508947D01*
X187774794Y-86601773D01*
X187774785Y-86601777D01*
X187592851Y-86706817D01*
X187567753Y-86721308D01*
X187564706Y-86723067D01*
X187372263Y-86870733D01*
X187372256Y-86870739D01*
X187200739Y-87042256D01*
X187200733Y-87042263D01*
X187053067Y-87234706D01*
X186931777Y-87444785D01*
X186931773Y-87444794D01*
X186838947Y-87668895D01*
X186776161Y-87903214D01*
X186744500Y-88143711D01*
X180950499Y-88143711D01*
X180950499Y-88002128D01*
X180944091Y-87942517D01*
X180893796Y-87807669D01*
X180816421Y-87704309D01*
X180792004Y-87638848D01*
X180806855Y-87570575D01*
X180816416Y-87555696D01*
X180893796Y-87452331D01*
X180944091Y-87317483D01*
X180950500Y-87257873D01*
X180950499Y-85462128D01*
X180945299Y-85413757D01*
X180944091Y-85402516D01*
X180893797Y-85267671D01*
X180893793Y-85267664D01*
X180808562Y-85153811D01*
X180784144Y-85088347D01*
X180798995Y-85020074D01*
X180848400Y-84970668D01*
X180907828Y-84955500D01*
X189339108Y-84955500D01*
X189401249Y-84955500D01*
X189408736Y-84955726D01*
X189698796Y-84973271D01*
X189713657Y-84975075D01*
X189995798Y-85026780D01*
X190010335Y-85030363D01*
X190284172Y-85115695D01*
X190298163Y-85121000D01*
X190559743Y-85238727D01*
X190572989Y-85245680D01*
X190818465Y-85394075D01*
X190830776Y-85402573D01*
X190906793Y-85462128D01*
X191056573Y-85579473D01*
X191067781Y-85589403D01*
X191270596Y-85792218D01*
X191280526Y-85803426D01*
X191400481Y-85956538D01*
X191457422Y-86029217D01*
X191465928Y-86041540D01*
X191614316Y-86287004D01*
X191621275Y-86300263D01*
X191738997Y-86561831D01*
X191744306Y-86575832D01*
X191829635Y-86849663D01*
X191833219Y-86864201D01*
X191884923Y-87146340D01*
X191886728Y-87161205D01*
X191904274Y-87451263D01*
X191904500Y-87458750D01*
X191904500Y-135426249D01*
X191904274Y-135433736D01*
X191886728Y-135723794D01*
X191884923Y-135738659D01*
X191833219Y-136020798D01*
X191829635Y-136035336D01*
X191744306Y-136309167D01*
X191738997Y-136323168D01*
X191621275Y-136584736D01*
X191614316Y-136597995D01*
X191465928Y-136843459D01*
X191457422Y-136855782D01*
X191280526Y-137081573D01*
X191270596Y-137092781D01*
X191067781Y-137295596D01*
X191056573Y-137305526D01*
X190830782Y-137482422D01*
X190818459Y-137490928D01*
X190572995Y-137639316D01*
X190559736Y-137646275D01*
X190298168Y-137763997D01*
X190284167Y-137769306D01*
X190010336Y-137854635D01*
X189995798Y-137858219D01*
X189713659Y-137909923D01*
X189698794Y-137911728D01*
X189408736Y-137929274D01*
X189401249Y-137929500D01*
X133813751Y-137929500D01*
X133806264Y-137929274D01*
X133516205Y-137911728D01*
X133501340Y-137909923D01*
X133219201Y-137858219D01*
X133204663Y-137854635D01*
X132930832Y-137769306D01*
X132916831Y-137763997D01*
X132655263Y-137646275D01*
X132642004Y-137639316D01*
X132478539Y-137540498D01*
X132396537Y-137490926D01*
X132384217Y-137482422D01*
X132158426Y-137305526D01*
X132147218Y-137295596D01*
X131944403Y-137092781D01*
X131934473Y-137081573D01*
X131757573Y-136855776D01*
X131749075Y-136843465D01*
X131600680Y-136597989D01*
X131593727Y-136584743D01*
X131476000Y-136323163D01*
X131470693Y-136309167D01*
X131462609Y-136283226D01*
X131385363Y-136035335D01*
X131381780Y-136020798D01*
X131330076Y-135738659D01*
X131328271Y-135723794D01*
X131327577Y-135712328D01*
X131310726Y-135433736D01*
X131310500Y-135426249D01*
X131310500Y-134498711D01*
X132769500Y-134498711D01*
X132769500Y-134741288D01*
X132801161Y-134981785D01*
X132863947Y-135216104D01*
X132956773Y-135440205D01*
X132956776Y-135440212D01*
X133078064Y-135650289D01*
X133078066Y-135650292D01*
X133078067Y-135650293D01*
X133225733Y-135842736D01*
X133225739Y-135842743D01*
X133397256Y-136014260D01*
X133397262Y-136014265D01*
X133589711Y-136161936D01*
X133799788Y-136283224D01*
X134023900Y-136376054D01*
X134258211Y-136438838D01*
X134438586Y-136462584D01*
X134498711Y-136470500D01*
X134498712Y-136470500D01*
X134741289Y-136470500D01*
X134789388Y-136464167D01*
X134981789Y-136438838D01*
X135216100Y-136376054D01*
X135440212Y-136283224D01*
X135650289Y-136161936D01*
X135842738Y-136014265D01*
X136014265Y-135842738D01*
X136161936Y-135650289D01*
X136283224Y-135440212D01*
X136376054Y-135216100D01*
X136438838Y-134981789D01*
X136470500Y-134741288D01*
X136470500Y-134498712D01*
X136438838Y-134258211D01*
X136376054Y-134023900D01*
X136283224Y-133799788D01*
X136161936Y-133589711D01*
X136035021Y-133424312D01*
X136014266Y-133397263D01*
X136014260Y-133397256D01*
X135842743Y-133225739D01*
X135842736Y-133225733D01*
X135650293Y-133078067D01*
X135650292Y-133078066D01*
X135650289Y-133078064D01*
X135476748Y-132977870D01*
X135440214Y-132956777D01*
X135440205Y-132956773D01*
X135216104Y-132863947D01*
X134981785Y-132801161D01*
X134741289Y-132769500D01*
X134741288Y-132769500D01*
X134498712Y-132769500D01*
X134498711Y-132769500D01*
X134258214Y-132801161D01*
X134023895Y-132863947D01*
X133799794Y-132956773D01*
X133799785Y-132956777D01*
X133589706Y-133078067D01*
X133397263Y-133225733D01*
X133397256Y-133225739D01*
X133225739Y-133397256D01*
X133225733Y-133397263D01*
X133078067Y-133589706D01*
X132956777Y-133799785D01*
X132956773Y-133799794D01*
X132863947Y-134023895D01*
X132801161Y-134258214D01*
X132769500Y-134498711D01*
X131310500Y-134498711D01*
X131310500Y-131357844D01*
X139970000Y-131357844D01*
X139976401Y-131417372D01*
X139976403Y-131417379D01*
X140026645Y-131552086D01*
X140026649Y-131552093D01*
X140112809Y-131667187D01*
X140112812Y-131667190D01*
X140227906Y-131753350D01*
X140227913Y-131753354D01*
X140362620Y-131803596D01*
X140362627Y-131803598D01*
X140422155Y-131809999D01*
X140422172Y-131810000D01*
X140720000Y-131810000D01*
X140720000Y-131060000D01*
X139970000Y-131060000D01*
X139970000Y-131357844D01*
X131310500Y-131357844D01*
X131310500Y-130262155D01*
X139970000Y-130262155D01*
X139970000Y-130560000D01*
X140720000Y-130560000D01*
X140720000Y-129810000D01*
X140422155Y-129810000D01*
X140362627Y-129816401D01*
X140362620Y-129816403D01*
X140227913Y-129866645D01*
X140227906Y-129866649D01*
X140112812Y-129952809D01*
X140112809Y-129952812D01*
X140026649Y-130067906D01*
X140026645Y-130067913D01*
X139976403Y-130202620D01*
X139976401Y-130202627D01*
X139970000Y-130262155D01*
X131310500Y-130262155D01*
X131310500Y-93094998D01*
X139877704Y-93094998D01*
X139877705Y-93095000D01*
X141150000Y-93095000D01*
X141650000Y-93095000D01*
X142922295Y-93095000D01*
X142922295Y-93094998D01*
X142922100Y-93092513D01*
X142876281Y-92934801D01*
X142792685Y-92793447D01*
X142792678Y-92793438D01*
X142676561Y-92677321D01*
X142676552Y-92677314D01*
X142535196Y-92593717D01*
X142535193Y-92593716D01*
X142377495Y-92547900D01*
X142377489Y-92547899D01*
X142340649Y-92545000D01*
X141650000Y-92545000D01*
X141650000Y-93095000D01*
X141150000Y-93095000D01*
X141150000Y-92545000D01*
X140459350Y-92545000D01*
X140422510Y-92547899D01*
X140422504Y-92547900D01*
X140264806Y-92593716D01*
X140264803Y-92593717D01*
X140123447Y-92677314D01*
X140123438Y-92677321D01*
X140007321Y-92793438D01*
X140007314Y-92793447D01*
X139923718Y-92934801D01*
X139877899Y-93092513D01*
X139877704Y-93094998D01*
X131310500Y-93094998D01*
X131310500Y-88143711D01*
X132769500Y-88143711D01*
X132769500Y-88386288D01*
X132801161Y-88626785D01*
X132863947Y-88861104D01*
X132906727Y-88964383D01*
X132956776Y-89085212D01*
X133078064Y-89295289D01*
X133078066Y-89295292D01*
X133078067Y-89295293D01*
X133225733Y-89487736D01*
X133225739Y-89487743D01*
X133397256Y-89659260D01*
X133397262Y-89659265D01*
X133589711Y-89806936D01*
X133799788Y-89928224D01*
X134023900Y-90021054D01*
X134258211Y-90083838D01*
X134438294Y-90107546D01*
X134498711Y-90115500D01*
X134498712Y-90115500D01*
X134741289Y-90115500D01*
X134789388Y-90109167D01*
X134981789Y-90083838D01*
X135216100Y-90021054D01*
X135440212Y-89928224D01*
X135650289Y-89806936D01*
X135842738Y-89659265D01*
X136014265Y-89487738D01*
X136161936Y-89295289D01*
X136283224Y-89085212D01*
X136376054Y-88861100D01*
X136438838Y-88626789D01*
X136470500Y-88386288D01*
X136470500Y-88143712D01*
X136438838Y-87903211D01*
X136376054Y-87668900D01*
X136375047Y-87666470D01*
X136356277Y-87621153D01*
X136283224Y-87444788D01*
X136161936Y-87234711D01*
X136014265Y-87042262D01*
X136014260Y-87042256D01*
X135842743Y-86870739D01*
X135842736Y-86870733D01*
X135650293Y-86723067D01*
X135650292Y-86723066D01*
X135650289Y-86723064D01*
X135440212Y-86601776D01*
X135440205Y-86601773D01*
X135216104Y-86508947D01*
X134981785Y-86446161D01*
X134741289Y-86414500D01*
X134741288Y-86414500D01*
X134498712Y-86414500D01*
X134498711Y-86414500D01*
X134258214Y-86446161D01*
X134023895Y-86508947D01*
X133799794Y-86601773D01*
X133799785Y-86601777D01*
X133617851Y-86706817D01*
X133592753Y-86721308D01*
X133589706Y-86723067D01*
X133397263Y-86870733D01*
X133397256Y-86870739D01*
X133225739Y-87042256D01*
X133225733Y-87042263D01*
X133078067Y-87234706D01*
X132956777Y-87444785D01*
X132956773Y-87444794D01*
X132863947Y-87668895D01*
X132801161Y-87903214D01*
X132769500Y-88143711D01*
X131310500Y-88143711D01*
X131310500Y-87458750D01*
X131310726Y-87451263D01*
X131314486Y-87389108D01*
X131328271Y-87161201D01*
X131330076Y-87146340D01*
X131350849Y-87032989D01*
X131381780Y-86864197D01*
X131385364Y-86849663D01*
X131425362Y-86721305D01*
X131470696Y-86575822D01*
X131475998Y-86561841D01*
X131593731Y-86300249D01*
X131600676Y-86287016D01*
X131749080Y-86041526D01*
X131757567Y-86029230D01*
X131934480Y-85803417D01*
X131944395Y-85792226D01*
X132147226Y-85589395D01*
X132158417Y-85579480D01*
X132384230Y-85402567D01*
X132396526Y-85394080D01*
X132642016Y-85245676D01*
X132655249Y-85238731D01*
X132916841Y-85120998D01*
X132930822Y-85115696D01*
X133204668Y-85030362D01*
X133219197Y-85026780D01*
X133501344Y-84975075D01*
X133516201Y-84973271D01*
X133806264Y-84955726D01*
X133813751Y-84955500D01*
X133875892Y-84955500D01*
X156912172Y-84955500D01*
X156979211Y-84975185D01*
G37*
%TD.AperFunction*%
%TA.AperFunction,Conductor*%
G36*
X146003834Y-100692914D02*
G01*
X146059767Y-100734786D01*
X146084184Y-100800250D01*
X146084500Y-100809096D01*
X146084500Y-118265902D01*
X146064815Y-118332941D01*
X146012011Y-118378696D01*
X145942853Y-118388640D01*
X145879297Y-118359615D01*
X145872819Y-118353583D01*
X143289318Y-115770082D01*
X143255833Y-115708759D01*
X143252999Y-115682401D01*
X143252999Y-115069998D01*
X143252998Y-115069981D01*
X143242499Y-114967203D01*
X143242498Y-114967200D01*
X143187314Y-114800666D01*
X143095212Y-114651344D01*
X142971156Y-114527288D01*
X142821834Y-114435186D01*
X142655297Y-114380001D01*
X142655295Y-114380000D01*
X142552510Y-114369500D01*
X141927498Y-114369500D01*
X141927480Y-114369501D01*
X141824703Y-114380000D01*
X141824700Y-114380001D01*
X141658168Y-114435185D01*
X141658163Y-114435187D01*
X141508842Y-114527289D01*
X141415181Y-114620951D01*
X141353858Y-114654436D01*
X141284166Y-114649452D01*
X141239819Y-114620951D01*
X141146157Y-114527289D01*
X141146156Y-114527288D01*
X140996834Y-114435186D01*
X140830297Y-114380001D01*
X140830295Y-114380000D01*
X140727516Y-114369500D01*
X140727509Y-114369500D01*
X140424500Y-114369500D01*
X140357461Y-114349815D01*
X140311706Y-114297011D01*
X140300500Y-114245500D01*
X140300500Y-105696640D01*
X140320185Y-105629601D01*
X140372989Y-105583846D01*
X140434230Y-105573022D01*
X140459355Y-105574999D01*
X140459366Y-105575000D01*
X141150000Y-105575000D01*
X141650000Y-105575000D01*
X142340634Y-105575000D01*
X142340649Y-105574999D01*
X142377489Y-105572100D01*
X142377495Y-105572099D01*
X142535193Y-105526283D01*
X142535196Y-105526282D01*
X142676552Y-105442685D01*
X142676561Y-105442678D01*
X142792678Y-105326561D01*
X142792685Y-105326552D01*
X142876281Y-105185198D01*
X142922100Y-105027486D01*
X142922295Y-105025001D01*
X142922295Y-105025000D01*
X141650000Y-105025000D01*
X141650000Y-105575000D01*
X141150000Y-105575000D01*
X141150000Y-104649000D01*
X141169685Y-104581961D01*
X141222489Y-104536206D01*
X141274000Y-104525000D01*
X142922295Y-104525000D01*
X142922295Y-104524998D01*
X142922100Y-104522513D01*
X142876281Y-104364801D01*
X142792685Y-104223447D01*
X142787900Y-104217278D01*
X142790366Y-104215364D01*
X142763802Y-104166776D01*
X142768749Y-104097082D01*
X142789856Y-104064232D01*
X142788301Y-104063026D01*
X142793077Y-104056868D01*
X142793081Y-104056865D01*
X142876744Y-103915398D01*
X142922598Y-103757569D01*
X142925500Y-103720694D01*
X142925500Y-103289306D01*
X142922598Y-103252431D01*
X142919604Y-103242127D01*
X142879200Y-103103057D01*
X142876744Y-103094602D01*
X142859771Y-103065902D01*
X142834175Y-103022620D01*
X142816992Y-102954896D01*
X142839152Y-102888634D01*
X142893619Y-102844871D01*
X142940907Y-102835500D01*
X143423331Y-102835500D01*
X143423347Y-102835501D01*
X143430943Y-102835501D01*
X143589054Y-102835501D01*
X143589057Y-102835501D01*
X143741785Y-102794577D01*
X143809433Y-102755520D01*
X143878716Y-102715520D01*
X143990520Y-102603716D01*
X143990520Y-102603714D01*
X144000724Y-102593511D01*
X144000727Y-102593506D01*
X145872820Y-100721413D01*
X145934142Y-100687930D01*
X146003834Y-100692914D01*
G37*
%TD.AperFunction*%
%TA.AperFunction,Conductor*%
G36*
X149093834Y-93157915D02*
G01*
X149149767Y-93199787D01*
X149174184Y-93265251D01*
X149174500Y-93274097D01*
X149174500Y-93560701D01*
X149177401Y-93597567D01*
X149177402Y-93597573D01*
X149223254Y-93755393D01*
X149223255Y-93755396D01*
X149306917Y-93896862D01*
X149311702Y-93903031D01*
X149309369Y-93904840D01*
X149336210Y-93953995D01*
X149331226Y-94023687D01*
X149310470Y-94056021D01*
X149312097Y-94057283D01*
X149307313Y-94063449D01*
X149223718Y-94204801D01*
X149177899Y-94362513D01*
X149177704Y-94364998D01*
X149177705Y-94365000D01*
X150826000Y-94365000D01*
X150893039Y-94384685D01*
X150938794Y-94437489D01*
X150950000Y-94489000D01*
X150950000Y-94741000D01*
X150930315Y-94808039D01*
X150877511Y-94853794D01*
X150826000Y-94865000D01*
X149177705Y-94865000D01*
X149177704Y-94865001D01*
X149177899Y-94867486D01*
X149223718Y-95025198D01*
X149307314Y-95166552D01*
X149312100Y-95172722D01*
X149309640Y-95174629D01*
X149336210Y-95223288D01*
X149331226Y-95292980D01*
X149310162Y-95325781D01*
X149311699Y-95326974D01*
X149306915Y-95333140D01*
X149223255Y-95474603D01*
X149223254Y-95474606D01*
X149177402Y-95632426D01*
X149177401Y-95632432D01*
X149174500Y-95669298D01*
X149174500Y-95669903D01*
X149174473Y-95669993D01*
X149174405Y-95671734D01*
X149174309Y-95671730D01*
X149174309Y-95671733D01*
X149174238Y-95671727D01*
X149173967Y-95671716D01*
X149154815Y-95736942D01*
X149138181Y-95757584D01*
X146862181Y-98033584D01*
X146800858Y-98067069D01*
X146731166Y-98062085D01*
X146675233Y-98020213D01*
X146650816Y-97954749D01*
X146650500Y-97945903D01*
X146650500Y-95550097D01*
X146670185Y-95483058D01*
X146686819Y-95462416D01*
X148962819Y-93186416D01*
X149024142Y-93152931D01*
X149093834Y-93157915D01*
G37*
%TD.AperFunction*%
%TD*%
D20*
X133810000Y-84455000D02*
X189405000Y-84455000D01*
X189405000Y-84455000D02*
G75*
G02*
X192405000Y-87455000I0J-3000000D01*
G01*
X133810000Y-138430000D02*
G75*
G02*
X130810000Y-135430000I0J3000000D01*
G01*
X130810000Y-135430000D02*
X130810000Y-87455000D01*
X192405000Y-135430000D02*
G75*
G02*
X189405000Y-138430000I-3000000J0D01*
G01*
X189405000Y-138430000D02*
X133810000Y-138430000D01*
X192405000Y-87455000D02*
X192405000Y-135430000D01*
X130810000Y-87455000D02*
G75*
G02*
X133810000Y-84455000I3000000J0D01*
G01*
M02*
