%TF.GenerationSoftware,KiCad,Pcbnew,8.0.3-8.0.3-0~ubuntu22.04.1*%
%TF.CreationDate,2025-12-31T16:49:29+00:00*%
%TF.ProjectId,pixelpusher,70697865-6c70-4757-9368-65722e6b6963,rev?*%
%TF.SameCoordinates,Original*%
%TF.FileFunction,Legend,Top*%
%TF.FilePolarity,Positive*%
%FSLAX46Y46*%
G04 Gerber Fmt 4.6, Leading zero omitted, Abs format (unit mm)*
G04 Created by KiCad (PCBNEW 8.0.3-8.0.3-0~ubuntu22.04.1) date 2025-12-31 16:49:29*
%MOMM*%
%LPD*%
G01*
G04 APERTURE LIST*
G04 Aperture macros list*
%AMRoundRect*
0 Rectangle with rounded corners*
0 $1 Rounding radius*
0 $2 $3 $4 $5 $6 $7 $8 $9 X,Y pos of 4 corners*
0 Add a 4 corners polygon primitive as box body*
4,1,4,$2,$3,$4,$5,$6,$7,$8,$9,$2,$3,0*
0 Add four circle primitives for the rounded corners*
1,1,$1+$1,$2,$3*
1,1,$1+$1,$4,$5*
1,1,$1+$1,$6,$7*
1,1,$1+$1,$8,$9*
0 Add four rect primitives between the rounded corners*
20,1,$1+$1,$2,$3,$4,$5,0*
20,1,$1+$1,$4,$5,$6,$7,0*
20,1,$1+$1,$6,$7,$8,$9,0*
20,1,$1+$1,$8,$9,$2,$3,0*%
G04 Aperture macros list end*
%ADD10C,0.150000*%
%ADD11C,0.120000*%
%ADD12RoundRect,0.250000X-0.262500X-0.450000X0.262500X-0.450000X0.262500X0.450000X-0.262500X0.450000X0*%
%ADD13C,3.200000*%
%ADD14O,1.800000X1.800000*%
%ADD15O,1.500000X1.500000*%
%ADD16O,1.700000X1.700000*%
%ADD17R,3.500000X1.700000*%
%ADD18R,1.700000X1.700000*%
%ADD19R,1.700000X3.500000*%
%ADD20RoundRect,0.150000X-0.875000X-0.150000X0.875000X-0.150000X0.875000X0.150000X-0.875000X0.150000X0*%
%ADD21R,1.000000X1.000000*%
%ADD22O,1.000000X1.000000*%
%TA.AperFunction,Profile*%
%ADD23C,0.050000*%
%TD*%
G04 APERTURE END LIST*
D10*
X152590833Y-123644819D02*
X152257500Y-123168628D01*
X152019405Y-123644819D02*
X152019405Y-122644819D01*
X152019405Y-122644819D02*
X152400357Y-122644819D01*
X152400357Y-122644819D02*
X152495595Y-122692438D01*
X152495595Y-122692438D02*
X152543214Y-122740057D01*
X152543214Y-122740057D02*
X152590833Y-122835295D01*
X152590833Y-122835295D02*
X152590833Y-122978152D01*
X152590833Y-122978152D02*
X152543214Y-123073390D01*
X152543214Y-123073390D02*
X152495595Y-123121009D01*
X152495595Y-123121009D02*
X152400357Y-123168628D01*
X152400357Y-123168628D02*
X152019405Y-123168628D01*
X153543214Y-123644819D02*
X152971786Y-123644819D01*
X153257500Y-123644819D02*
X153257500Y-122644819D01*
X153257500Y-122644819D02*
X153162262Y-122787676D01*
X153162262Y-122787676D02*
X153067024Y-122882914D01*
X153067024Y-122882914D02*
X152971786Y-122930533D01*
X138263333Y-118524819D02*
X137930000Y-118048628D01*
X137691905Y-118524819D02*
X137691905Y-117524819D01*
X137691905Y-117524819D02*
X138072857Y-117524819D01*
X138072857Y-117524819D02*
X138168095Y-117572438D01*
X138168095Y-117572438D02*
X138215714Y-117620057D01*
X138215714Y-117620057D02*
X138263333Y-117715295D01*
X138263333Y-117715295D02*
X138263333Y-117858152D01*
X138263333Y-117858152D02*
X138215714Y-117953390D01*
X138215714Y-117953390D02*
X138168095Y-118001009D01*
X138168095Y-118001009D02*
X138072857Y-118048628D01*
X138072857Y-118048628D02*
X137691905Y-118048628D01*
X138596667Y-117524819D02*
X139263333Y-117524819D01*
X139263333Y-117524819D02*
X138834762Y-118524819D01*
X138263333Y-121064819D02*
X137930000Y-120588628D01*
X137691905Y-121064819D02*
X137691905Y-120064819D01*
X137691905Y-120064819D02*
X138072857Y-120064819D01*
X138072857Y-120064819D02*
X138168095Y-120112438D01*
X138168095Y-120112438D02*
X138215714Y-120160057D01*
X138215714Y-120160057D02*
X138263333Y-120255295D01*
X138263333Y-120255295D02*
X138263333Y-120398152D01*
X138263333Y-120398152D02*
X138215714Y-120493390D01*
X138215714Y-120493390D02*
X138168095Y-120541009D01*
X138168095Y-120541009D02*
X138072857Y-120588628D01*
X138072857Y-120588628D02*
X137691905Y-120588628D01*
X139120476Y-120064819D02*
X138930000Y-120064819D01*
X138930000Y-120064819D02*
X138834762Y-120112438D01*
X138834762Y-120112438D02*
X138787143Y-120160057D01*
X138787143Y-120160057D02*
X138691905Y-120302914D01*
X138691905Y-120302914D02*
X138644286Y-120493390D01*
X138644286Y-120493390D02*
X138644286Y-120874342D01*
X138644286Y-120874342D02*
X138691905Y-120969580D01*
X138691905Y-120969580D02*
X138739524Y-121017200D01*
X138739524Y-121017200D02*
X138834762Y-121064819D01*
X138834762Y-121064819D02*
X139025238Y-121064819D01*
X139025238Y-121064819D02*
X139120476Y-121017200D01*
X139120476Y-121017200D02*
X139168095Y-120969580D01*
X139168095Y-120969580D02*
X139215714Y-120874342D01*
X139215714Y-120874342D02*
X139215714Y-120636247D01*
X139215714Y-120636247D02*
X139168095Y-120541009D01*
X139168095Y-120541009D02*
X139120476Y-120493390D01*
X139120476Y-120493390D02*
X139025238Y-120445771D01*
X139025238Y-120445771D02*
X138834762Y-120445771D01*
X138834762Y-120445771D02*
X138739524Y-120493390D01*
X138739524Y-120493390D02*
X138691905Y-120541009D01*
X138691905Y-120541009D02*
X138644286Y-120636247D01*
X152590833Y-121104819D02*
X152257500Y-120628628D01*
X152019405Y-121104819D02*
X152019405Y-120104819D01*
X152019405Y-120104819D02*
X152400357Y-120104819D01*
X152400357Y-120104819D02*
X152495595Y-120152438D01*
X152495595Y-120152438D02*
X152543214Y-120200057D01*
X152543214Y-120200057D02*
X152590833Y-120295295D01*
X152590833Y-120295295D02*
X152590833Y-120438152D01*
X152590833Y-120438152D02*
X152543214Y-120533390D01*
X152543214Y-120533390D02*
X152495595Y-120581009D01*
X152495595Y-120581009D02*
X152400357Y-120628628D01*
X152400357Y-120628628D02*
X152019405Y-120628628D01*
X152971786Y-120200057D02*
X153019405Y-120152438D01*
X153019405Y-120152438D02*
X153114643Y-120104819D01*
X153114643Y-120104819D02*
X153352738Y-120104819D01*
X153352738Y-120104819D02*
X153447976Y-120152438D01*
X153447976Y-120152438D02*
X153495595Y-120200057D01*
X153495595Y-120200057D02*
X153543214Y-120295295D01*
X153543214Y-120295295D02*
X153543214Y-120390533D01*
X153543214Y-120390533D02*
X153495595Y-120533390D01*
X153495595Y-120533390D02*
X152924167Y-121104819D01*
X152924167Y-121104819D02*
X153543214Y-121104819D01*
X138263333Y-123604819D02*
X137930000Y-123128628D01*
X137691905Y-123604819D02*
X137691905Y-122604819D01*
X137691905Y-122604819D02*
X138072857Y-122604819D01*
X138072857Y-122604819D02*
X138168095Y-122652438D01*
X138168095Y-122652438D02*
X138215714Y-122700057D01*
X138215714Y-122700057D02*
X138263333Y-122795295D01*
X138263333Y-122795295D02*
X138263333Y-122938152D01*
X138263333Y-122938152D02*
X138215714Y-123033390D01*
X138215714Y-123033390D02*
X138168095Y-123081009D01*
X138168095Y-123081009D02*
X138072857Y-123128628D01*
X138072857Y-123128628D02*
X137691905Y-123128628D01*
X139168095Y-122604819D02*
X138691905Y-122604819D01*
X138691905Y-122604819D02*
X138644286Y-123081009D01*
X138644286Y-123081009D02*
X138691905Y-123033390D01*
X138691905Y-123033390D02*
X138787143Y-122985771D01*
X138787143Y-122985771D02*
X139025238Y-122985771D01*
X139025238Y-122985771D02*
X139120476Y-123033390D01*
X139120476Y-123033390D02*
X139168095Y-123081009D01*
X139168095Y-123081009D02*
X139215714Y-123176247D01*
X139215714Y-123176247D02*
X139215714Y-123414342D01*
X139215714Y-123414342D02*
X139168095Y-123509580D01*
X139168095Y-123509580D02*
X139120476Y-123557200D01*
X139120476Y-123557200D02*
X139025238Y-123604819D01*
X139025238Y-123604819D02*
X138787143Y-123604819D01*
X138787143Y-123604819D02*
X138691905Y-123557200D01*
X138691905Y-123557200D02*
X138644286Y-123509580D01*
X168148095Y-109944819D02*
X168148095Y-110754342D01*
X168148095Y-110754342D02*
X168195714Y-110849580D01*
X168195714Y-110849580D02*
X168243333Y-110897200D01*
X168243333Y-110897200D02*
X168338571Y-110944819D01*
X168338571Y-110944819D02*
X168529047Y-110944819D01*
X168529047Y-110944819D02*
X168624285Y-110897200D01*
X168624285Y-110897200D02*
X168671904Y-110849580D01*
X168671904Y-110849580D02*
X168719523Y-110754342D01*
X168719523Y-110754342D02*
X168719523Y-109944819D01*
X169719523Y-110944819D02*
X169148095Y-110944819D01*
X169433809Y-110944819D02*
X169433809Y-109944819D01*
X169433809Y-109944819D02*
X169338571Y-110087676D01*
X169338571Y-110087676D02*
X169243333Y-110182914D01*
X169243333Y-110182914D02*
X169148095Y-110230533D01*
X155323372Y-94101494D02*
X155242560Y-94128431D01*
X155242560Y-94128431D02*
X155161748Y-94209243D01*
X155161748Y-94209243D02*
X155107873Y-94316993D01*
X155107873Y-94316993D02*
X155107873Y-94424742D01*
X155107873Y-94424742D02*
X155134810Y-94505555D01*
X155134810Y-94505555D02*
X155215623Y-94640242D01*
X155215623Y-94640242D02*
X155296435Y-94721054D01*
X155296435Y-94721054D02*
X155431122Y-94801866D01*
X155431122Y-94801866D02*
X155511934Y-94828803D01*
X155511934Y-94828803D02*
X155619684Y-94828803D01*
X155619684Y-94828803D02*
X155727433Y-94774929D01*
X155727433Y-94774929D02*
X155781308Y-94721054D01*
X155781308Y-94721054D02*
X155835183Y-94613304D01*
X155835183Y-94613304D02*
X155835183Y-94559429D01*
X155835183Y-94559429D02*
X155646621Y-94370868D01*
X155646621Y-94370868D02*
X155538871Y-94478617D01*
X156131494Y-94370868D02*
X155565809Y-93805182D01*
X155565809Y-93805182D02*
X155781308Y-93589683D01*
X155781308Y-93589683D02*
X155862120Y-93562746D01*
X155862120Y-93562746D02*
X155915995Y-93562746D01*
X155915995Y-93562746D02*
X155996807Y-93589683D01*
X155996807Y-93589683D02*
X156077619Y-93670495D01*
X156077619Y-93670495D02*
X156104557Y-93751307D01*
X156104557Y-93751307D02*
X156104557Y-93805182D01*
X156104557Y-93805182D02*
X156077619Y-93885994D01*
X156077619Y-93885994D02*
X155862120Y-94101494D01*
X156158432Y-93320309D02*
X156158432Y-93266434D01*
X156158432Y-93266434D02*
X156185369Y-93185622D01*
X156185369Y-93185622D02*
X156320056Y-93050935D01*
X156320056Y-93050935D02*
X156400868Y-93023998D01*
X156400868Y-93023998D02*
X156454743Y-93023998D01*
X156454743Y-93023998D02*
X156535555Y-93050935D01*
X156535555Y-93050935D02*
X156589430Y-93104810D01*
X156589430Y-93104810D02*
X156643305Y-93212559D01*
X156643305Y-93212559D02*
X156643305Y-93859057D01*
X156643305Y-93859057D02*
X156993491Y-93508871D01*
X180830749Y-89560242D02*
X181584996Y-89937366D01*
X181584996Y-89937366D02*
X181207873Y-89183118D01*
X181908245Y-89560242D02*
X182015995Y-89506367D01*
X182015995Y-89506367D02*
X182150682Y-89371680D01*
X182150682Y-89371680D02*
X182177619Y-89290868D01*
X182177619Y-89290868D02*
X182177619Y-89236993D01*
X182177619Y-89236993D02*
X182150682Y-89156181D01*
X182150682Y-89156181D02*
X182096807Y-89102306D01*
X182096807Y-89102306D02*
X182015995Y-89075369D01*
X182015995Y-89075369D02*
X181962120Y-89075369D01*
X181962120Y-89075369D02*
X181881308Y-89102306D01*
X181881308Y-89102306D02*
X181746621Y-89183118D01*
X181746621Y-89183118D02*
X181665808Y-89210056D01*
X181665808Y-89210056D02*
X181611934Y-89210056D01*
X181611934Y-89210056D02*
X181531121Y-89183118D01*
X181531121Y-89183118D02*
X181477247Y-89129244D01*
X181477247Y-89129244D02*
X181450309Y-89048431D01*
X181450309Y-89048431D02*
X181450309Y-88994557D01*
X181450309Y-88994557D02*
X181477247Y-88913744D01*
X181477247Y-88913744D02*
X181611934Y-88779057D01*
X181611934Y-88779057D02*
X181719683Y-88725183D01*
X182339244Y-88644370D02*
X182608618Y-88913744D01*
X181854370Y-88536621D02*
X182339244Y-88644370D01*
X182339244Y-88644370D02*
X182231494Y-88159497D01*
X182931866Y-88536621D02*
X183039616Y-88482746D01*
X183039616Y-88482746D02*
X183174303Y-88348059D01*
X183174303Y-88348059D02*
X183201240Y-88267247D01*
X183201240Y-88267247D02*
X183201240Y-88213372D01*
X183201240Y-88213372D02*
X183174303Y-88132560D01*
X183174303Y-88132560D02*
X183120428Y-88078685D01*
X183120428Y-88078685D02*
X183039616Y-88051748D01*
X183039616Y-88051748D02*
X182985741Y-88051748D01*
X182985741Y-88051748D02*
X182904929Y-88078685D01*
X182904929Y-88078685D02*
X182770242Y-88159497D01*
X182770242Y-88159497D02*
X182689430Y-88186435D01*
X182689430Y-88186435D02*
X182635555Y-88186435D01*
X182635555Y-88186435D02*
X182554743Y-88159497D01*
X182554743Y-88159497D02*
X182500868Y-88105622D01*
X182500868Y-88105622D02*
X182473930Y-88024810D01*
X182473930Y-88024810D02*
X182473930Y-87970935D01*
X182473930Y-87970935D02*
X182500868Y-87890123D01*
X182500868Y-87890123D02*
X182635555Y-87755436D01*
X182635555Y-87755436D02*
X182743304Y-87701561D01*
X180996435Y-91588431D02*
X180915623Y-91615368D01*
X180915623Y-91615368D02*
X180834811Y-91696180D01*
X180834811Y-91696180D02*
X180780936Y-91803930D01*
X180780936Y-91803930D02*
X180780936Y-91911680D01*
X180780936Y-91911680D02*
X180807873Y-91992492D01*
X180807873Y-91992492D02*
X180888685Y-92127179D01*
X180888685Y-92127179D02*
X180969498Y-92207991D01*
X180969498Y-92207991D02*
X181104185Y-92288803D01*
X181104185Y-92288803D02*
X181184997Y-92315741D01*
X181184997Y-92315741D02*
X181292746Y-92315741D01*
X181292746Y-92315741D02*
X181400496Y-92261866D01*
X181400496Y-92261866D02*
X181454371Y-92207991D01*
X181454371Y-92207991D02*
X181508246Y-92100241D01*
X181508246Y-92100241D02*
X181508246Y-92046367D01*
X181508246Y-92046367D02*
X181319684Y-91857805D01*
X181319684Y-91857805D02*
X181211934Y-91965554D01*
X181804557Y-91857805D02*
X181238872Y-91292119D01*
X181238872Y-91292119D02*
X182127806Y-91534556D01*
X182127806Y-91534556D02*
X181562120Y-90968871D01*
X182397180Y-91265182D02*
X181831494Y-90699497D01*
X181831494Y-90699497D02*
X181966181Y-90564810D01*
X181966181Y-90564810D02*
X182073931Y-90510935D01*
X182073931Y-90510935D02*
X182181680Y-90510935D01*
X182181680Y-90510935D02*
X182262493Y-90537872D01*
X182262493Y-90537872D02*
X182397180Y-90618685D01*
X182397180Y-90618685D02*
X182477992Y-90699497D01*
X182477992Y-90699497D02*
X182558804Y-90834184D01*
X182558804Y-90834184D02*
X182585741Y-90914996D01*
X182585741Y-90914996D02*
X182585741Y-91022746D01*
X182585741Y-91022746D02*
X182531867Y-91130495D01*
X182531867Y-91130495D02*
X182397180Y-91265182D01*
X181007998Y-101736868D02*
X180927185Y-101763805D01*
X180927185Y-101763805D02*
X180846373Y-101844618D01*
X180846373Y-101844618D02*
X180792498Y-101952367D01*
X180792498Y-101952367D02*
X180792498Y-102060117D01*
X180792498Y-102060117D02*
X180819436Y-102140929D01*
X180819436Y-102140929D02*
X180900248Y-102275616D01*
X180900248Y-102275616D02*
X180981060Y-102356428D01*
X180981060Y-102356428D02*
X181115747Y-102437241D01*
X181115747Y-102437241D02*
X181196560Y-102464178D01*
X181196560Y-102464178D02*
X181304309Y-102464178D01*
X181304309Y-102464178D02*
X181412059Y-102410303D01*
X181412059Y-102410303D02*
X181465934Y-102356428D01*
X181465934Y-102356428D02*
X181519808Y-102248679D01*
X181519808Y-102248679D02*
X181519808Y-102194804D01*
X181519808Y-102194804D02*
X181331247Y-102006242D01*
X181331247Y-102006242D02*
X181223497Y-102113992D01*
X181816120Y-102006242D02*
X181250434Y-101440557D01*
X181250434Y-101440557D02*
X181465934Y-101225057D01*
X181465934Y-101225057D02*
X181546746Y-101198120D01*
X181546746Y-101198120D02*
X181600621Y-101198120D01*
X181600621Y-101198120D02*
X181681433Y-101225057D01*
X181681433Y-101225057D02*
X181762245Y-101305870D01*
X181762245Y-101305870D02*
X181789182Y-101386682D01*
X181789182Y-101386682D02*
X181789182Y-101440557D01*
X181789182Y-101440557D02*
X181762245Y-101521369D01*
X181762245Y-101521369D02*
X181546746Y-101736868D01*
X181843057Y-100955683D02*
X181843057Y-100901809D01*
X181843057Y-100901809D02*
X181869995Y-100820996D01*
X181869995Y-100820996D02*
X182004682Y-100686309D01*
X182004682Y-100686309D02*
X182085494Y-100659372D01*
X182085494Y-100659372D02*
X182139369Y-100659372D01*
X182139369Y-100659372D02*
X182220181Y-100686309D01*
X182220181Y-100686309D02*
X182274056Y-100740184D01*
X182274056Y-100740184D02*
X182327930Y-100847934D01*
X182327930Y-100847934D02*
X182327930Y-101494431D01*
X182327930Y-101494431D02*
X182678117Y-101144245D01*
X182678117Y-100497747D02*
X182597305Y-100524685D01*
X182597305Y-100524685D02*
X182543430Y-100524685D01*
X182543430Y-100524685D02*
X182462618Y-100497747D01*
X182462618Y-100497747D02*
X182435680Y-100470810D01*
X182435680Y-100470810D02*
X182408743Y-100389998D01*
X182408743Y-100389998D02*
X182408743Y-100336123D01*
X182408743Y-100336123D02*
X182435680Y-100255311D01*
X182435680Y-100255311D02*
X182543430Y-100147561D01*
X182543430Y-100147561D02*
X182624242Y-100120624D01*
X182624242Y-100120624D02*
X182678117Y-100120624D01*
X182678117Y-100120624D02*
X182758929Y-100147561D01*
X182758929Y-100147561D02*
X182785866Y-100174499D01*
X182785866Y-100174499D02*
X182812804Y-100255311D01*
X182812804Y-100255311D02*
X182812804Y-100309186D01*
X182812804Y-100309186D02*
X182785866Y-100389998D01*
X182785866Y-100389998D02*
X182678117Y-100497747D01*
X182678117Y-100497747D02*
X182651179Y-100578560D01*
X182651179Y-100578560D02*
X182651179Y-100632434D01*
X182651179Y-100632434D02*
X182678117Y-100713247D01*
X182678117Y-100713247D02*
X182785866Y-100820996D01*
X182785866Y-100820996D02*
X182866679Y-100847934D01*
X182866679Y-100847934D02*
X182920553Y-100847934D01*
X182920553Y-100847934D02*
X183001366Y-100820996D01*
X183001366Y-100820996D02*
X183109115Y-100713247D01*
X183109115Y-100713247D02*
X183136053Y-100632434D01*
X183136053Y-100632434D02*
X183136053Y-100578560D01*
X183136053Y-100578560D02*
X183109115Y-100497747D01*
X183109115Y-100497747D02*
X183001366Y-100389998D01*
X183001366Y-100389998D02*
X182920553Y-100363060D01*
X182920553Y-100363060D02*
X182866679Y-100363060D01*
X182866679Y-100363060D02*
X182785866Y-100389998D01*
X155423372Y-99181494D02*
X155342560Y-99208431D01*
X155342560Y-99208431D02*
X155261748Y-99289243D01*
X155261748Y-99289243D02*
X155207873Y-99396993D01*
X155207873Y-99396993D02*
X155207873Y-99504742D01*
X155207873Y-99504742D02*
X155234810Y-99585555D01*
X155234810Y-99585555D02*
X155315623Y-99720242D01*
X155315623Y-99720242D02*
X155396435Y-99801054D01*
X155396435Y-99801054D02*
X155531122Y-99881866D01*
X155531122Y-99881866D02*
X155611934Y-99908803D01*
X155611934Y-99908803D02*
X155719684Y-99908803D01*
X155719684Y-99908803D02*
X155827433Y-99854929D01*
X155827433Y-99854929D02*
X155881308Y-99801054D01*
X155881308Y-99801054D02*
X155935183Y-99693304D01*
X155935183Y-99693304D02*
X155935183Y-99639429D01*
X155935183Y-99639429D02*
X155746621Y-99450868D01*
X155746621Y-99450868D02*
X155638871Y-99558617D01*
X156231494Y-99450868D02*
X155665809Y-98885182D01*
X155665809Y-98885182D02*
X155881308Y-98669683D01*
X155881308Y-98669683D02*
X155962120Y-98642746D01*
X155962120Y-98642746D02*
X156015995Y-98642746D01*
X156015995Y-98642746D02*
X156096807Y-98669683D01*
X156096807Y-98669683D02*
X156177619Y-98750495D01*
X156177619Y-98750495D02*
X156204557Y-98831307D01*
X156204557Y-98831307D02*
X156204557Y-98885182D01*
X156204557Y-98885182D02*
X156177619Y-98965994D01*
X156177619Y-98965994D02*
X155962120Y-99181494D01*
X156662493Y-98265622D02*
X157039616Y-98642746D01*
X156312306Y-98184810D02*
X156581680Y-98723558D01*
X156581680Y-98723558D02*
X156931867Y-98373372D01*
X172814761Y-137014200D02*
X172929047Y-137052295D01*
X172929047Y-137052295D02*
X173119523Y-137052295D01*
X173119523Y-137052295D02*
X173195714Y-137014200D01*
X173195714Y-137014200D02*
X173233809Y-136976104D01*
X173233809Y-136976104D02*
X173271904Y-136899914D01*
X173271904Y-136899914D02*
X173271904Y-136823723D01*
X173271904Y-136823723D02*
X173233809Y-136747533D01*
X173233809Y-136747533D02*
X173195714Y-136709438D01*
X173195714Y-136709438D02*
X173119523Y-136671342D01*
X173119523Y-136671342D02*
X172967142Y-136633247D01*
X172967142Y-136633247D02*
X172890952Y-136595152D01*
X172890952Y-136595152D02*
X172852857Y-136557057D01*
X172852857Y-136557057D02*
X172814761Y-136480866D01*
X172814761Y-136480866D02*
X172814761Y-136404676D01*
X172814761Y-136404676D02*
X172852857Y-136328485D01*
X172852857Y-136328485D02*
X172890952Y-136290390D01*
X172890952Y-136290390D02*
X172967142Y-136252295D01*
X172967142Y-136252295D02*
X173157619Y-136252295D01*
X173157619Y-136252295D02*
X173271904Y-136290390D01*
X173538571Y-136252295D02*
X173729047Y-137052295D01*
X173729047Y-137052295D02*
X173881428Y-136480866D01*
X173881428Y-136480866D02*
X174033809Y-137052295D01*
X174033809Y-137052295D02*
X174224286Y-136252295D01*
X174529048Y-137052295D02*
X174529048Y-136252295D01*
X174529048Y-136252295D02*
X174719524Y-136252295D01*
X174719524Y-136252295D02*
X174833810Y-136290390D01*
X174833810Y-136290390D02*
X174910000Y-136366580D01*
X174910000Y-136366580D02*
X174948095Y-136442771D01*
X174948095Y-136442771D02*
X174986191Y-136595152D01*
X174986191Y-136595152D02*
X174986191Y-136709438D01*
X174986191Y-136709438D02*
X174948095Y-136861819D01*
X174948095Y-136861819D02*
X174910000Y-136938009D01*
X174910000Y-136938009D02*
X174833810Y-137014200D01*
X174833810Y-137014200D02*
X174719524Y-137052295D01*
X174719524Y-137052295D02*
X174529048Y-137052295D01*
X175329048Y-137052295D02*
X175329048Y-136252295D01*
X175862381Y-136252295D02*
X176014762Y-136252295D01*
X176014762Y-136252295D02*
X176090952Y-136290390D01*
X176090952Y-136290390D02*
X176167143Y-136366580D01*
X176167143Y-136366580D02*
X176205238Y-136518961D01*
X176205238Y-136518961D02*
X176205238Y-136785628D01*
X176205238Y-136785628D02*
X176167143Y-136938009D01*
X176167143Y-136938009D02*
X176090952Y-137014200D01*
X176090952Y-137014200D02*
X176014762Y-137052295D01*
X176014762Y-137052295D02*
X175862381Y-137052295D01*
X175862381Y-137052295D02*
X175786190Y-137014200D01*
X175786190Y-137014200D02*
X175710000Y-136938009D01*
X175710000Y-136938009D02*
X175671904Y-136785628D01*
X175671904Y-136785628D02*
X175671904Y-136518961D01*
X175671904Y-136518961D02*
X175710000Y-136366580D01*
X175710000Y-136366580D02*
X175786190Y-136290390D01*
X175786190Y-136290390D02*
X175862381Y-136252295D01*
X155396435Y-91588431D02*
X155315623Y-91615368D01*
X155315623Y-91615368D02*
X155234811Y-91696180D01*
X155234811Y-91696180D02*
X155180936Y-91803930D01*
X155180936Y-91803930D02*
X155180936Y-91911680D01*
X155180936Y-91911680D02*
X155207873Y-91992492D01*
X155207873Y-91992492D02*
X155288685Y-92127179D01*
X155288685Y-92127179D02*
X155369498Y-92207991D01*
X155369498Y-92207991D02*
X155504185Y-92288803D01*
X155504185Y-92288803D02*
X155584997Y-92315741D01*
X155584997Y-92315741D02*
X155692746Y-92315741D01*
X155692746Y-92315741D02*
X155800496Y-92261866D01*
X155800496Y-92261866D02*
X155854371Y-92207991D01*
X155854371Y-92207991D02*
X155908246Y-92100241D01*
X155908246Y-92100241D02*
X155908246Y-92046367D01*
X155908246Y-92046367D02*
X155719684Y-91857805D01*
X155719684Y-91857805D02*
X155611934Y-91965554D01*
X156204557Y-91857805D02*
X155638872Y-91292119D01*
X155638872Y-91292119D02*
X156527806Y-91534556D01*
X156527806Y-91534556D02*
X155962120Y-90968871D01*
X156797180Y-91265182D02*
X156231494Y-90699497D01*
X156231494Y-90699497D02*
X156366181Y-90564810D01*
X156366181Y-90564810D02*
X156473931Y-90510935D01*
X156473931Y-90510935D02*
X156581680Y-90510935D01*
X156581680Y-90510935D02*
X156662493Y-90537872D01*
X156662493Y-90537872D02*
X156797180Y-90618685D01*
X156797180Y-90618685D02*
X156877992Y-90699497D01*
X156877992Y-90699497D02*
X156958804Y-90834184D01*
X156958804Y-90834184D02*
X156985741Y-90914996D01*
X156985741Y-90914996D02*
X156985741Y-91022746D01*
X156985741Y-91022746D02*
X156931867Y-91130495D01*
X156931867Y-91130495D02*
X156797180Y-91265182D01*
X181007998Y-124850868D02*
X180927185Y-124877805D01*
X180927185Y-124877805D02*
X180846373Y-124958618D01*
X180846373Y-124958618D02*
X180792498Y-125066367D01*
X180792498Y-125066367D02*
X180792498Y-125174117D01*
X180792498Y-125174117D02*
X180819436Y-125254929D01*
X180819436Y-125254929D02*
X180900248Y-125389616D01*
X180900248Y-125389616D02*
X180981060Y-125470428D01*
X180981060Y-125470428D02*
X181115747Y-125551241D01*
X181115747Y-125551241D02*
X181196560Y-125578178D01*
X181196560Y-125578178D02*
X181304309Y-125578178D01*
X181304309Y-125578178D02*
X181412059Y-125524303D01*
X181412059Y-125524303D02*
X181465934Y-125470428D01*
X181465934Y-125470428D02*
X181519808Y-125362679D01*
X181519808Y-125362679D02*
X181519808Y-125308804D01*
X181519808Y-125308804D02*
X181331247Y-125120242D01*
X181331247Y-125120242D02*
X181223497Y-125227992D01*
X181816120Y-125120242D02*
X181250434Y-124554557D01*
X181250434Y-124554557D02*
X181465934Y-124339057D01*
X181465934Y-124339057D02*
X181546746Y-124312120D01*
X181546746Y-124312120D02*
X181600621Y-124312120D01*
X181600621Y-124312120D02*
X181681433Y-124339057D01*
X181681433Y-124339057D02*
X181762245Y-124419870D01*
X181762245Y-124419870D02*
X181789182Y-124500682D01*
X181789182Y-124500682D02*
X181789182Y-124554557D01*
X181789182Y-124554557D02*
X181762245Y-124635369D01*
X181762245Y-124635369D02*
X181546746Y-124850868D01*
X182678117Y-124258245D02*
X182354868Y-124581494D01*
X182516492Y-124419870D02*
X181950807Y-123854184D01*
X181950807Y-123854184D02*
X181977744Y-123988871D01*
X181977744Y-123988871D02*
X181977744Y-124096621D01*
X181977744Y-124096621D02*
X181950807Y-124177433D01*
X182947491Y-123988871D02*
X183055240Y-123881121D01*
X183055240Y-123881121D02*
X183082178Y-123800309D01*
X183082178Y-123800309D02*
X183082178Y-123746434D01*
X183082178Y-123746434D02*
X183055240Y-123611747D01*
X183055240Y-123611747D02*
X182974428Y-123477060D01*
X182974428Y-123477060D02*
X182758929Y-123261561D01*
X182758929Y-123261561D02*
X182678117Y-123234624D01*
X182678117Y-123234624D02*
X182624242Y-123234624D01*
X182624242Y-123234624D02*
X182543430Y-123261561D01*
X182543430Y-123261561D02*
X182435680Y-123369311D01*
X182435680Y-123369311D02*
X182408743Y-123450123D01*
X182408743Y-123450123D02*
X182408743Y-123503998D01*
X182408743Y-123503998D02*
X182435680Y-123584810D01*
X182435680Y-123584810D02*
X182570367Y-123719497D01*
X182570367Y-123719497D02*
X182651179Y-123746434D01*
X182651179Y-123746434D02*
X182705054Y-123746434D01*
X182705054Y-123746434D02*
X182785866Y-123719497D01*
X182785866Y-123719497D02*
X182893616Y-123611747D01*
X182893616Y-123611747D02*
X182920553Y-123530935D01*
X182920553Y-123530935D02*
X182920553Y-123477060D01*
X182920553Y-123477060D02*
X182893616Y-123396248D01*
X180800123Y-96980868D02*
X181150309Y-96630682D01*
X181150309Y-96630682D02*
X181177247Y-97034743D01*
X181177247Y-97034743D02*
X181258059Y-96953931D01*
X181258059Y-96953931D02*
X181338871Y-96926993D01*
X181338871Y-96926993D02*
X181392746Y-96926993D01*
X181392746Y-96926993D02*
X181473558Y-96953931D01*
X181473558Y-96953931D02*
X181608245Y-97088618D01*
X181608245Y-97088618D02*
X181635182Y-97169430D01*
X181635182Y-97169430D02*
X181635182Y-97223305D01*
X181635182Y-97223305D02*
X181608245Y-97304117D01*
X181608245Y-97304117D02*
X181446621Y-97465741D01*
X181446621Y-97465741D02*
X181365808Y-97492679D01*
X181365808Y-97492679D02*
X181311934Y-97492679D01*
X181311934Y-96469057D02*
X182066181Y-96846181D01*
X182066181Y-96846181D02*
X181689057Y-96091934D01*
X181823744Y-95957247D02*
X182173930Y-95607061D01*
X182173930Y-95607061D02*
X182200868Y-96011122D01*
X182200868Y-96011122D02*
X182281680Y-95930309D01*
X182281680Y-95930309D02*
X182362492Y-95903372D01*
X182362492Y-95903372D02*
X182416367Y-95903372D01*
X182416367Y-95903372D02*
X182497179Y-95930309D01*
X182497179Y-95930309D02*
X182631866Y-96064996D01*
X182631866Y-96064996D02*
X182658804Y-96145809D01*
X182658804Y-96145809D02*
X182658804Y-96199683D01*
X182658804Y-96199683D02*
X182631866Y-96280496D01*
X182631866Y-96280496D02*
X182470242Y-96442120D01*
X182470242Y-96442120D02*
X182389430Y-96469057D01*
X182389430Y-96469057D02*
X182335555Y-96469057D01*
X181007998Y-122310868D02*
X180927185Y-122337805D01*
X180927185Y-122337805D02*
X180846373Y-122418618D01*
X180846373Y-122418618D02*
X180792498Y-122526367D01*
X180792498Y-122526367D02*
X180792498Y-122634117D01*
X180792498Y-122634117D02*
X180819436Y-122714929D01*
X180819436Y-122714929D02*
X180900248Y-122849616D01*
X180900248Y-122849616D02*
X180981060Y-122930428D01*
X180981060Y-122930428D02*
X181115747Y-123011241D01*
X181115747Y-123011241D02*
X181196560Y-123038178D01*
X181196560Y-123038178D02*
X181304309Y-123038178D01*
X181304309Y-123038178D02*
X181412059Y-122984303D01*
X181412059Y-122984303D02*
X181465934Y-122930428D01*
X181465934Y-122930428D02*
X181519808Y-122822679D01*
X181519808Y-122822679D02*
X181519808Y-122768804D01*
X181519808Y-122768804D02*
X181331247Y-122580242D01*
X181331247Y-122580242D02*
X181223497Y-122687992D01*
X181816120Y-122580242D02*
X181250434Y-122014557D01*
X181250434Y-122014557D02*
X181465934Y-121799057D01*
X181465934Y-121799057D02*
X181546746Y-121772120D01*
X181546746Y-121772120D02*
X181600621Y-121772120D01*
X181600621Y-121772120D02*
X181681433Y-121799057D01*
X181681433Y-121799057D02*
X181762245Y-121879870D01*
X181762245Y-121879870D02*
X181789182Y-121960682D01*
X181789182Y-121960682D02*
X181789182Y-122014557D01*
X181789182Y-122014557D02*
X181762245Y-122095369D01*
X181762245Y-122095369D02*
X181546746Y-122310868D01*
X181843057Y-121529683D02*
X181843057Y-121475809D01*
X181843057Y-121475809D02*
X181869995Y-121394996D01*
X181869995Y-121394996D02*
X182004682Y-121260309D01*
X182004682Y-121260309D02*
X182085494Y-121233372D01*
X182085494Y-121233372D02*
X182139369Y-121233372D01*
X182139369Y-121233372D02*
X182220181Y-121260309D01*
X182220181Y-121260309D02*
X182274056Y-121314184D01*
X182274056Y-121314184D02*
X182327930Y-121421934D01*
X182327930Y-121421934D02*
X182327930Y-122068431D01*
X182327930Y-122068431D02*
X182678117Y-121718245D01*
X182462618Y-120802373D02*
X182516492Y-120748499D01*
X182516492Y-120748499D02*
X182597305Y-120721561D01*
X182597305Y-120721561D02*
X182651179Y-120721561D01*
X182651179Y-120721561D02*
X182731992Y-120748499D01*
X182731992Y-120748499D02*
X182866679Y-120829311D01*
X182866679Y-120829311D02*
X183001366Y-120963998D01*
X183001366Y-120963998D02*
X183082178Y-121098685D01*
X183082178Y-121098685D02*
X183109115Y-121179497D01*
X183109115Y-121179497D02*
X183109115Y-121233372D01*
X183109115Y-121233372D02*
X183082178Y-121314184D01*
X183082178Y-121314184D02*
X183028303Y-121368059D01*
X183028303Y-121368059D02*
X182947491Y-121394996D01*
X182947491Y-121394996D02*
X182893616Y-121394996D01*
X182893616Y-121394996D02*
X182812804Y-121368059D01*
X182812804Y-121368059D02*
X182678117Y-121287247D01*
X182678117Y-121287247D02*
X182543430Y-121152560D01*
X182543430Y-121152560D02*
X182462618Y-121017873D01*
X182462618Y-121017873D02*
X182435680Y-120937060D01*
X182435680Y-120937060D02*
X182435680Y-120883186D01*
X182435680Y-120883186D02*
X182462618Y-120802373D01*
X181007998Y-135010868D02*
X180927185Y-135037805D01*
X180927185Y-135037805D02*
X180846373Y-135118618D01*
X180846373Y-135118618D02*
X180792498Y-135226367D01*
X180792498Y-135226367D02*
X180792498Y-135334117D01*
X180792498Y-135334117D02*
X180819436Y-135414929D01*
X180819436Y-135414929D02*
X180900248Y-135549616D01*
X180900248Y-135549616D02*
X180981060Y-135630428D01*
X180981060Y-135630428D02*
X181115747Y-135711241D01*
X181115747Y-135711241D02*
X181196560Y-135738178D01*
X181196560Y-135738178D02*
X181304309Y-135738178D01*
X181304309Y-135738178D02*
X181412059Y-135684303D01*
X181412059Y-135684303D02*
X181465934Y-135630428D01*
X181465934Y-135630428D02*
X181519808Y-135522679D01*
X181519808Y-135522679D02*
X181519808Y-135468804D01*
X181519808Y-135468804D02*
X181331247Y-135280242D01*
X181331247Y-135280242D02*
X181223497Y-135387992D01*
X181816120Y-135280242D02*
X181250434Y-134714557D01*
X181250434Y-134714557D02*
X181465934Y-134499057D01*
X181465934Y-134499057D02*
X181546746Y-134472120D01*
X181546746Y-134472120D02*
X181600621Y-134472120D01*
X181600621Y-134472120D02*
X181681433Y-134499057D01*
X181681433Y-134499057D02*
X181762245Y-134579870D01*
X181762245Y-134579870D02*
X181789182Y-134660682D01*
X181789182Y-134660682D02*
X181789182Y-134714557D01*
X181789182Y-134714557D02*
X181762245Y-134795369D01*
X181762245Y-134795369D02*
X181546746Y-135010868D01*
X182678117Y-134418245D02*
X182354868Y-134741494D01*
X182516492Y-134579870D02*
X181950807Y-134014184D01*
X181950807Y-134014184D02*
X181977744Y-134148871D01*
X181977744Y-134148871D02*
X181977744Y-134256621D01*
X181977744Y-134256621D02*
X181950807Y-134337433D01*
X182597305Y-133367686D02*
X182489555Y-133475436D01*
X182489555Y-133475436D02*
X182462618Y-133556248D01*
X182462618Y-133556248D02*
X182462618Y-133610123D01*
X182462618Y-133610123D02*
X182489555Y-133744810D01*
X182489555Y-133744810D02*
X182570367Y-133879497D01*
X182570367Y-133879497D02*
X182785866Y-134094996D01*
X182785866Y-134094996D02*
X182866679Y-134121934D01*
X182866679Y-134121934D02*
X182920553Y-134121934D01*
X182920553Y-134121934D02*
X183001366Y-134094996D01*
X183001366Y-134094996D02*
X183109115Y-133987247D01*
X183109115Y-133987247D02*
X183136053Y-133906434D01*
X183136053Y-133906434D02*
X183136053Y-133852560D01*
X183136053Y-133852560D02*
X183109115Y-133771747D01*
X183109115Y-133771747D02*
X182974428Y-133637060D01*
X182974428Y-133637060D02*
X182893616Y-133610123D01*
X182893616Y-133610123D02*
X182839741Y-133610123D01*
X182839741Y-133610123D02*
X182758929Y-133637060D01*
X182758929Y-133637060D02*
X182651179Y-133744810D01*
X182651179Y-133744810D02*
X182624242Y-133825622D01*
X182624242Y-133825622D02*
X182624242Y-133879497D01*
X182624242Y-133879497D02*
X182651179Y-133960309D01*
X155423372Y-106801494D02*
X155342560Y-106828431D01*
X155342560Y-106828431D02*
X155261748Y-106909243D01*
X155261748Y-106909243D02*
X155207873Y-107016993D01*
X155207873Y-107016993D02*
X155207873Y-107124742D01*
X155207873Y-107124742D02*
X155234810Y-107205555D01*
X155234810Y-107205555D02*
X155315623Y-107340242D01*
X155315623Y-107340242D02*
X155396435Y-107421054D01*
X155396435Y-107421054D02*
X155531122Y-107501866D01*
X155531122Y-107501866D02*
X155611934Y-107528803D01*
X155611934Y-107528803D02*
X155719684Y-107528803D01*
X155719684Y-107528803D02*
X155827433Y-107474929D01*
X155827433Y-107474929D02*
X155881308Y-107421054D01*
X155881308Y-107421054D02*
X155935183Y-107313304D01*
X155935183Y-107313304D02*
X155935183Y-107259429D01*
X155935183Y-107259429D02*
X155746621Y-107070868D01*
X155746621Y-107070868D02*
X155638871Y-107178617D01*
X156231494Y-107070868D02*
X155665809Y-106505182D01*
X155665809Y-106505182D02*
X155881308Y-106289683D01*
X155881308Y-106289683D02*
X155962120Y-106262746D01*
X155962120Y-106262746D02*
X156015995Y-106262746D01*
X156015995Y-106262746D02*
X156096807Y-106289683D01*
X156096807Y-106289683D02*
X156177619Y-106370495D01*
X156177619Y-106370495D02*
X156204557Y-106451307D01*
X156204557Y-106451307D02*
X156204557Y-106505182D01*
X156204557Y-106505182D02*
X156177619Y-106585994D01*
X156177619Y-106585994D02*
X155962120Y-106801494D01*
X156473931Y-105697060D02*
X156366181Y-105804810D01*
X156366181Y-105804810D02*
X156339244Y-105885622D01*
X156339244Y-105885622D02*
X156339244Y-105939497D01*
X156339244Y-105939497D02*
X156366181Y-106074184D01*
X156366181Y-106074184D02*
X156446993Y-106208871D01*
X156446993Y-106208871D02*
X156662493Y-106424370D01*
X156662493Y-106424370D02*
X156743305Y-106451307D01*
X156743305Y-106451307D02*
X156797180Y-106451307D01*
X156797180Y-106451307D02*
X156877992Y-106424370D01*
X156877992Y-106424370D02*
X156985741Y-106316620D01*
X156985741Y-106316620D02*
X157012679Y-106235808D01*
X157012679Y-106235808D02*
X157012679Y-106181933D01*
X157012679Y-106181933D02*
X156985741Y-106101121D01*
X156985741Y-106101121D02*
X156851054Y-105966434D01*
X156851054Y-105966434D02*
X156770242Y-105939497D01*
X156770242Y-105939497D02*
X156716367Y-105939497D01*
X156716367Y-105939497D02*
X156635555Y-105966434D01*
X156635555Y-105966434D02*
X156527806Y-106074184D01*
X156527806Y-106074184D02*
X156500868Y-106154996D01*
X156500868Y-106154996D02*
X156500868Y-106208871D01*
X156500868Y-106208871D02*
X156527806Y-106289683D01*
X154899998Y-119770868D02*
X154819185Y-119797805D01*
X154819185Y-119797805D02*
X154738373Y-119878618D01*
X154738373Y-119878618D02*
X154684498Y-119986367D01*
X154684498Y-119986367D02*
X154684498Y-120094117D01*
X154684498Y-120094117D02*
X154711436Y-120174929D01*
X154711436Y-120174929D02*
X154792248Y-120309616D01*
X154792248Y-120309616D02*
X154873060Y-120390428D01*
X154873060Y-120390428D02*
X155007747Y-120471241D01*
X155007747Y-120471241D02*
X155088560Y-120498178D01*
X155088560Y-120498178D02*
X155196309Y-120498178D01*
X155196309Y-120498178D02*
X155304059Y-120444303D01*
X155304059Y-120444303D02*
X155357934Y-120390428D01*
X155357934Y-120390428D02*
X155411808Y-120282679D01*
X155411808Y-120282679D02*
X155411808Y-120228804D01*
X155411808Y-120228804D02*
X155223247Y-120040242D01*
X155223247Y-120040242D02*
X155115497Y-120147992D01*
X155708120Y-120040242D02*
X155142434Y-119474557D01*
X155142434Y-119474557D02*
X155357934Y-119259057D01*
X155357934Y-119259057D02*
X155438746Y-119232120D01*
X155438746Y-119232120D02*
X155492621Y-119232120D01*
X155492621Y-119232120D02*
X155573433Y-119259057D01*
X155573433Y-119259057D02*
X155654245Y-119339870D01*
X155654245Y-119339870D02*
X155681182Y-119420682D01*
X155681182Y-119420682D02*
X155681182Y-119474557D01*
X155681182Y-119474557D02*
X155654245Y-119555369D01*
X155654245Y-119555369D02*
X155438746Y-119770868D01*
X156570117Y-119178245D02*
X156246868Y-119501494D01*
X156408492Y-119339870D02*
X155842807Y-118774184D01*
X155842807Y-118774184D02*
X155869744Y-118908871D01*
X155869744Y-118908871D02*
X155869744Y-119016621D01*
X155869744Y-119016621D02*
X155842807Y-119097433D01*
X156354618Y-118262373D02*
X156408492Y-118208499D01*
X156408492Y-118208499D02*
X156489305Y-118181561D01*
X156489305Y-118181561D02*
X156543179Y-118181561D01*
X156543179Y-118181561D02*
X156623992Y-118208499D01*
X156623992Y-118208499D02*
X156758679Y-118289311D01*
X156758679Y-118289311D02*
X156893366Y-118423998D01*
X156893366Y-118423998D02*
X156974178Y-118558685D01*
X156974178Y-118558685D02*
X157001115Y-118639497D01*
X157001115Y-118639497D02*
X157001115Y-118693372D01*
X157001115Y-118693372D02*
X156974178Y-118774184D01*
X156974178Y-118774184D02*
X156920303Y-118828059D01*
X156920303Y-118828059D02*
X156839491Y-118854996D01*
X156839491Y-118854996D02*
X156785616Y-118854996D01*
X156785616Y-118854996D02*
X156704804Y-118828059D01*
X156704804Y-118828059D02*
X156570117Y-118747247D01*
X156570117Y-118747247D02*
X156435430Y-118612560D01*
X156435430Y-118612560D02*
X156354618Y-118477873D01*
X156354618Y-118477873D02*
X156327680Y-118397060D01*
X156327680Y-118397060D02*
X156327680Y-118343186D01*
X156327680Y-118343186D02*
X156354618Y-118262373D01*
X180832407Y-94448584D02*
X181182593Y-94098398D01*
X181182593Y-94098398D02*
X181209531Y-94502459D01*
X181209531Y-94502459D02*
X181290343Y-94421646D01*
X181290343Y-94421646D02*
X181371155Y-94394709D01*
X181371155Y-94394709D02*
X181425030Y-94394709D01*
X181425030Y-94394709D02*
X181505842Y-94421646D01*
X181505842Y-94421646D02*
X181640529Y-94556333D01*
X181640529Y-94556333D02*
X181667467Y-94637146D01*
X181667467Y-94637146D02*
X181667467Y-94691020D01*
X181667467Y-94691020D02*
X181640529Y-94771833D01*
X181640529Y-94771833D02*
X181478905Y-94933457D01*
X181478905Y-94933457D02*
X181398093Y-94960394D01*
X181398093Y-94960394D02*
X181344218Y-94960394D01*
X181344218Y-93936773D02*
X182098465Y-94313897D01*
X182098465Y-94313897D02*
X181721342Y-93559649D01*
X181856028Y-93424963D02*
X182206215Y-93074776D01*
X182206215Y-93074776D02*
X182233152Y-93478837D01*
X182233152Y-93478837D02*
X182313964Y-93398025D01*
X182313964Y-93398025D02*
X182394776Y-93371088D01*
X182394776Y-93371088D02*
X182448651Y-93371088D01*
X182448651Y-93371088D02*
X182529464Y-93398025D01*
X182529464Y-93398025D02*
X182664151Y-93532712D01*
X182664151Y-93532712D02*
X182691088Y-93613524D01*
X182691088Y-93613524D02*
X182691088Y-93667399D01*
X182691088Y-93667399D02*
X182664151Y-93748211D01*
X182664151Y-93748211D02*
X182502526Y-93909836D01*
X182502526Y-93909836D02*
X182421714Y-93936773D01*
X182421714Y-93936773D02*
X182367839Y-93936773D01*
X182933525Y-93586587D02*
X183364523Y-93155588D01*
X183149024Y-92670715D02*
X183337586Y-92482153D01*
X183714709Y-92697652D02*
X183445335Y-92967026D01*
X183445335Y-92967026D02*
X182879650Y-92401341D01*
X182879650Y-92401341D02*
X183149024Y-92131967D01*
X183957146Y-92455215D02*
X183391461Y-91889530D01*
X183391461Y-91889530D02*
X184280395Y-92131967D01*
X184280395Y-92131967D02*
X183714710Y-91566281D01*
X155523372Y-109311494D02*
X155442560Y-109338431D01*
X155442560Y-109338431D02*
X155361748Y-109419243D01*
X155361748Y-109419243D02*
X155307873Y-109526993D01*
X155307873Y-109526993D02*
X155307873Y-109634742D01*
X155307873Y-109634742D02*
X155334810Y-109715555D01*
X155334810Y-109715555D02*
X155415623Y-109850242D01*
X155415623Y-109850242D02*
X155496435Y-109931054D01*
X155496435Y-109931054D02*
X155631122Y-110011866D01*
X155631122Y-110011866D02*
X155711934Y-110038803D01*
X155711934Y-110038803D02*
X155819684Y-110038803D01*
X155819684Y-110038803D02*
X155927433Y-109984929D01*
X155927433Y-109984929D02*
X155981308Y-109931054D01*
X155981308Y-109931054D02*
X156035183Y-109823304D01*
X156035183Y-109823304D02*
X156035183Y-109769429D01*
X156035183Y-109769429D02*
X155846621Y-109580868D01*
X155846621Y-109580868D02*
X155738871Y-109688617D01*
X156331494Y-109580868D02*
X155765809Y-109015182D01*
X155765809Y-109015182D02*
X155981308Y-108799683D01*
X155981308Y-108799683D02*
X156062120Y-108772746D01*
X156062120Y-108772746D02*
X156115995Y-108772746D01*
X156115995Y-108772746D02*
X156196807Y-108799683D01*
X156196807Y-108799683D02*
X156277619Y-108880495D01*
X156277619Y-108880495D02*
X156304557Y-108961307D01*
X156304557Y-108961307D02*
X156304557Y-109015182D01*
X156304557Y-109015182D02*
X156277619Y-109095994D01*
X156277619Y-109095994D02*
X156062120Y-109311494D01*
X156277619Y-108503372D02*
X156654743Y-108126248D01*
X156654743Y-108126248D02*
X156977992Y-108934370D01*
X154853998Y-132470868D02*
X154773185Y-132497805D01*
X154773185Y-132497805D02*
X154692373Y-132578618D01*
X154692373Y-132578618D02*
X154638498Y-132686367D01*
X154638498Y-132686367D02*
X154638498Y-132794117D01*
X154638498Y-132794117D02*
X154665436Y-132874929D01*
X154665436Y-132874929D02*
X154746248Y-133009616D01*
X154746248Y-133009616D02*
X154827060Y-133090428D01*
X154827060Y-133090428D02*
X154961747Y-133171241D01*
X154961747Y-133171241D02*
X155042560Y-133198178D01*
X155042560Y-133198178D02*
X155150309Y-133198178D01*
X155150309Y-133198178D02*
X155258059Y-133144303D01*
X155258059Y-133144303D02*
X155311934Y-133090428D01*
X155311934Y-133090428D02*
X155365808Y-132982679D01*
X155365808Y-132982679D02*
X155365808Y-132928804D01*
X155365808Y-132928804D02*
X155177247Y-132740242D01*
X155177247Y-132740242D02*
X155069497Y-132847992D01*
X155662120Y-132740242D02*
X155096434Y-132174557D01*
X155096434Y-132174557D02*
X155311934Y-131959057D01*
X155311934Y-131959057D02*
X155392746Y-131932120D01*
X155392746Y-131932120D02*
X155446621Y-131932120D01*
X155446621Y-131932120D02*
X155527433Y-131959057D01*
X155527433Y-131959057D02*
X155608245Y-132039870D01*
X155608245Y-132039870D02*
X155635182Y-132120682D01*
X155635182Y-132120682D02*
X155635182Y-132174557D01*
X155635182Y-132174557D02*
X155608245Y-132255369D01*
X155608245Y-132255369D02*
X155392746Y-132470868D01*
X156524117Y-131878245D02*
X156200868Y-132201494D01*
X156362492Y-132039870D02*
X155796807Y-131474184D01*
X155796807Y-131474184D02*
X155823744Y-131608871D01*
X155823744Y-131608871D02*
X155823744Y-131716621D01*
X155823744Y-131716621D02*
X155796807Y-131797433D01*
X156631866Y-131016248D02*
X157008990Y-131393372D01*
X156281680Y-130935436D02*
X156551054Y-131474184D01*
X156551054Y-131474184D02*
X156901240Y-131123998D01*
X181007998Y-119780868D02*
X180927185Y-119807805D01*
X180927185Y-119807805D02*
X180846373Y-119888618D01*
X180846373Y-119888618D02*
X180792498Y-119996367D01*
X180792498Y-119996367D02*
X180792498Y-120104117D01*
X180792498Y-120104117D02*
X180819436Y-120184929D01*
X180819436Y-120184929D02*
X180900248Y-120319616D01*
X180900248Y-120319616D02*
X180981060Y-120400428D01*
X180981060Y-120400428D02*
X181115747Y-120481241D01*
X181115747Y-120481241D02*
X181196560Y-120508178D01*
X181196560Y-120508178D02*
X181304309Y-120508178D01*
X181304309Y-120508178D02*
X181412059Y-120454303D01*
X181412059Y-120454303D02*
X181465934Y-120400428D01*
X181465934Y-120400428D02*
X181519808Y-120292679D01*
X181519808Y-120292679D02*
X181519808Y-120238804D01*
X181519808Y-120238804D02*
X181331247Y-120050242D01*
X181331247Y-120050242D02*
X181223497Y-120157992D01*
X181816120Y-120050242D02*
X181250434Y-119484557D01*
X181250434Y-119484557D02*
X181465934Y-119269057D01*
X181465934Y-119269057D02*
X181546746Y-119242120D01*
X181546746Y-119242120D02*
X181600621Y-119242120D01*
X181600621Y-119242120D02*
X181681433Y-119269057D01*
X181681433Y-119269057D02*
X181762245Y-119349870D01*
X181762245Y-119349870D02*
X181789182Y-119430682D01*
X181789182Y-119430682D02*
X181789182Y-119484557D01*
X181789182Y-119484557D02*
X181762245Y-119565369D01*
X181762245Y-119565369D02*
X181546746Y-119780868D01*
X181843057Y-118999683D02*
X181843057Y-118945809D01*
X181843057Y-118945809D02*
X181869995Y-118864996D01*
X181869995Y-118864996D02*
X182004682Y-118730309D01*
X182004682Y-118730309D02*
X182085494Y-118703372D01*
X182085494Y-118703372D02*
X182139369Y-118703372D01*
X182139369Y-118703372D02*
X182220181Y-118730309D01*
X182220181Y-118730309D02*
X182274056Y-118784184D01*
X182274056Y-118784184D02*
X182327930Y-118891934D01*
X182327930Y-118891934D02*
X182327930Y-119538431D01*
X182327930Y-119538431D02*
X182678117Y-119188245D01*
X183216865Y-118649497D02*
X182893616Y-118972746D01*
X183055240Y-118811121D02*
X182489555Y-118245436D01*
X182489555Y-118245436D02*
X182516492Y-118380123D01*
X182516492Y-118380123D02*
X182516492Y-118487873D01*
X182516492Y-118487873D02*
X182489555Y-118568685D01*
X154899998Y-135010868D02*
X154819185Y-135037805D01*
X154819185Y-135037805D02*
X154738373Y-135118618D01*
X154738373Y-135118618D02*
X154684498Y-135226367D01*
X154684498Y-135226367D02*
X154684498Y-135334117D01*
X154684498Y-135334117D02*
X154711436Y-135414929D01*
X154711436Y-135414929D02*
X154792248Y-135549616D01*
X154792248Y-135549616D02*
X154873060Y-135630428D01*
X154873060Y-135630428D02*
X155007747Y-135711241D01*
X155007747Y-135711241D02*
X155088560Y-135738178D01*
X155088560Y-135738178D02*
X155196309Y-135738178D01*
X155196309Y-135738178D02*
X155304059Y-135684303D01*
X155304059Y-135684303D02*
X155357934Y-135630428D01*
X155357934Y-135630428D02*
X155411808Y-135522679D01*
X155411808Y-135522679D02*
X155411808Y-135468804D01*
X155411808Y-135468804D02*
X155223247Y-135280242D01*
X155223247Y-135280242D02*
X155115497Y-135387992D01*
X155708120Y-135280242D02*
X155142434Y-134714557D01*
X155142434Y-134714557D02*
X155357934Y-134499057D01*
X155357934Y-134499057D02*
X155438746Y-134472120D01*
X155438746Y-134472120D02*
X155492621Y-134472120D01*
X155492621Y-134472120D02*
X155573433Y-134499057D01*
X155573433Y-134499057D02*
X155654245Y-134579870D01*
X155654245Y-134579870D02*
X155681182Y-134660682D01*
X155681182Y-134660682D02*
X155681182Y-134714557D01*
X155681182Y-134714557D02*
X155654245Y-134795369D01*
X155654245Y-134795369D02*
X155438746Y-135010868D01*
X156570117Y-134418245D02*
X156246868Y-134741494D01*
X156408492Y-134579870D02*
X155842807Y-134014184D01*
X155842807Y-134014184D02*
X155869744Y-134148871D01*
X155869744Y-134148871D02*
X155869744Y-134256621D01*
X155869744Y-134256621D02*
X155842807Y-134337433D01*
X156516242Y-133340749D02*
X156246868Y-133610123D01*
X156246868Y-133610123D02*
X156489305Y-133906434D01*
X156489305Y-133906434D02*
X156489305Y-133852560D01*
X156489305Y-133852560D02*
X156516242Y-133771747D01*
X156516242Y-133771747D02*
X156650929Y-133637060D01*
X156650929Y-133637060D02*
X156731741Y-133610123D01*
X156731741Y-133610123D02*
X156785616Y-133610123D01*
X156785616Y-133610123D02*
X156866428Y-133637060D01*
X156866428Y-133637060D02*
X157001115Y-133771747D01*
X157001115Y-133771747D02*
X157028053Y-133852560D01*
X157028053Y-133852560D02*
X157028053Y-133906434D01*
X157028053Y-133906434D02*
X157001115Y-133987247D01*
X157001115Y-133987247D02*
X156866428Y-134121934D01*
X156866428Y-134121934D02*
X156785616Y-134148871D01*
X156785616Y-134148871D02*
X156731741Y-134148871D01*
X154899998Y-127390868D02*
X154819185Y-127417805D01*
X154819185Y-127417805D02*
X154738373Y-127498618D01*
X154738373Y-127498618D02*
X154684498Y-127606367D01*
X154684498Y-127606367D02*
X154684498Y-127714117D01*
X154684498Y-127714117D02*
X154711436Y-127794929D01*
X154711436Y-127794929D02*
X154792248Y-127929616D01*
X154792248Y-127929616D02*
X154873060Y-128010428D01*
X154873060Y-128010428D02*
X155007747Y-128091241D01*
X155007747Y-128091241D02*
X155088560Y-128118178D01*
X155088560Y-128118178D02*
X155196309Y-128118178D01*
X155196309Y-128118178D02*
X155304059Y-128064303D01*
X155304059Y-128064303D02*
X155357934Y-128010428D01*
X155357934Y-128010428D02*
X155411808Y-127902679D01*
X155411808Y-127902679D02*
X155411808Y-127848804D01*
X155411808Y-127848804D02*
X155223247Y-127660242D01*
X155223247Y-127660242D02*
X155115497Y-127767992D01*
X155708120Y-127660242D02*
X155142434Y-127094557D01*
X155142434Y-127094557D02*
X155357934Y-126879057D01*
X155357934Y-126879057D02*
X155438746Y-126852120D01*
X155438746Y-126852120D02*
X155492621Y-126852120D01*
X155492621Y-126852120D02*
X155573433Y-126879057D01*
X155573433Y-126879057D02*
X155654245Y-126959870D01*
X155654245Y-126959870D02*
X155681182Y-127040682D01*
X155681182Y-127040682D02*
X155681182Y-127094557D01*
X155681182Y-127094557D02*
X155654245Y-127175369D01*
X155654245Y-127175369D02*
X155438746Y-127390868D01*
X156570117Y-126798245D02*
X156246868Y-127121494D01*
X156408492Y-126959870D02*
X155842807Y-126394184D01*
X155842807Y-126394184D02*
X155869744Y-126528871D01*
X155869744Y-126528871D02*
X155869744Y-126636621D01*
X155869744Y-126636621D02*
X155842807Y-126717433D01*
X156192993Y-126043998D02*
X156543179Y-125693812D01*
X156543179Y-125693812D02*
X156570117Y-126097873D01*
X156570117Y-126097873D02*
X156650929Y-126017060D01*
X156650929Y-126017060D02*
X156731741Y-125990123D01*
X156731741Y-125990123D02*
X156785616Y-125990123D01*
X156785616Y-125990123D02*
X156866428Y-126017060D01*
X156866428Y-126017060D02*
X157001115Y-126151747D01*
X157001115Y-126151747D02*
X157028053Y-126232560D01*
X157028053Y-126232560D02*
X157028053Y-126286434D01*
X157028053Y-126286434D02*
X157001115Y-126367247D01*
X157001115Y-126367247D02*
X156839491Y-126528871D01*
X156839491Y-126528871D02*
X156758679Y-126555808D01*
X156758679Y-126555808D02*
X156704804Y-126555808D01*
X181065064Y-100024049D02*
X181334438Y-99754675D01*
X181172813Y-100239549D02*
X180795690Y-99485301D01*
X180795690Y-99485301D02*
X181549937Y-99862425D01*
X181738499Y-99673863D02*
X181172813Y-99108178D01*
X181172813Y-99108178D02*
X181307500Y-98973491D01*
X181307500Y-98973491D02*
X181415250Y-98919616D01*
X181415250Y-98919616D02*
X181522999Y-98919616D01*
X181522999Y-98919616D02*
X181603812Y-98946553D01*
X181603812Y-98946553D02*
X181738499Y-99027366D01*
X181738499Y-99027366D02*
X181819311Y-99108178D01*
X181819311Y-99108178D02*
X181900123Y-99242865D01*
X181900123Y-99242865D02*
X181927060Y-99323677D01*
X181927060Y-99323677D02*
X181927060Y-99431427D01*
X181927060Y-99431427D02*
X181873186Y-99539176D01*
X181873186Y-99539176D02*
X181738499Y-99673863D01*
X182573558Y-98731054D02*
X182573558Y-98784929D01*
X182573558Y-98784929D02*
X182519683Y-98892679D01*
X182519683Y-98892679D02*
X182465808Y-98946553D01*
X182465808Y-98946553D02*
X182358059Y-99000428D01*
X182358059Y-99000428D02*
X182250309Y-99000428D01*
X182250309Y-99000428D02*
X182169497Y-98973491D01*
X182169497Y-98973491D02*
X182034810Y-98892679D01*
X182034810Y-98892679D02*
X181953998Y-98811866D01*
X181953998Y-98811866D02*
X181873186Y-98677179D01*
X181873186Y-98677179D02*
X181846248Y-98596367D01*
X181846248Y-98596367D02*
X181846248Y-98488618D01*
X181846248Y-98488618D02*
X181900123Y-98380868D01*
X181900123Y-98380868D02*
X181953998Y-98326993D01*
X181953998Y-98326993D02*
X182061747Y-98273118D01*
X182061747Y-98273118D02*
X182115622Y-98273118D01*
X182789057Y-98731054D02*
X183220056Y-98300056D01*
X182654370Y-97626621D02*
X183408618Y-98003744D01*
X183408618Y-98003744D02*
X183031494Y-97249497D01*
X184108990Y-97303372D02*
X183651054Y-97222560D01*
X183785741Y-97626621D02*
X183220056Y-97060935D01*
X183220056Y-97060935D02*
X183435555Y-96845436D01*
X183435555Y-96845436D02*
X183516367Y-96818499D01*
X183516367Y-96818499D02*
X183570242Y-96818499D01*
X183570242Y-96818499D02*
X183651054Y-96845436D01*
X183651054Y-96845436D02*
X183731866Y-96926248D01*
X183731866Y-96926248D02*
X183758804Y-97007061D01*
X183758804Y-97007061D02*
X183758804Y-97060935D01*
X183758804Y-97060935D02*
X183731866Y-97141748D01*
X183731866Y-97141748D02*
X183516367Y-97357247D01*
X184055115Y-96764624D02*
X184243677Y-96576062D01*
X184620800Y-96791561D02*
X184351426Y-97060935D01*
X184351426Y-97060935D02*
X183785741Y-96495250D01*
X183785741Y-96495250D02*
X184055115Y-96225876D01*
X184755488Y-96064251D02*
X184566926Y-96252813D01*
X184863237Y-96549125D02*
X184297552Y-95983439D01*
X184297552Y-95983439D02*
X184566926Y-95714065D01*
X155396435Y-104288431D02*
X155315623Y-104315368D01*
X155315623Y-104315368D02*
X155234811Y-104396180D01*
X155234811Y-104396180D02*
X155180936Y-104503930D01*
X155180936Y-104503930D02*
X155180936Y-104611680D01*
X155180936Y-104611680D02*
X155207873Y-104692492D01*
X155207873Y-104692492D02*
X155288685Y-104827179D01*
X155288685Y-104827179D02*
X155369498Y-104907991D01*
X155369498Y-104907991D02*
X155504185Y-104988803D01*
X155504185Y-104988803D02*
X155584997Y-105015741D01*
X155584997Y-105015741D02*
X155692746Y-105015741D01*
X155692746Y-105015741D02*
X155800496Y-104961866D01*
X155800496Y-104961866D02*
X155854371Y-104907991D01*
X155854371Y-104907991D02*
X155908246Y-104800241D01*
X155908246Y-104800241D02*
X155908246Y-104746367D01*
X155908246Y-104746367D02*
X155719684Y-104557805D01*
X155719684Y-104557805D02*
X155611934Y-104665554D01*
X156204557Y-104557805D02*
X155638872Y-103992119D01*
X155638872Y-103992119D02*
X156527806Y-104234556D01*
X156527806Y-104234556D02*
X155962120Y-103668871D01*
X156797180Y-103965182D02*
X156231494Y-103399497D01*
X156231494Y-103399497D02*
X156366181Y-103264810D01*
X156366181Y-103264810D02*
X156473931Y-103210935D01*
X156473931Y-103210935D02*
X156581680Y-103210935D01*
X156581680Y-103210935D02*
X156662493Y-103237872D01*
X156662493Y-103237872D02*
X156797180Y-103318685D01*
X156797180Y-103318685D02*
X156877992Y-103399497D01*
X156877992Y-103399497D02*
X156958804Y-103534184D01*
X156958804Y-103534184D02*
X156985741Y-103614996D01*
X156985741Y-103614996D02*
X156985741Y-103722746D01*
X156985741Y-103722746D02*
X156931867Y-103830495D01*
X156931867Y-103830495D02*
X156797180Y-103965182D01*
X155423372Y-86481494D02*
X155342560Y-86508431D01*
X155342560Y-86508431D02*
X155261748Y-86589243D01*
X155261748Y-86589243D02*
X155207873Y-86696993D01*
X155207873Y-86696993D02*
X155207873Y-86804742D01*
X155207873Y-86804742D02*
X155234810Y-86885555D01*
X155234810Y-86885555D02*
X155315623Y-87020242D01*
X155315623Y-87020242D02*
X155396435Y-87101054D01*
X155396435Y-87101054D02*
X155531122Y-87181866D01*
X155531122Y-87181866D02*
X155611934Y-87208803D01*
X155611934Y-87208803D02*
X155719684Y-87208803D01*
X155719684Y-87208803D02*
X155827433Y-87154929D01*
X155827433Y-87154929D02*
X155881308Y-87101054D01*
X155881308Y-87101054D02*
X155935183Y-86993304D01*
X155935183Y-86993304D02*
X155935183Y-86939429D01*
X155935183Y-86939429D02*
X155746621Y-86750868D01*
X155746621Y-86750868D02*
X155638871Y-86858617D01*
X156231494Y-86750868D02*
X155665809Y-86185182D01*
X155665809Y-86185182D02*
X155881308Y-85969683D01*
X155881308Y-85969683D02*
X155962120Y-85942746D01*
X155962120Y-85942746D02*
X156015995Y-85942746D01*
X156015995Y-85942746D02*
X156096807Y-85969683D01*
X156096807Y-85969683D02*
X156177619Y-86050495D01*
X156177619Y-86050495D02*
X156204557Y-86131307D01*
X156204557Y-86131307D02*
X156204557Y-86185182D01*
X156204557Y-86185182D02*
X156177619Y-86265994D01*
X156177619Y-86265994D02*
X155962120Y-86481494D01*
X156339244Y-85511747D02*
X156393119Y-85457872D01*
X156393119Y-85457872D02*
X156473931Y-85430935D01*
X156473931Y-85430935D02*
X156527806Y-85430935D01*
X156527806Y-85430935D02*
X156608618Y-85457872D01*
X156608618Y-85457872D02*
X156743305Y-85538685D01*
X156743305Y-85538685D02*
X156877992Y-85673372D01*
X156877992Y-85673372D02*
X156958804Y-85808059D01*
X156958804Y-85808059D02*
X156985741Y-85888871D01*
X156985741Y-85888871D02*
X156985741Y-85942746D01*
X156985741Y-85942746D02*
X156958804Y-86023558D01*
X156958804Y-86023558D02*
X156904929Y-86077433D01*
X156904929Y-86077433D02*
X156824117Y-86104370D01*
X156824117Y-86104370D02*
X156770242Y-86104370D01*
X156770242Y-86104370D02*
X156689430Y-86077433D01*
X156689430Y-86077433D02*
X156554743Y-85996620D01*
X156554743Y-85996620D02*
X156420056Y-85861933D01*
X156420056Y-85861933D02*
X156339244Y-85727246D01*
X156339244Y-85727246D02*
X156312306Y-85646434D01*
X156312306Y-85646434D02*
X156312306Y-85592559D01*
X156312306Y-85592559D02*
X156339244Y-85511747D01*
X155423372Y-101721494D02*
X155342560Y-101748431D01*
X155342560Y-101748431D02*
X155261748Y-101829243D01*
X155261748Y-101829243D02*
X155207873Y-101936993D01*
X155207873Y-101936993D02*
X155207873Y-102044742D01*
X155207873Y-102044742D02*
X155234810Y-102125555D01*
X155234810Y-102125555D02*
X155315623Y-102260242D01*
X155315623Y-102260242D02*
X155396435Y-102341054D01*
X155396435Y-102341054D02*
X155531122Y-102421866D01*
X155531122Y-102421866D02*
X155611934Y-102448803D01*
X155611934Y-102448803D02*
X155719684Y-102448803D01*
X155719684Y-102448803D02*
X155827433Y-102394929D01*
X155827433Y-102394929D02*
X155881308Y-102341054D01*
X155881308Y-102341054D02*
X155935183Y-102233304D01*
X155935183Y-102233304D02*
X155935183Y-102179429D01*
X155935183Y-102179429D02*
X155746621Y-101990868D01*
X155746621Y-101990868D02*
X155638871Y-102098617D01*
X156231494Y-101990868D02*
X155665809Y-101425182D01*
X155665809Y-101425182D02*
X155881308Y-101209683D01*
X155881308Y-101209683D02*
X155962120Y-101182746D01*
X155962120Y-101182746D02*
X156015995Y-101182746D01*
X156015995Y-101182746D02*
X156096807Y-101209683D01*
X156096807Y-101209683D02*
X156177619Y-101290495D01*
X156177619Y-101290495D02*
X156204557Y-101371307D01*
X156204557Y-101371307D02*
X156204557Y-101425182D01*
X156204557Y-101425182D02*
X156177619Y-101505994D01*
X156177619Y-101505994D02*
X155962120Y-101721494D01*
X156500868Y-100590123D02*
X156231494Y-100859497D01*
X156231494Y-100859497D02*
X156473931Y-101155808D01*
X156473931Y-101155808D02*
X156473931Y-101101933D01*
X156473931Y-101101933D02*
X156500868Y-101021121D01*
X156500868Y-101021121D02*
X156635555Y-100886434D01*
X156635555Y-100886434D02*
X156716367Y-100859497D01*
X156716367Y-100859497D02*
X156770242Y-100859497D01*
X156770242Y-100859497D02*
X156851054Y-100886434D01*
X156851054Y-100886434D02*
X156985741Y-101021121D01*
X156985741Y-101021121D02*
X157012679Y-101101933D01*
X157012679Y-101101933D02*
X157012679Y-101155808D01*
X157012679Y-101155808D02*
X156985741Y-101236620D01*
X156985741Y-101236620D02*
X156851054Y-101371307D01*
X156851054Y-101371307D02*
X156770242Y-101398245D01*
X156770242Y-101398245D02*
X156716367Y-101398245D01*
X155423372Y-96641494D02*
X155342560Y-96668431D01*
X155342560Y-96668431D02*
X155261748Y-96749243D01*
X155261748Y-96749243D02*
X155207873Y-96856993D01*
X155207873Y-96856993D02*
X155207873Y-96964742D01*
X155207873Y-96964742D02*
X155234810Y-97045555D01*
X155234810Y-97045555D02*
X155315623Y-97180242D01*
X155315623Y-97180242D02*
X155396435Y-97261054D01*
X155396435Y-97261054D02*
X155531122Y-97341866D01*
X155531122Y-97341866D02*
X155611934Y-97368803D01*
X155611934Y-97368803D02*
X155719684Y-97368803D01*
X155719684Y-97368803D02*
X155827433Y-97314929D01*
X155827433Y-97314929D02*
X155881308Y-97261054D01*
X155881308Y-97261054D02*
X155935183Y-97153304D01*
X155935183Y-97153304D02*
X155935183Y-97099429D01*
X155935183Y-97099429D02*
X155746621Y-96910868D01*
X155746621Y-96910868D02*
X155638871Y-97018617D01*
X156231494Y-96910868D02*
X155665809Y-96345182D01*
X155665809Y-96345182D02*
X155881308Y-96129683D01*
X155881308Y-96129683D02*
X155962120Y-96102746D01*
X155962120Y-96102746D02*
X156015995Y-96102746D01*
X156015995Y-96102746D02*
X156096807Y-96129683D01*
X156096807Y-96129683D02*
X156177619Y-96210495D01*
X156177619Y-96210495D02*
X156204557Y-96291307D01*
X156204557Y-96291307D02*
X156204557Y-96345182D01*
X156204557Y-96345182D02*
X156177619Y-96425994D01*
X156177619Y-96425994D02*
X155962120Y-96641494D01*
X156177619Y-95833372D02*
X156527806Y-95483185D01*
X156527806Y-95483185D02*
X156554743Y-95887246D01*
X156554743Y-95887246D02*
X156635555Y-95806434D01*
X156635555Y-95806434D02*
X156716367Y-95779497D01*
X156716367Y-95779497D02*
X156770242Y-95779497D01*
X156770242Y-95779497D02*
X156851054Y-95806434D01*
X156851054Y-95806434D02*
X156985741Y-95941121D01*
X156985741Y-95941121D02*
X157012679Y-96021933D01*
X157012679Y-96021933D02*
X157012679Y-96075808D01*
X157012679Y-96075808D02*
X156985741Y-96156620D01*
X156985741Y-96156620D02*
X156824117Y-96318245D01*
X156824117Y-96318245D02*
X156743305Y-96345182D01*
X156743305Y-96345182D02*
X156689430Y-96345182D01*
X154753998Y-122310868D02*
X154673185Y-122337805D01*
X154673185Y-122337805D02*
X154592373Y-122418618D01*
X154592373Y-122418618D02*
X154538498Y-122526367D01*
X154538498Y-122526367D02*
X154538498Y-122634117D01*
X154538498Y-122634117D02*
X154565436Y-122714929D01*
X154565436Y-122714929D02*
X154646248Y-122849616D01*
X154646248Y-122849616D02*
X154727060Y-122930428D01*
X154727060Y-122930428D02*
X154861747Y-123011241D01*
X154861747Y-123011241D02*
X154942560Y-123038178D01*
X154942560Y-123038178D02*
X155050309Y-123038178D01*
X155050309Y-123038178D02*
X155158059Y-122984303D01*
X155158059Y-122984303D02*
X155211934Y-122930428D01*
X155211934Y-122930428D02*
X155265808Y-122822679D01*
X155265808Y-122822679D02*
X155265808Y-122768804D01*
X155265808Y-122768804D02*
X155077247Y-122580242D01*
X155077247Y-122580242D02*
X154969497Y-122687992D01*
X155562120Y-122580242D02*
X154996434Y-122014557D01*
X154996434Y-122014557D02*
X155211934Y-121799057D01*
X155211934Y-121799057D02*
X155292746Y-121772120D01*
X155292746Y-121772120D02*
X155346621Y-121772120D01*
X155346621Y-121772120D02*
X155427433Y-121799057D01*
X155427433Y-121799057D02*
X155508245Y-121879870D01*
X155508245Y-121879870D02*
X155535182Y-121960682D01*
X155535182Y-121960682D02*
X155535182Y-122014557D01*
X155535182Y-122014557D02*
X155508245Y-122095369D01*
X155508245Y-122095369D02*
X155292746Y-122310868D01*
X156424117Y-121718245D02*
X156100868Y-122041494D01*
X156262492Y-121879870D02*
X155696807Y-121314184D01*
X155696807Y-121314184D02*
X155723744Y-121448871D01*
X155723744Y-121448871D02*
X155723744Y-121556621D01*
X155723744Y-121556621D02*
X155696807Y-121637433D01*
X156962865Y-121179497D02*
X156639616Y-121502746D01*
X156801240Y-121341121D02*
X156235555Y-120775436D01*
X156235555Y-120775436D02*
X156262492Y-120910123D01*
X156262492Y-120910123D02*
X156262492Y-121017873D01*
X156262492Y-121017873D02*
X156235555Y-121098685D01*
X155396435Y-116988431D02*
X155315623Y-117015368D01*
X155315623Y-117015368D02*
X155234811Y-117096180D01*
X155234811Y-117096180D02*
X155180936Y-117203930D01*
X155180936Y-117203930D02*
X155180936Y-117311680D01*
X155180936Y-117311680D02*
X155207873Y-117392492D01*
X155207873Y-117392492D02*
X155288685Y-117527179D01*
X155288685Y-117527179D02*
X155369498Y-117607991D01*
X155369498Y-117607991D02*
X155504185Y-117688803D01*
X155504185Y-117688803D02*
X155584997Y-117715741D01*
X155584997Y-117715741D02*
X155692746Y-117715741D01*
X155692746Y-117715741D02*
X155800496Y-117661866D01*
X155800496Y-117661866D02*
X155854371Y-117607991D01*
X155854371Y-117607991D02*
X155908246Y-117500241D01*
X155908246Y-117500241D02*
X155908246Y-117446367D01*
X155908246Y-117446367D02*
X155719684Y-117257805D01*
X155719684Y-117257805D02*
X155611934Y-117365554D01*
X156204557Y-117257805D02*
X155638872Y-116692119D01*
X155638872Y-116692119D02*
X156527806Y-116934556D01*
X156527806Y-116934556D02*
X155962120Y-116368871D01*
X156797180Y-116665182D02*
X156231494Y-116099497D01*
X156231494Y-116099497D02*
X156366181Y-115964810D01*
X156366181Y-115964810D02*
X156473931Y-115910935D01*
X156473931Y-115910935D02*
X156581680Y-115910935D01*
X156581680Y-115910935D02*
X156662493Y-115937872D01*
X156662493Y-115937872D02*
X156797180Y-116018685D01*
X156797180Y-116018685D02*
X156877992Y-116099497D01*
X156877992Y-116099497D02*
X156958804Y-116234184D01*
X156958804Y-116234184D02*
X156985741Y-116314996D01*
X156985741Y-116314996D02*
X156985741Y-116422746D01*
X156985741Y-116422746D02*
X156931867Y-116530495D01*
X156931867Y-116530495D02*
X156797180Y-116665182D01*
X161400475Y-137014200D02*
X161514761Y-137052295D01*
X161514761Y-137052295D02*
X161705237Y-137052295D01*
X161705237Y-137052295D02*
X161781428Y-137014200D01*
X161781428Y-137014200D02*
X161819523Y-136976104D01*
X161819523Y-136976104D02*
X161857618Y-136899914D01*
X161857618Y-136899914D02*
X161857618Y-136823723D01*
X161857618Y-136823723D02*
X161819523Y-136747533D01*
X161819523Y-136747533D02*
X161781428Y-136709438D01*
X161781428Y-136709438D02*
X161705237Y-136671342D01*
X161705237Y-136671342D02*
X161552856Y-136633247D01*
X161552856Y-136633247D02*
X161476666Y-136595152D01*
X161476666Y-136595152D02*
X161438571Y-136557057D01*
X161438571Y-136557057D02*
X161400475Y-136480866D01*
X161400475Y-136480866D02*
X161400475Y-136404676D01*
X161400475Y-136404676D02*
X161438571Y-136328485D01*
X161438571Y-136328485D02*
X161476666Y-136290390D01*
X161476666Y-136290390D02*
X161552856Y-136252295D01*
X161552856Y-136252295D02*
X161743333Y-136252295D01*
X161743333Y-136252295D02*
X161857618Y-136290390D01*
X162124285Y-136252295D02*
X162314761Y-137052295D01*
X162314761Y-137052295D02*
X162467142Y-136480866D01*
X162467142Y-136480866D02*
X162619523Y-137052295D01*
X162619523Y-137052295D02*
X162810000Y-136252295D01*
X163571905Y-136976104D02*
X163533809Y-137014200D01*
X163533809Y-137014200D02*
X163419524Y-137052295D01*
X163419524Y-137052295D02*
X163343333Y-137052295D01*
X163343333Y-137052295D02*
X163229047Y-137014200D01*
X163229047Y-137014200D02*
X163152857Y-136938009D01*
X163152857Y-136938009D02*
X163114762Y-136861819D01*
X163114762Y-136861819D02*
X163076666Y-136709438D01*
X163076666Y-136709438D02*
X163076666Y-136595152D01*
X163076666Y-136595152D02*
X163114762Y-136442771D01*
X163114762Y-136442771D02*
X163152857Y-136366580D01*
X163152857Y-136366580D02*
X163229047Y-136290390D01*
X163229047Y-136290390D02*
X163343333Y-136252295D01*
X163343333Y-136252295D02*
X163419524Y-136252295D01*
X163419524Y-136252295D02*
X163533809Y-136290390D01*
X163533809Y-136290390D02*
X163571905Y-136328485D01*
X164295714Y-137052295D02*
X163914762Y-137052295D01*
X163914762Y-137052295D02*
X163914762Y-136252295D01*
X164562381Y-137052295D02*
X164562381Y-136252295D01*
X165019524Y-137052295D02*
X164676666Y-136595152D01*
X165019524Y-136252295D02*
X164562381Y-136709438D01*
X181007998Y-114690868D02*
X180927185Y-114717805D01*
X180927185Y-114717805D02*
X180846373Y-114798618D01*
X180846373Y-114798618D02*
X180792498Y-114906367D01*
X180792498Y-114906367D02*
X180792498Y-115014117D01*
X180792498Y-115014117D02*
X180819436Y-115094929D01*
X180819436Y-115094929D02*
X180900248Y-115229616D01*
X180900248Y-115229616D02*
X180981060Y-115310428D01*
X180981060Y-115310428D02*
X181115747Y-115391241D01*
X181115747Y-115391241D02*
X181196560Y-115418178D01*
X181196560Y-115418178D02*
X181304309Y-115418178D01*
X181304309Y-115418178D02*
X181412059Y-115364303D01*
X181412059Y-115364303D02*
X181465934Y-115310428D01*
X181465934Y-115310428D02*
X181519808Y-115202679D01*
X181519808Y-115202679D02*
X181519808Y-115148804D01*
X181519808Y-115148804D02*
X181331247Y-114960242D01*
X181331247Y-114960242D02*
X181223497Y-115067992D01*
X181816120Y-114960242D02*
X181250434Y-114394557D01*
X181250434Y-114394557D02*
X181465934Y-114179057D01*
X181465934Y-114179057D02*
X181546746Y-114152120D01*
X181546746Y-114152120D02*
X181600621Y-114152120D01*
X181600621Y-114152120D02*
X181681433Y-114179057D01*
X181681433Y-114179057D02*
X181762245Y-114259870D01*
X181762245Y-114259870D02*
X181789182Y-114340682D01*
X181789182Y-114340682D02*
X181789182Y-114394557D01*
X181789182Y-114394557D02*
X181762245Y-114475369D01*
X181762245Y-114475369D02*
X181546746Y-114690868D01*
X181843057Y-113909683D02*
X181843057Y-113855809D01*
X181843057Y-113855809D02*
X181869995Y-113774996D01*
X181869995Y-113774996D02*
X182004682Y-113640309D01*
X182004682Y-113640309D02*
X182085494Y-113613372D01*
X182085494Y-113613372D02*
X182139369Y-113613372D01*
X182139369Y-113613372D02*
X182220181Y-113640309D01*
X182220181Y-113640309D02*
X182274056Y-113694184D01*
X182274056Y-113694184D02*
X182327930Y-113801934D01*
X182327930Y-113801934D02*
X182327930Y-114448431D01*
X182327930Y-114448431D02*
X182678117Y-114098245D01*
X182381805Y-113370935D02*
X182381805Y-113317060D01*
X182381805Y-113317060D02*
X182408743Y-113236248D01*
X182408743Y-113236248D02*
X182543430Y-113101561D01*
X182543430Y-113101561D02*
X182624242Y-113074624D01*
X182624242Y-113074624D02*
X182678117Y-113074624D01*
X182678117Y-113074624D02*
X182758929Y-113101561D01*
X182758929Y-113101561D02*
X182812804Y-113155436D01*
X182812804Y-113155436D02*
X182866679Y-113263186D01*
X182866679Y-113263186D02*
X182866679Y-113909683D01*
X182866679Y-113909683D02*
X183216865Y-113559497D01*
X180863406Y-87017585D02*
X181617653Y-87394709D01*
X181617653Y-87394709D02*
X181240529Y-86640462D01*
X181887027Y-86532712D02*
X181994776Y-86478838D01*
X181994776Y-86478838D02*
X182048651Y-86478838D01*
X182048651Y-86478838D02*
X182129463Y-86505775D01*
X182129463Y-86505775D02*
X182210276Y-86586587D01*
X182210276Y-86586587D02*
X182237213Y-86667399D01*
X182237213Y-86667399D02*
X182237213Y-86721274D01*
X182237213Y-86721274D02*
X182210276Y-86802086D01*
X182210276Y-86802086D02*
X181994776Y-87017586D01*
X181994776Y-87017586D02*
X181429091Y-86451900D01*
X181429091Y-86451900D02*
X181617653Y-86263338D01*
X181617653Y-86263338D02*
X181698465Y-86236401D01*
X181698465Y-86236401D02*
X181752340Y-86236401D01*
X181752340Y-86236401D02*
X181833152Y-86263338D01*
X181833152Y-86263338D02*
X181887027Y-86317213D01*
X181887027Y-86317213D02*
X181913964Y-86398025D01*
X181913964Y-86398025D02*
X181913964Y-86451900D01*
X181913964Y-86451900D02*
X181887027Y-86532712D01*
X181887027Y-86532712D02*
X181698465Y-86721274D01*
X181994776Y-85886215D02*
X182452712Y-86344151D01*
X182452712Y-86344151D02*
X182533524Y-86371088D01*
X182533524Y-86371088D02*
X182587399Y-86371088D01*
X182587399Y-86371088D02*
X182668211Y-86344151D01*
X182668211Y-86344151D02*
X182775961Y-86236401D01*
X182775961Y-86236401D02*
X182802898Y-86155589D01*
X182802898Y-86155589D02*
X182802898Y-86101714D01*
X182802898Y-86101714D02*
X182775961Y-86020902D01*
X182775961Y-86020902D02*
X182318025Y-85562966D01*
X183099210Y-85859277D02*
X183206959Y-85805403D01*
X183206959Y-85805403D02*
X183341646Y-85670716D01*
X183341646Y-85670716D02*
X183368584Y-85589903D01*
X183368584Y-85589903D02*
X183368584Y-85536029D01*
X183368584Y-85536029D02*
X183341646Y-85455216D01*
X183341646Y-85455216D02*
X183287771Y-85401342D01*
X183287771Y-85401342D02*
X183206959Y-85374404D01*
X183206959Y-85374404D02*
X183153084Y-85374404D01*
X183153084Y-85374404D02*
X183072272Y-85401342D01*
X183072272Y-85401342D02*
X182937585Y-85482154D01*
X182937585Y-85482154D02*
X182856773Y-85509091D01*
X182856773Y-85509091D02*
X182802898Y-85509091D01*
X182802898Y-85509091D02*
X182722086Y-85482154D01*
X182722086Y-85482154D02*
X182668211Y-85428279D01*
X182668211Y-85428279D02*
X182641274Y-85347467D01*
X182641274Y-85347467D02*
X182641274Y-85293592D01*
X182641274Y-85293592D02*
X182668211Y-85212780D01*
X182668211Y-85212780D02*
X182802898Y-85078093D01*
X182802898Y-85078093D02*
X182910648Y-85024218D01*
X155396435Y-129688431D02*
X155315623Y-129715368D01*
X155315623Y-129715368D02*
X155234811Y-129796180D01*
X155234811Y-129796180D02*
X155180936Y-129903930D01*
X155180936Y-129903930D02*
X155180936Y-130011680D01*
X155180936Y-130011680D02*
X155207873Y-130092492D01*
X155207873Y-130092492D02*
X155288685Y-130227179D01*
X155288685Y-130227179D02*
X155369498Y-130307991D01*
X155369498Y-130307991D02*
X155504185Y-130388803D01*
X155504185Y-130388803D02*
X155584997Y-130415741D01*
X155584997Y-130415741D02*
X155692746Y-130415741D01*
X155692746Y-130415741D02*
X155800496Y-130361866D01*
X155800496Y-130361866D02*
X155854371Y-130307991D01*
X155854371Y-130307991D02*
X155908246Y-130200241D01*
X155908246Y-130200241D02*
X155908246Y-130146367D01*
X155908246Y-130146367D02*
X155719684Y-129957805D01*
X155719684Y-129957805D02*
X155611934Y-130065554D01*
X156204557Y-129957805D02*
X155638872Y-129392119D01*
X155638872Y-129392119D02*
X156527806Y-129634556D01*
X156527806Y-129634556D02*
X155962120Y-129068871D01*
X156797180Y-129365182D02*
X156231494Y-128799497D01*
X156231494Y-128799497D02*
X156366181Y-128664810D01*
X156366181Y-128664810D02*
X156473931Y-128610935D01*
X156473931Y-128610935D02*
X156581680Y-128610935D01*
X156581680Y-128610935D02*
X156662493Y-128637872D01*
X156662493Y-128637872D02*
X156797180Y-128718685D01*
X156797180Y-128718685D02*
X156877992Y-128799497D01*
X156877992Y-128799497D02*
X156958804Y-128934184D01*
X156958804Y-128934184D02*
X156985741Y-129014996D01*
X156985741Y-129014996D02*
X156985741Y-129122746D01*
X156985741Y-129122746D02*
X156931867Y-129230495D01*
X156931867Y-129230495D02*
X156797180Y-129365182D01*
X181061873Y-105231240D02*
X181331247Y-104961866D01*
X181169623Y-105446739D02*
X180792499Y-104692492D01*
X180792499Y-104692492D02*
X181546746Y-105069615D01*
X181492871Y-104045994D02*
X181412059Y-104072932D01*
X181412059Y-104072932D02*
X181331247Y-104153744D01*
X181331247Y-104153744D02*
X181277372Y-104261494D01*
X181277372Y-104261494D02*
X181277372Y-104369243D01*
X181277372Y-104369243D02*
X181304310Y-104450055D01*
X181304310Y-104450055D02*
X181385122Y-104584742D01*
X181385122Y-104584742D02*
X181465934Y-104665555D01*
X181465934Y-104665555D02*
X181600621Y-104746367D01*
X181600621Y-104746367D02*
X181681433Y-104773304D01*
X181681433Y-104773304D02*
X181789183Y-104773304D01*
X181789183Y-104773304D02*
X181896932Y-104719429D01*
X181896932Y-104719429D02*
X181950807Y-104665555D01*
X181950807Y-104665555D02*
X182004682Y-104557805D01*
X182004682Y-104557805D02*
X182004682Y-104503930D01*
X182004682Y-104503930D02*
X181816120Y-104315368D01*
X181816120Y-104315368D02*
X181708371Y-104423118D01*
X182300993Y-104315368D02*
X181735308Y-103749683D01*
X181735308Y-103749683D02*
X182624242Y-103992120D01*
X182624242Y-103992120D02*
X182058557Y-103426434D01*
X182893616Y-103722746D02*
X182327931Y-103157060D01*
X182327931Y-103157060D02*
X182462618Y-103022373D01*
X182462618Y-103022373D02*
X182570367Y-102968498D01*
X182570367Y-102968498D02*
X182678117Y-102968498D01*
X182678117Y-102968498D02*
X182758929Y-102995436D01*
X182758929Y-102995436D02*
X182893616Y-103076248D01*
X182893616Y-103076248D02*
X182974428Y-103157060D01*
X182974428Y-103157060D02*
X183055241Y-103291747D01*
X183055241Y-103291747D02*
X183082178Y-103372560D01*
X183082178Y-103372560D02*
X183082178Y-103480309D01*
X183082178Y-103480309D02*
X183028303Y-103588059D01*
X183028303Y-103588059D02*
X182893616Y-103722746D01*
X155423372Y-111881494D02*
X155342560Y-111908431D01*
X155342560Y-111908431D02*
X155261748Y-111989243D01*
X155261748Y-111989243D02*
X155207873Y-112096993D01*
X155207873Y-112096993D02*
X155207873Y-112204742D01*
X155207873Y-112204742D02*
X155234810Y-112285555D01*
X155234810Y-112285555D02*
X155315623Y-112420242D01*
X155315623Y-112420242D02*
X155396435Y-112501054D01*
X155396435Y-112501054D02*
X155531122Y-112581866D01*
X155531122Y-112581866D02*
X155611934Y-112608803D01*
X155611934Y-112608803D02*
X155719684Y-112608803D01*
X155719684Y-112608803D02*
X155827433Y-112554929D01*
X155827433Y-112554929D02*
X155881308Y-112501054D01*
X155881308Y-112501054D02*
X155935183Y-112393304D01*
X155935183Y-112393304D02*
X155935183Y-112339429D01*
X155935183Y-112339429D02*
X155746621Y-112150868D01*
X155746621Y-112150868D02*
X155638871Y-112258617D01*
X156231494Y-112150868D02*
X155665809Y-111585182D01*
X155665809Y-111585182D02*
X155881308Y-111369683D01*
X155881308Y-111369683D02*
X155962120Y-111342746D01*
X155962120Y-111342746D02*
X156015995Y-111342746D01*
X156015995Y-111342746D02*
X156096807Y-111369683D01*
X156096807Y-111369683D02*
X156177619Y-111450495D01*
X156177619Y-111450495D02*
X156204557Y-111531307D01*
X156204557Y-111531307D02*
X156204557Y-111585182D01*
X156204557Y-111585182D02*
X156177619Y-111665994D01*
X156177619Y-111665994D02*
X155962120Y-111881494D01*
X156554743Y-111181121D02*
X156473931Y-111208059D01*
X156473931Y-111208059D02*
X156420056Y-111208059D01*
X156420056Y-111208059D02*
X156339244Y-111181121D01*
X156339244Y-111181121D02*
X156312306Y-111154184D01*
X156312306Y-111154184D02*
X156285369Y-111073372D01*
X156285369Y-111073372D02*
X156285369Y-111019497D01*
X156285369Y-111019497D02*
X156312306Y-110938685D01*
X156312306Y-110938685D02*
X156420056Y-110830935D01*
X156420056Y-110830935D02*
X156500868Y-110803998D01*
X156500868Y-110803998D02*
X156554743Y-110803998D01*
X156554743Y-110803998D02*
X156635555Y-110830935D01*
X156635555Y-110830935D02*
X156662493Y-110857872D01*
X156662493Y-110857872D02*
X156689430Y-110938685D01*
X156689430Y-110938685D02*
X156689430Y-110992559D01*
X156689430Y-110992559D02*
X156662493Y-111073372D01*
X156662493Y-111073372D02*
X156554743Y-111181121D01*
X156554743Y-111181121D02*
X156527806Y-111261933D01*
X156527806Y-111261933D02*
X156527806Y-111315808D01*
X156527806Y-111315808D02*
X156554743Y-111396620D01*
X156554743Y-111396620D02*
X156662493Y-111504370D01*
X156662493Y-111504370D02*
X156743305Y-111531307D01*
X156743305Y-111531307D02*
X156797180Y-111531307D01*
X156797180Y-111531307D02*
X156877992Y-111504370D01*
X156877992Y-111504370D02*
X156985741Y-111396620D01*
X156985741Y-111396620D02*
X157012679Y-111315808D01*
X157012679Y-111315808D02*
X157012679Y-111261933D01*
X157012679Y-111261933D02*
X156985741Y-111181121D01*
X156985741Y-111181121D02*
X156877992Y-111073372D01*
X156877992Y-111073372D02*
X156797180Y-111046434D01*
X156797180Y-111046434D02*
X156743305Y-111046434D01*
X156743305Y-111046434D02*
X156662493Y-111073372D01*
X180996435Y-129688431D02*
X180915623Y-129715368D01*
X180915623Y-129715368D02*
X180834811Y-129796180D01*
X180834811Y-129796180D02*
X180780936Y-129903930D01*
X180780936Y-129903930D02*
X180780936Y-130011680D01*
X180780936Y-130011680D02*
X180807873Y-130092492D01*
X180807873Y-130092492D02*
X180888685Y-130227179D01*
X180888685Y-130227179D02*
X180969498Y-130307991D01*
X180969498Y-130307991D02*
X181104185Y-130388803D01*
X181104185Y-130388803D02*
X181184997Y-130415741D01*
X181184997Y-130415741D02*
X181292746Y-130415741D01*
X181292746Y-130415741D02*
X181400496Y-130361866D01*
X181400496Y-130361866D02*
X181454371Y-130307991D01*
X181454371Y-130307991D02*
X181508246Y-130200241D01*
X181508246Y-130200241D02*
X181508246Y-130146367D01*
X181508246Y-130146367D02*
X181319684Y-129957805D01*
X181319684Y-129957805D02*
X181211934Y-130065554D01*
X181804557Y-129957805D02*
X181238872Y-129392119D01*
X181238872Y-129392119D02*
X182127806Y-129634556D01*
X182127806Y-129634556D02*
X181562120Y-129068871D01*
X182397180Y-129365182D02*
X181831494Y-128799497D01*
X181831494Y-128799497D02*
X181966181Y-128664810D01*
X181966181Y-128664810D02*
X182073931Y-128610935D01*
X182073931Y-128610935D02*
X182181680Y-128610935D01*
X182181680Y-128610935D02*
X182262493Y-128637872D01*
X182262493Y-128637872D02*
X182397180Y-128718685D01*
X182397180Y-128718685D02*
X182477992Y-128799497D01*
X182477992Y-128799497D02*
X182558804Y-128934184D01*
X182558804Y-128934184D02*
X182585741Y-129014996D01*
X182585741Y-129014996D02*
X182585741Y-129122746D01*
X182585741Y-129122746D02*
X182531867Y-129230495D01*
X182531867Y-129230495D02*
X182397180Y-129365182D01*
X155423372Y-114421494D02*
X155342560Y-114448431D01*
X155342560Y-114448431D02*
X155261748Y-114529243D01*
X155261748Y-114529243D02*
X155207873Y-114636993D01*
X155207873Y-114636993D02*
X155207873Y-114744742D01*
X155207873Y-114744742D02*
X155234810Y-114825555D01*
X155234810Y-114825555D02*
X155315623Y-114960242D01*
X155315623Y-114960242D02*
X155396435Y-115041054D01*
X155396435Y-115041054D02*
X155531122Y-115121866D01*
X155531122Y-115121866D02*
X155611934Y-115148803D01*
X155611934Y-115148803D02*
X155719684Y-115148803D01*
X155719684Y-115148803D02*
X155827433Y-115094929D01*
X155827433Y-115094929D02*
X155881308Y-115041054D01*
X155881308Y-115041054D02*
X155935183Y-114933304D01*
X155935183Y-114933304D02*
X155935183Y-114879429D01*
X155935183Y-114879429D02*
X155746621Y-114690868D01*
X155746621Y-114690868D02*
X155638871Y-114798617D01*
X156231494Y-114690868D02*
X155665809Y-114125182D01*
X155665809Y-114125182D02*
X155881308Y-113909683D01*
X155881308Y-113909683D02*
X155962120Y-113882746D01*
X155962120Y-113882746D02*
X156015995Y-113882746D01*
X156015995Y-113882746D02*
X156096807Y-113909683D01*
X156096807Y-113909683D02*
X156177619Y-113990495D01*
X156177619Y-113990495D02*
X156204557Y-114071307D01*
X156204557Y-114071307D02*
X156204557Y-114125182D01*
X156204557Y-114125182D02*
X156177619Y-114205994D01*
X156177619Y-114205994D02*
X155962120Y-114421494D01*
X156824117Y-114098245D02*
X156931867Y-113990495D01*
X156931867Y-113990495D02*
X156958804Y-113909683D01*
X156958804Y-113909683D02*
X156958804Y-113855808D01*
X156958804Y-113855808D02*
X156931867Y-113721121D01*
X156931867Y-113721121D02*
X156851054Y-113586434D01*
X156851054Y-113586434D02*
X156635555Y-113370935D01*
X156635555Y-113370935D02*
X156554743Y-113343998D01*
X156554743Y-113343998D02*
X156500868Y-113343998D01*
X156500868Y-113343998D02*
X156420056Y-113370935D01*
X156420056Y-113370935D02*
X156312306Y-113478685D01*
X156312306Y-113478685D02*
X156285369Y-113559497D01*
X156285369Y-113559497D02*
X156285369Y-113613372D01*
X156285369Y-113613372D02*
X156312306Y-113694184D01*
X156312306Y-113694184D02*
X156446993Y-113828871D01*
X156446993Y-113828871D02*
X156527806Y-113855808D01*
X156527806Y-113855808D02*
X156581680Y-113855808D01*
X156581680Y-113855808D02*
X156662493Y-113828871D01*
X156662493Y-113828871D02*
X156770242Y-113721121D01*
X156770242Y-113721121D02*
X156797180Y-113640309D01*
X156797180Y-113640309D02*
X156797180Y-113586434D01*
X156797180Y-113586434D02*
X156770242Y-113505622D01*
X154753998Y-124850868D02*
X154673185Y-124877805D01*
X154673185Y-124877805D02*
X154592373Y-124958618D01*
X154592373Y-124958618D02*
X154538498Y-125066367D01*
X154538498Y-125066367D02*
X154538498Y-125174117D01*
X154538498Y-125174117D02*
X154565436Y-125254929D01*
X154565436Y-125254929D02*
X154646248Y-125389616D01*
X154646248Y-125389616D02*
X154727060Y-125470428D01*
X154727060Y-125470428D02*
X154861747Y-125551241D01*
X154861747Y-125551241D02*
X154942560Y-125578178D01*
X154942560Y-125578178D02*
X155050309Y-125578178D01*
X155050309Y-125578178D02*
X155158059Y-125524303D01*
X155158059Y-125524303D02*
X155211934Y-125470428D01*
X155211934Y-125470428D02*
X155265808Y-125362679D01*
X155265808Y-125362679D02*
X155265808Y-125308804D01*
X155265808Y-125308804D02*
X155077247Y-125120242D01*
X155077247Y-125120242D02*
X154969497Y-125227992D01*
X155562120Y-125120242D02*
X154996434Y-124554557D01*
X154996434Y-124554557D02*
X155211934Y-124339057D01*
X155211934Y-124339057D02*
X155292746Y-124312120D01*
X155292746Y-124312120D02*
X155346621Y-124312120D01*
X155346621Y-124312120D02*
X155427433Y-124339057D01*
X155427433Y-124339057D02*
X155508245Y-124419870D01*
X155508245Y-124419870D02*
X155535182Y-124500682D01*
X155535182Y-124500682D02*
X155535182Y-124554557D01*
X155535182Y-124554557D02*
X155508245Y-124635369D01*
X155508245Y-124635369D02*
X155292746Y-124850868D01*
X156424117Y-124258245D02*
X156100868Y-124581494D01*
X156262492Y-124419870D02*
X155696807Y-123854184D01*
X155696807Y-123854184D02*
X155723744Y-123988871D01*
X155723744Y-123988871D02*
X155723744Y-124096621D01*
X155723744Y-124096621D02*
X155696807Y-124177433D01*
X156127805Y-123530935D02*
X156127805Y-123477060D01*
X156127805Y-123477060D02*
X156154743Y-123396248D01*
X156154743Y-123396248D02*
X156289430Y-123261561D01*
X156289430Y-123261561D02*
X156370242Y-123234624D01*
X156370242Y-123234624D02*
X156424117Y-123234624D01*
X156424117Y-123234624D02*
X156504929Y-123261561D01*
X156504929Y-123261561D02*
X156558804Y-123315436D01*
X156558804Y-123315436D02*
X156612679Y-123423186D01*
X156612679Y-123423186D02*
X156612679Y-124069683D01*
X156612679Y-124069683D02*
X156962865Y-123719497D01*
X155323372Y-89011494D02*
X155242560Y-89038431D01*
X155242560Y-89038431D02*
X155161748Y-89119243D01*
X155161748Y-89119243D02*
X155107873Y-89226993D01*
X155107873Y-89226993D02*
X155107873Y-89334742D01*
X155107873Y-89334742D02*
X155134810Y-89415555D01*
X155134810Y-89415555D02*
X155215623Y-89550242D01*
X155215623Y-89550242D02*
X155296435Y-89631054D01*
X155296435Y-89631054D02*
X155431122Y-89711866D01*
X155431122Y-89711866D02*
X155511934Y-89738803D01*
X155511934Y-89738803D02*
X155619684Y-89738803D01*
X155619684Y-89738803D02*
X155727433Y-89684929D01*
X155727433Y-89684929D02*
X155781308Y-89631054D01*
X155781308Y-89631054D02*
X155835183Y-89523304D01*
X155835183Y-89523304D02*
X155835183Y-89469429D01*
X155835183Y-89469429D02*
X155646621Y-89280868D01*
X155646621Y-89280868D02*
X155538871Y-89388617D01*
X156131494Y-89280868D02*
X155565809Y-88715182D01*
X155565809Y-88715182D02*
X155781308Y-88499683D01*
X155781308Y-88499683D02*
X155862120Y-88472746D01*
X155862120Y-88472746D02*
X155915995Y-88472746D01*
X155915995Y-88472746D02*
X155996807Y-88499683D01*
X155996807Y-88499683D02*
X156077619Y-88580495D01*
X156077619Y-88580495D02*
X156104557Y-88661307D01*
X156104557Y-88661307D02*
X156104557Y-88715182D01*
X156104557Y-88715182D02*
X156077619Y-88795994D01*
X156077619Y-88795994D02*
X155862120Y-89011494D01*
X156993491Y-88418871D02*
X156670242Y-88742120D01*
X156831867Y-88580495D02*
X156266181Y-88014810D01*
X156266181Y-88014810D02*
X156293119Y-88149497D01*
X156293119Y-88149497D02*
X156293119Y-88257246D01*
X156293119Y-88257246D02*
X156266181Y-88338059D01*
X181007998Y-107080868D02*
X180927185Y-107107805D01*
X180927185Y-107107805D02*
X180846373Y-107188618D01*
X180846373Y-107188618D02*
X180792498Y-107296367D01*
X180792498Y-107296367D02*
X180792498Y-107404117D01*
X180792498Y-107404117D02*
X180819436Y-107484929D01*
X180819436Y-107484929D02*
X180900248Y-107619616D01*
X180900248Y-107619616D02*
X180981060Y-107700428D01*
X180981060Y-107700428D02*
X181115747Y-107781241D01*
X181115747Y-107781241D02*
X181196560Y-107808178D01*
X181196560Y-107808178D02*
X181304309Y-107808178D01*
X181304309Y-107808178D02*
X181412059Y-107754303D01*
X181412059Y-107754303D02*
X181465934Y-107700428D01*
X181465934Y-107700428D02*
X181519808Y-107592679D01*
X181519808Y-107592679D02*
X181519808Y-107538804D01*
X181519808Y-107538804D02*
X181331247Y-107350242D01*
X181331247Y-107350242D02*
X181223497Y-107457992D01*
X181816120Y-107350242D02*
X181250434Y-106784557D01*
X181250434Y-106784557D02*
X181465934Y-106569057D01*
X181465934Y-106569057D02*
X181546746Y-106542120D01*
X181546746Y-106542120D02*
X181600621Y-106542120D01*
X181600621Y-106542120D02*
X181681433Y-106569057D01*
X181681433Y-106569057D02*
X181762245Y-106649870D01*
X181762245Y-106649870D02*
X181789182Y-106730682D01*
X181789182Y-106730682D02*
X181789182Y-106784557D01*
X181789182Y-106784557D02*
X181762245Y-106865369D01*
X181762245Y-106865369D02*
X181546746Y-107080868D01*
X181843057Y-106299683D02*
X181843057Y-106245809D01*
X181843057Y-106245809D02*
X181869995Y-106164996D01*
X181869995Y-106164996D02*
X182004682Y-106030309D01*
X182004682Y-106030309D02*
X182085494Y-106003372D01*
X182085494Y-106003372D02*
X182139369Y-106003372D01*
X182139369Y-106003372D02*
X182220181Y-106030309D01*
X182220181Y-106030309D02*
X182274056Y-106084184D01*
X182274056Y-106084184D02*
X182327930Y-106191934D01*
X182327930Y-106191934D02*
X182327930Y-106838431D01*
X182327930Y-106838431D02*
X182678117Y-106488245D01*
X182300993Y-105733998D02*
X182678117Y-105356874D01*
X182678117Y-105356874D02*
X183001366Y-106164996D01*
X181007998Y-132470868D02*
X180927185Y-132497805D01*
X180927185Y-132497805D02*
X180846373Y-132578618D01*
X180846373Y-132578618D02*
X180792498Y-132686367D01*
X180792498Y-132686367D02*
X180792498Y-132794117D01*
X180792498Y-132794117D02*
X180819436Y-132874929D01*
X180819436Y-132874929D02*
X180900248Y-133009616D01*
X180900248Y-133009616D02*
X180981060Y-133090428D01*
X180981060Y-133090428D02*
X181115747Y-133171241D01*
X181115747Y-133171241D02*
X181196560Y-133198178D01*
X181196560Y-133198178D02*
X181304309Y-133198178D01*
X181304309Y-133198178D02*
X181412059Y-133144303D01*
X181412059Y-133144303D02*
X181465934Y-133090428D01*
X181465934Y-133090428D02*
X181519808Y-132982679D01*
X181519808Y-132982679D02*
X181519808Y-132928804D01*
X181519808Y-132928804D02*
X181331247Y-132740242D01*
X181331247Y-132740242D02*
X181223497Y-132847992D01*
X181816120Y-132740242D02*
X181250434Y-132174557D01*
X181250434Y-132174557D02*
X181465934Y-131959057D01*
X181465934Y-131959057D02*
X181546746Y-131932120D01*
X181546746Y-131932120D02*
X181600621Y-131932120D01*
X181600621Y-131932120D02*
X181681433Y-131959057D01*
X181681433Y-131959057D02*
X181762245Y-132039870D01*
X181762245Y-132039870D02*
X181789182Y-132120682D01*
X181789182Y-132120682D02*
X181789182Y-132174557D01*
X181789182Y-132174557D02*
X181762245Y-132255369D01*
X181762245Y-132255369D02*
X181546746Y-132470868D01*
X182678117Y-131878245D02*
X182354868Y-132201494D01*
X182516492Y-132039870D02*
X181950807Y-131474184D01*
X181950807Y-131474184D02*
X181977744Y-131608871D01*
X181977744Y-131608871D02*
X181977744Y-131716621D01*
X181977744Y-131716621D02*
X181950807Y-131797433D01*
X182300993Y-131123998D02*
X182678117Y-130746874D01*
X182678117Y-130746874D02*
X183001366Y-131554996D01*
X181007998Y-127390868D02*
X180927185Y-127417805D01*
X180927185Y-127417805D02*
X180846373Y-127498618D01*
X180846373Y-127498618D02*
X180792498Y-127606367D01*
X180792498Y-127606367D02*
X180792498Y-127714117D01*
X180792498Y-127714117D02*
X180819436Y-127794929D01*
X180819436Y-127794929D02*
X180900248Y-127929616D01*
X180900248Y-127929616D02*
X180981060Y-128010428D01*
X180981060Y-128010428D02*
X181115747Y-128091241D01*
X181115747Y-128091241D02*
X181196560Y-128118178D01*
X181196560Y-128118178D02*
X181304309Y-128118178D01*
X181304309Y-128118178D02*
X181412059Y-128064303D01*
X181412059Y-128064303D02*
X181465934Y-128010428D01*
X181465934Y-128010428D02*
X181519808Y-127902679D01*
X181519808Y-127902679D02*
X181519808Y-127848804D01*
X181519808Y-127848804D02*
X181331247Y-127660242D01*
X181331247Y-127660242D02*
X181223497Y-127767992D01*
X181816120Y-127660242D02*
X181250434Y-127094557D01*
X181250434Y-127094557D02*
X181465934Y-126879057D01*
X181465934Y-126879057D02*
X181546746Y-126852120D01*
X181546746Y-126852120D02*
X181600621Y-126852120D01*
X181600621Y-126852120D02*
X181681433Y-126879057D01*
X181681433Y-126879057D02*
X181762245Y-126959870D01*
X181762245Y-126959870D02*
X181789182Y-127040682D01*
X181789182Y-127040682D02*
X181789182Y-127094557D01*
X181789182Y-127094557D02*
X181762245Y-127175369D01*
X181762245Y-127175369D02*
X181546746Y-127390868D01*
X182678117Y-126798245D02*
X182354868Y-127121494D01*
X182516492Y-126959870D02*
X181950807Y-126394184D01*
X181950807Y-126394184D02*
X181977744Y-126528871D01*
X181977744Y-126528871D02*
X181977744Y-126636621D01*
X181977744Y-126636621D02*
X181950807Y-126717433D01*
X182678117Y-126151747D02*
X182597305Y-126178685D01*
X182597305Y-126178685D02*
X182543430Y-126178685D01*
X182543430Y-126178685D02*
X182462618Y-126151747D01*
X182462618Y-126151747D02*
X182435680Y-126124810D01*
X182435680Y-126124810D02*
X182408743Y-126043998D01*
X182408743Y-126043998D02*
X182408743Y-125990123D01*
X182408743Y-125990123D02*
X182435680Y-125909311D01*
X182435680Y-125909311D02*
X182543430Y-125801561D01*
X182543430Y-125801561D02*
X182624242Y-125774624D01*
X182624242Y-125774624D02*
X182678117Y-125774624D01*
X182678117Y-125774624D02*
X182758929Y-125801561D01*
X182758929Y-125801561D02*
X182785866Y-125828499D01*
X182785866Y-125828499D02*
X182812804Y-125909311D01*
X182812804Y-125909311D02*
X182812804Y-125963186D01*
X182812804Y-125963186D02*
X182785866Y-126043998D01*
X182785866Y-126043998D02*
X182678117Y-126151747D01*
X182678117Y-126151747D02*
X182651179Y-126232560D01*
X182651179Y-126232560D02*
X182651179Y-126286434D01*
X182651179Y-126286434D02*
X182678117Y-126367247D01*
X182678117Y-126367247D02*
X182785866Y-126474996D01*
X182785866Y-126474996D02*
X182866679Y-126501934D01*
X182866679Y-126501934D02*
X182920553Y-126501934D01*
X182920553Y-126501934D02*
X183001366Y-126474996D01*
X183001366Y-126474996D02*
X183109115Y-126367247D01*
X183109115Y-126367247D02*
X183136053Y-126286434D01*
X183136053Y-126286434D02*
X183136053Y-126232560D01*
X183136053Y-126232560D02*
X183109115Y-126151747D01*
X183109115Y-126151747D02*
X183001366Y-126043998D01*
X183001366Y-126043998D02*
X182920553Y-126017060D01*
X182920553Y-126017060D02*
X182866679Y-126017060D01*
X182866679Y-126017060D02*
X182785866Y-126043998D01*
X181007998Y-109610868D02*
X180927185Y-109637805D01*
X180927185Y-109637805D02*
X180846373Y-109718618D01*
X180846373Y-109718618D02*
X180792498Y-109826367D01*
X180792498Y-109826367D02*
X180792498Y-109934117D01*
X180792498Y-109934117D02*
X180819436Y-110014929D01*
X180819436Y-110014929D02*
X180900248Y-110149616D01*
X180900248Y-110149616D02*
X180981060Y-110230428D01*
X180981060Y-110230428D02*
X181115747Y-110311241D01*
X181115747Y-110311241D02*
X181196560Y-110338178D01*
X181196560Y-110338178D02*
X181304309Y-110338178D01*
X181304309Y-110338178D02*
X181412059Y-110284303D01*
X181412059Y-110284303D02*
X181465934Y-110230428D01*
X181465934Y-110230428D02*
X181519808Y-110122679D01*
X181519808Y-110122679D02*
X181519808Y-110068804D01*
X181519808Y-110068804D02*
X181331247Y-109880242D01*
X181331247Y-109880242D02*
X181223497Y-109987992D01*
X181816120Y-109880242D02*
X181250434Y-109314557D01*
X181250434Y-109314557D02*
X181465934Y-109099057D01*
X181465934Y-109099057D02*
X181546746Y-109072120D01*
X181546746Y-109072120D02*
X181600621Y-109072120D01*
X181600621Y-109072120D02*
X181681433Y-109099057D01*
X181681433Y-109099057D02*
X181762245Y-109179870D01*
X181762245Y-109179870D02*
X181789182Y-109260682D01*
X181789182Y-109260682D02*
X181789182Y-109314557D01*
X181789182Y-109314557D02*
X181762245Y-109395369D01*
X181762245Y-109395369D02*
X181546746Y-109610868D01*
X181843057Y-108829683D02*
X181843057Y-108775809D01*
X181843057Y-108775809D02*
X181869995Y-108694996D01*
X181869995Y-108694996D02*
X182004682Y-108560309D01*
X182004682Y-108560309D02*
X182085494Y-108533372D01*
X182085494Y-108533372D02*
X182139369Y-108533372D01*
X182139369Y-108533372D02*
X182220181Y-108560309D01*
X182220181Y-108560309D02*
X182274056Y-108614184D01*
X182274056Y-108614184D02*
X182327930Y-108721934D01*
X182327930Y-108721934D02*
X182327930Y-109368431D01*
X182327930Y-109368431D02*
X182678117Y-109018245D01*
X182597305Y-107967686D02*
X182489555Y-108075436D01*
X182489555Y-108075436D02*
X182462618Y-108156248D01*
X182462618Y-108156248D02*
X182462618Y-108210123D01*
X182462618Y-108210123D02*
X182489555Y-108344810D01*
X182489555Y-108344810D02*
X182570367Y-108479497D01*
X182570367Y-108479497D02*
X182785866Y-108694996D01*
X182785866Y-108694996D02*
X182866679Y-108721934D01*
X182866679Y-108721934D02*
X182920553Y-108721934D01*
X182920553Y-108721934D02*
X183001366Y-108694996D01*
X183001366Y-108694996D02*
X183109115Y-108587247D01*
X183109115Y-108587247D02*
X183136053Y-108506434D01*
X183136053Y-108506434D02*
X183136053Y-108452560D01*
X183136053Y-108452560D02*
X183109115Y-108371747D01*
X183109115Y-108371747D02*
X182974428Y-108237060D01*
X182974428Y-108237060D02*
X182893616Y-108210123D01*
X182893616Y-108210123D02*
X182839741Y-108210123D01*
X182839741Y-108210123D02*
X182758929Y-108237060D01*
X182758929Y-108237060D02*
X182651179Y-108344810D01*
X182651179Y-108344810D02*
X182624242Y-108425622D01*
X182624242Y-108425622D02*
X182624242Y-108479497D01*
X182624242Y-108479497D02*
X182651179Y-108560309D01*
X181748651Y-112433710D02*
X181290716Y-112352898D01*
X181425403Y-112756959D02*
X180859717Y-112191274D01*
X180859717Y-112191274D02*
X181075216Y-111975775D01*
X181075216Y-111975775D02*
X181156029Y-111948837D01*
X181156029Y-111948837D02*
X181209903Y-111948837D01*
X181209903Y-111948837D02*
X181290716Y-111975775D01*
X181290716Y-111975775D02*
X181371528Y-112056587D01*
X181371528Y-112056587D02*
X181398465Y-112137399D01*
X181398465Y-112137399D02*
X181398465Y-112191274D01*
X181398465Y-112191274D02*
X181371528Y-112272086D01*
X181371528Y-112272086D02*
X181156029Y-112487585D01*
X181425403Y-111625588D02*
X181883338Y-112083524D01*
X181883338Y-112083524D02*
X181964151Y-112110462D01*
X181964151Y-112110462D02*
X182018025Y-112110462D01*
X182018025Y-112110462D02*
X182098838Y-112083524D01*
X182098838Y-112083524D02*
X182206587Y-111975775D01*
X182206587Y-111975775D02*
X182233525Y-111894962D01*
X182233525Y-111894962D02*
X182233525Y-111841088D01*
X182233525Y-111841088D02*
X182206587Y-111760275D01*
X182206587Y-111760275D02*
X181748651Y-111302340D01*
X182583711Y-111598651D02*
X182018025Y-111032966D01*
X182018025Y-111032966D02*
X182906959Y-111275402D01*
X182906959Y-111275402D02*
X182341274Y-110709717D01*
X180996435Y-116988431D02*
X180915623Y-117015368D01*
X180915623Y-117015368D02*
X180834811Y-117096180D01*
X180834811Y-117096180D02*
X180780936Y-117203930D01*
X180780936Y-117203930D02*
X180780936Y-117311680D01*
X180780936Y-117311680D02*
X180807873Y-117392492D01*
X180807873Y-117392492D02*
X180888685Y-117527179D01*
X180888685Y-117527179D02*
X180969498Y-117607991D01*
X180969498Y-117607991D02*
X181104185Y-117688803D01*
X181104185Y-117688803D02*
X181184997Y-117715741D01*
X181184997Y-117715741D02*
X181292746Y-117715741D01*
X181292746Y-117715741D02*
X181400496Y-117661866D01*
X181400496Y-117661866D02*
X181454371Y-117607991D01*
X181454371Y-117607991D02*
X181508246Y-117500241D01*
X181508246Y-117500241D02*
X181508246Y-117446367D01*
X181508246Y-117446367D02*
X181319684Y-117257805D01*
X181319684Y-117257805D02*
X181211934Y-117365554D01*
X181804557Y-117257805D02*
X181238872Y-116692119D01*
X181238872Y-116692119D02*
X182127806Y-116934556D01*
X182127806Y-116934556D02*
X181562120Y-116368871D01*
X182397180Y-116665182D02*
X181831494Y-116099497D01*
X181831494Y-116099497D02*
X181966181Y-115964810D01*
X181966181Y-115964810D02*
X182073931Y-115910935D01*
X182073931Y-115910935D02*
X182181680Y-115910935D01*
X182181680Y-115910935D02*
X182262493Y-115937872D01*
X182262493Y-115937872D02*
X182397180Y-116018685D01*
X182397180Y-116018685D02*
X182477992Y-116099497D01*
X182477992Y-116099497D02*
X182558804Y-116234184D01*
X182558804Y-116234184D02*
X182585741Y-116314996D01*
X182585741Y-116314996D02*
X182585741Y-116422746D01*
X182585741Y-116422746D02*
X182531867Y-116530495D01*
X182531867Y-116530495D02*
X182397180Y-116665182D01*
X138263333Y-116064819D02*
X137930000Y-115588628D01*
X137691905Y-116064819D02*
X137691905Y-115064819D01*
X137691905Y-115064819D02*
X138072857Y-115064819D01*
X138072857Y-115064819D02*
X138168095Y-115112438D01*
X138168095Y-115112438D02*
X138215714Y-115160057D01*
X138215714Y-115160057D02*
X138263333Y-115255295D01*
X138263333Y-115255295D02*
X138263333Y-115398152D01*
X138263333Y-115398152D02*
X138215714Y-115493390D01*
X138215714Y-115493390D02*
X138168095Y-115541009D01*
X138168095Y-115541009D02*
X138072857Y-115588628D01*
X138072857Y-115588628D02*
X137691905Y-115588628D01*
X138834762Y-115493390D02*
X138739524Y-115445771D01*
X138739524Y-115445771D02*
X138691905Y-115398152D01*
X138691905Y-115398152D02*
X138644286Y-115302914D01*
X138644286Y-115302914D02*
X138644286Y-115255295D01*
X138644286Y-115255295D02*
X138691905Y-115160057D01*
X138691905Y-115160057D02*
X138739524Y-115112438D01*
X138739524Y-115112438D02*
X138834762Y-115064819D01*
X138834762Y-115064819D02*
X139025238Y-115064819D01*
X139025238Y-115064819D02*
X139120476Y-115112438D01*
X139120476Y-115112438D02*
X139168095Y-115160057D01*
X139168095Y-115160057D02*
X139215714Y-115255295D01*
X139215714Y-115255295D02*
X139215714Y-115302914D01*
X139215714Y-115302914D02*
X139168095Y-115398152D01*
X139168095Y-115398152D02*
X139120476Y-115445771D01*
X139120476Y-115445771D02*
X139025238Y-115493390D01*
X139025238Y-115493390D02*
X138834762Y-115493390D01*
X138834762Y-115493390D02*
X138739524Y-115541009D01*
X138739524Y-115541009D02*
X138691905Y-115588628D01*
X138691905Y-115588628D02*
X138644286Y-115683866D01*
X138644286Y-115683866D02*
X138644286Y-115874342D01*
X138644286Y-115874342D02*
X138691905Y-115969580D01*
X138691905Y-115969580D02*
X138739524Y-116017200D01*
X138739524Y-116017200D02*
X138834762Y-116064819D01*
X138834762Y-116064819D02*
X139025238Y-116064819D01*
X139025238Y-116064819D02*
X139120476Y-116017200D01*
X139120476Y-116017200D02*
X139168095Y-115969580D01*
X139168095Y-115969580D02*
X139215714Y-115874342D01*
X139215714Y-115874342D02*
X139215714Y-115683866D01*
X139215714Y-115683866D02*
X139168095Y-115588628D01*
X139168095Y-115588628D02*
X139120476Y-115541009D01*
X139120476Y-115541009D02*
X139025238Y-115493390D01*
X152590833Y-116024819D02*
X152257500Y-115548628D01*
X152019405Y-116024819D02*
X152019405Y-115024819D01*
X152019405Y-115024819D02*
X152400357Y-115024819D01*
X152400357Y-115024819D02*
X152495595Y-115072438D01*
X152495595Y-115072438D02*
X152543214Y-115120057D01*
X152543214Y-115120057D02*
X152590833Y-115215295D01*
X152590833Y-115215295D02*
X152590833Y-115358152D01*
X152590833Y-115358152D02*
X152543214Y-115453390D01*
X152543214Y-115453390D02*
X152495595Y-115501009D01*
X152495595Y-115501009D02*
X152400357Y-115548628D01*
X152400357Y-115548628D02*
X152019405Y-115548628D01*
X153447976Y-115358152D02*
X153447976Y-116024819D01*
X153209881Y-114977200D02*
X152971786Y-115691485D01*
X152971786Y-115691485D02*
X153590833Y-115691485D01*
X152590833Y-118564819D02*
X152257500Y-118088628D01*
X152019405Y-118564819D02*
X152019405Y-117564819D01*
X152019405Y-117564819D02*
X152400357Y-117564819D01*
X152400357Y-117564819D02*
X152495595Y-117612438D01*
X152495595Y-117612438D02*
X152543214Y-117660057D01*
X152543214Y-117660057D02*
X152590833Y-117755295D01*
X152590833Y-117755295D02*
X152590833Y-117898152D01*
X152590833Y-117898152D02*
X152543214Y-117993390D01*
X152543214Y-117993390D02*
X152495595Y-118041009D01*
X152495595Y-118041009D02*
X152400357Y-118088628D01*
X152400357Y-118088628D02*
X152019405Y-118088628D01*
X152924167Y-117564819D02*
X153543214Y-117564819D01*
X153543214Y-117564819D02*
X153209881Y-117945771D01*
X153209881Y-117945771D02*
X153352738Y-117945771D01*
X153352738Y-117945771D02*
X153447976Y-117993390D01*
X153447976Y-117993390D02*
X153495595Y-118041009D01*
X153495595Y-118041009D02*
X153543214Y-118136247D01*
X153543214Y-118136247D02*
X153543214Y-118374342D01*
X153543214Y-118374342D02*
X153495595Y-118469580D01*
X153495595Y-118469580D02*
X153447976Y-118517200D01*
X153447976Y-118517200D02*
X153352738Y-118564819D01*
X153352738Y-118564819D02*
X153067024Y-118564819D01*
X153067024Y-118564819D02*
X152971786Y-118517200D01*
X152971786Y-118517200D02*
X152924167Y-118469580D01*
X145288095Y-91164819D02*
X145288095Y-91974342D01*
X145288095Y-91974342D02*
X145335714Y-92069580D01*
X145335714Y-92069580D02*
X145383333Y-92117200D01*
X145383333Y-92117200D02*
X145478571Y-92164819D01*
X145478571Y-92164819D02*
X145669047Y-92164819D01*
X145669047Y-92164819D02*
X145764285Y-92117200D01*
X145764285Y-92117200D02*
X145811904Y-92069580D01*
X145811904Y-92069580D02*
X145859523Y-91974342D01*
X145859523Y-91974342D02*
X145859523Y-91164819D01*
X146288095Y-91260057D02*
X146335714Y-91212438D01*
X146335714Y-91212438D02*
X146430952Y-91164819D01*
X146430952Y-91164819D02*
X146669047Y-91164819D01*
X146669047Y-91164819D02*
X146764285Y-91212438D01*
X146764285Y-91212438D02*
X146811904Y-91260057D01*
X146811904Y-91260057D02*
X146859523Y-91355295D01*
X146859523Y-91355295D02*
X146859523Y-91450533D01*
X146859523Y-91450533D02*
X146811904Y-91593390D01*
X146811904Y-91593390D02*
X146240476Y-92164819D01*
X146240476Y-92164819D02*
X146859523Y-92164819D01*
X138729819Y-131143333D02*
X139444104Y-131143333D01*
X139444104Y-131143333D02*
X139586961Y-131190952D01*
X139586961Y-131190952D02*
X139682200Y-131286190D01*
X139682200Y-131286190D02*
X139729819Y-131429047D01*
X139729819Y-131429047D02*
X139729819Y-131524285D01*
X139729819Y-130143333D02*
X139729819Y-130714761D01*
X139729819Y-130429047D02*
X138729819Y-130429047D01*
X138729819Y-130429047D02*
X138872676Y-130524285D01*
X138872676Y-130524285D02*
X138967914Y-130619523D01*
X138967914Y-130619523D02*
X139015533Y-130714761D01*
D11*
%TO.C,R1*%
X149632936Y-122455000D02*
X150087064Y-122455000D01*
X149632936Y-123925000D02*
X150087064Y-123925000D01*
%TO.C,R7*%
X141100436Y-117335000D02*
X141554564Y-117335000D01*
X141100436Y-118805000D02*
X141554564Y-118805000D01*
%TO.C,R6*%
X141100436Y-119875000D02*
X141554564Y-119875000D01*
X141100436Y-121345000D02*
X141554564Y-121345000D01*
%TO.C,R2*%
X149632936Y-119915000D02*
X150087064Y-119915000D01*
X149632936Y-121385000D02*
X150087064Y-121385000D01*
%TO.C,R5*%
X141100436Y-122415000D02*
X141554564Y-122415000D01*
X141100436Y-123885000D02*
X141554564Y-123885000D01*
%TO.C,U1*%
X158410000Y-84990000D02*
X158410000Y-85290000D01*
X158410000Y-84990000D02*
X179410000Y-84990000D01*
X158410000Y-87390000D02*
X158410000Y-87790000D01*
X158410000Y-87657000D02*
X161417000Y-87657000D01*
X158410000Y-89990000D02*
X158410000Y-90390000D01*
X158410000Y-92490000D02*
X158410000Y-92890000D01*
X158410000Y-95090000D02*
X158410000Y-95490000D01*
X158410000Y-97590000D02*
X158410000Y-97990000D01*
X158410000Y-100090000D02*
X158410000Y-100490000D01*
X158410000Y-102690000D02*
X158410000Y-103090000D01*
X158410000Y-105190000D02*
X158410000Y-105590000D01*
X158410000Y-107790000D02*
X158410000Y-108190000D01*
X158410000Y-110290000D02*
X158410000Y-110690000D01*
X158410000Y-112790000D02*
X158410000Y-113190000D01*
X158410000Y-115390000D02*
X158410000Y-115790000D01*
X158410000Y-117890000D02*
X158410000Y-118290000D01*
X158410000Y-120490000D02*
X158410000Y-120890000D01*
X158410000Y-122990000D02*
X158410000Y-123390000D01*
X158410000Y-125590000D02*
X158410000Y-125990000D01*
X158410000Y-128090000D02*
X158410000Y-128490000D01*
X158410000Y-130590000D02*
X158410000Y-130990000D01*
X158410000Y-133190000D02*
X158410000Y-133590000D01*
X161417000Y-87657000D02*
X161417000Y-84990000D01*
X165210000Y-135990000D02*
X158410000Y-135990000D01*
X167410000Y-135990000D02*
X167810000Y-135990000D01*
X170010000Y-135990000D02*
X170410000Y-135990000D01*
X179410000Y-84990000D02*
X179410000Y-85290000D01*
X179410000Y-87390000D02*
X179410000Y-87790000D01*
X179410000Y-89990000D02*
X179410000Y-90390000D01*
X179410000Y-92490000D02*
X179410000Y-92890000D01*
X179410000Y-95090000D02*
X179410000Y-95490000D01*
X179410000Y-97590000D02*
X179410000Y-97990000D01*
X179410000Y-100090000D02*
X179410000Y-100490000D01*
X179410000Y-102690000D02*
X179410000Y-103090000D01*
X179410000Y-105190000D02*
X179410000Y-105590000D01*
X179410000Y-107790000D02*
X179410000Y-108190000D01*
X179410000Y-110290000D02*
X179410000Y-110690000D01*
X179410000Y-112790000D02*
X179410000Y-113190000D01*
X179410000Y-115390000D02*
X179410000Y-115790000D01*
X179410000Y-117890000D02*
X179410000Y-118290000D01*
X179410000Y-120490000D02*
X179410000Y-120890000D01*
X179410000Y-122990000D02*
X179410000Y-123390000D01*
X179410000Y-125590000D02*
X179410000Y-125990000D01*
X179410000Y-128090000D02*
X179410000Y-128490000D01*
X179410000Y-130590000D02*
X179410000Y-130990000D01*
X179410000Y-133190000D02*
X179410000Y-133590000D01*
X179410000Y-135990000D02*
X172610000Y-135990000D01*
%TO.C,R8*%
X141100436Y-114835000D02*
X141554564Y-114835000D01*
X141100436Y-116305000D02*
X141554564Y-116305000D01*
%TO.C,R4*%
X149632936Y-114835000D02*
X150087064Y-114835000D01*
X149632936Y-116305000D02*
X150087064Y-116305000D01*
%TO.C,R3*%
X149632936Y-117375000D02*
X150087064Y-117375000D01*
X149632936Y-118845000D02*
X150087064Y-118845000D01*
%TO.C,U2*%
X142190000Y-92550000D02*
X142190000Y-92785000D01*
X142190000Y-105570000D02*
X142190000Y-105335000D01*
X146050000Y-92550000D02*
X142190000Y-92550000D01*
X146050000Y-92550000D02*
X149910000Y-92550000D01*
X146050000Y-105570000D02*
X142190000Y-105570000D01*
X146050000Y-105570000D02*
X149910000Y-105570000D01*
X149910000Y-92550000D02*
X149910000Y-92785000D01*
X149910000Y-105570000D02*
X149910000Y-105335000D01*
X141337500Y-92785000D02*
X140997500Y-92315000D01*
X141677500Y-92315000D01*
X141337500Y-92785000D01*
G36*
X141337500Y-92785000D02*
G01*
X140997500Y-92315000D01*
X141677500Y-92315000D01*
X141337500Y-92785000D01*
G37*
%TO.C,J1*%
X140210000Y-131920000D02*
X140210000Y-130810000D01*
X140970000Y-131920000D02*
X140210000Y-131920000D01*
X141730000Y-129700000D02*
X151825000Y-129700000D01*
X141730000Y-130246529D02*
X141730000Y-129700000D01*
X141730000Y-131920000D02*
X141730000Y-131373471D01*
X141730000Y-131920000D02*
X151825000Y-131920000D01*
X151825000Y-130502470D02*
X151825000Y-129700000D01*
X151825000Y-131920000D02*
X151825000Y-131117530D01*
%TD*%
%LPC*%
D12*
%TO.C,R1*%
X148947500Y-123190000D03*
X150772500Y-123190000D03*
%TD*%
%TO.C,R7*%
X140415000Y-118070000D03*
X142240000Y-118070000D03*
%TD*%
D13*
%TO.C,H1*%
X134620000Y-88265000D03*
%TD*%
D12*
%TO.C,R6*%
X140415000Y-120610000D03*
X142240000Y-120610000D03*
%TD*%
D13*
%TO.C,H2*%
X188595000Y-88265000D03*
%TD*%
%TO.C,H4*%
X188595000Y-134620000D03*
%TD*%
%TO.C,H3*%
X134620000Y-134620000D03*
%TD*%
D12*
%TO.C,R2*%
X148947500Y-120650000D03*
X150772500Y-120650000D03*
%TD*%
%TO.C,R5*%
X140415000Y-123150000D03*
X142240000Y-123150000D03*
%TD*%
D14*
%TO.C,U1*%
X166185000Y-86490000D03*
D15*
X166485000Y-89520000D03*
X171335000Y-89520000D03*
D14*
X171635000Y-86490000D03*
D16*
X160020000Y-86360000D03*
D17*
X159120000Y-86360000D03*
D16*
X160020000Y-88900000D03*
D17*
X159120000Y-88900000D03*
D18*
X160020000Y-91440000D03*
D17*
X159120000Y-91440000D03*
D16*
X160020000Y-93980000D03*
D17*
X159120000Y-93980000D03*
D16*
X160020000Y-96520000D03*
D17*
X159120000Y-96520000D03*
D16*
X160020000Y-99060000D03*
D17*
X159120000Y-99060000D03*
D16*
X160020000Y-101600000D03*
D17*
X159120000Y-101600000D03*
D18*
X160020000Y-104140000D03*
D17*
X159120000Y-104140000D03*
D16*
X160020000Y-106680000D03*
D17*
X159120000Y-106680000D03*
D16*
X160020000Y-109220000D03*
D17*
X159120000Y-109220000D03*
D16*
X160020000Y-111760000D03*
D17*
X159120000Y-111760000D03*
D16*
X160020000Y-114300000D03*
D17*
X159120000Y-114300000D03*
D18*
X160020000Y-116840000D03*
D17*
X159120000Y-116840000D03*
D16*
X160020000Y-119380000D03*
D17*
X159120000Y-119380000D03*
D16*
X160020000Y-121920000D03*
D17*
X159120000Y-121920000D03*
D16*
X160020000Y-124460000D03*
D17*
X159120000Y-124460000D03*
D16*
X160020000Y-127000000D03*
D17*
X159120000Y-127000000D03*
D18*
X160020000Y-129540000D03*
D17*
X159120000Y-129540000D03*
D16*
X160020000Y-132080000D03*
D17*
X159120000Y-132080000D03*
D16*
X160020000Y-134620000D03*
D17*
X159120000Y-134620000D03*
D16*
X177800000Y-134620000D03*
D17*
X178700000Y-134620000D03*
D16*
X177800000Y-132080000D03*
D17*
X178700000Y-132080000D03*
D18*
X177800000Y-129540000D03*
D17*
X178700000Y-129540000D03*
D16*
X177800000Y-127000000D03*
D17*
X178700000Y-127000000D03*
D16*
X177800000Y-124460000D03*
D17*
X178700000Y-124460000D03*
D16*
X177800000Y-121920000D03*
D17*
X178700000Y-121920000D03*
D16*
X177800000Y-119380000D03*
D17*
X178700000Y-119380000D03*
D18*
X177800000Y-116840000D03*
D17*
X178700000Y-116840000D03*
D16*
X177800000Y-114300000D03*
D17*
X178700000Y-114300000D03*
D16*
X177800000Y-111760000D03*
D17*
X178700000Y-111760000D03*
D16*
X177800000Y-109220000D03*
D17*
X178700000Y-109220000D03*
D16*
X177800000Y-106680000D03*
D17*
X178700000Y-106680000D03*
D18*
X177800000Y-104140000D03*
D17*
X178700000Y-104140000D03*
D16*
X177800000Y-101600000D03*
D17*
X178700000Y-101600000D03*
D16*
X177800000Y-99060000D03*
D17*
X178700000Y-99060000D03*
D16*
X177800000Y-96520000D03*
D17*
X178700000Y-96520000D03*
D16*
X177800000Y-93980000D03*
D17*
X178700000Y-93980000D03*
D18*
X177800000Y-91440000D03*
D17*
X178700000Y-91440000D03*
D16*
X177800000Y-88900000D03*
D17*
X178700000Y-88900000D03*
D16*
X177800000Y-86360000D03*
D17*
X178700000Y-86360000D03*
D16*
X166370000Y-134390000D03*
D19*
X166370000Y-135290000D03*
D18*
X168910000Y-134390000D03*
D19*
X168910000Y-135290000D03*
D16*
X171450000Y-134390000D03*
D19*
X171450000Y-135290000D03*
%TD*%
D12*
%TO.C,R8*%
X140415000Y-115570000D03*
X142240000Y-115570000D03*
%TD*%
%TO.C,R4*%
X148947500Y-115570000D03*
X150772500Y-115570000D03*
%TD*%
%TO.C,R3*%
X148947500Y-118110000D03*
X150772500Y-118110000D03*
%TD*%
D20*
%TO.C,U2*%
X141400000Y-93345000D03*
X141400000Y-94615000D03*
X141400000Y-95885000D03*
X141400000Y-97155000D03*
X141400000Y-98425000D03*
X141400000Y-99695000D03*
X141400000Y-100965000D03*
X141400000Y-102235000D03*
X141400000Y-103505000D03*
X141400000Y-104775000D03*
X150700000Y-104775000D03*
X150700000Y-103505000D03*
X150700000Y-102235000D03*
X150700000Y-100965000D03*
X150700000Y-99695000D03*
X150700000Y-98425000D03*
X150700000Y-97155000D03*
X150700000Y-95885000D03*
X150700000Y-94615000D03*
X150700000Y-93345000D03*
%TD*%
D21*
%TO.C,J1*%
X140970000Y-130810000D03*
D22*
X142240000Y-130810000D03*
X143510000Y-130810000D03*
X144780000Y-130810000D03*
X146050000Y-130810000D03*
X147320000Y-130810000D03*
X148590000Y-130810000D03*
X149860000Y-130810000D03*
X151130000Y-130810000D03*
%TD*%
%LPD*%
D23*
X133810000Y-84455000D02*
X189405000Y-84455000D01*
X189405000Y-84455000D02*
G75*
G02*
X192405000Y-87455000I0J-3000000D01*
G01*
X133810000Y-138430000D02*
G75*
G02*
X130810000Y-135430000I0J3000000D01*
G01*
X130810000Y-135430000D02*
X130810000Y-87455000D01*
X192405000Y-135430000D02*
G75*
G02*
X189405000Y-138430000I-3000000J0D01*
G01*
X189405000Y-138430000D02*
X133810000Y-138430000D01*
X192405000Y-87455000D02*
X192405000Y-135430000D01*
X130810000Y-87455000D02*
G75*
G02*
X133810000Y-84455000I3000000J0D01*
G01*
M02*
